solid OpenSCAD_Model
  facet normal 0.258823 0.965925 -0
    outer loop
      vertex 118.481 -45.968 0
      vertex 117.481 -45.7 10
      vertex 118.481 -45.968 10
    endloop
  endfacet
  facet normal 0.258823 0.965925 0
    outer loop
      vertex 117.481 -45.7 10
      vertex 118.481 -45.968 0
      vertex 117.481 -45.7 0
    endloop
  endfacet
  facet normal 0.965925 0.258822 0
    outer loop
      vertex 116.749 -44.968 10
      vertex 116.481 -43.968 0
      vertex 116.481 -43.968 10
    endloop
  endfacet
  facet normal 0.965925 0.258822 0
    outer loop
      vertex 116.481 -43.968 0
      vertex 116.749 -44.968 10
      vertex 116.749 -44.968 0
    endloop
  endfacet
  facet normal 0.707103 0.70711 -0
    outer loop
      vertex 117.481 -45.7 0
      vertex 116.749 -44.968 10
      vertex 117.481 -45.7 10
    endloop
  endfacet
  facet normal 0.707103 0.70711 0
    outer loop
      vertex 116.749 -44.968 10
      vertex 117.481 -45.7 0
      vertex 116.749 -44.968 0
    endloop
  endfacet
  facet normal -0.965927 0.258815 0
    outer loop
      vertex 120.213 -44.968 0
      vertex 120.481 -43.968 10
      vertex 120.481 -43.968 0
    endloop
  endfacet
  facet normal -0.965927 0.258815 0
    outer loop
      vertex 120.481 -43.968 10
      vertex 120.213 -44.968 0
      vertex 120.213 -44.968 10
    endloop
  endfacet
  facet normal -0.258822 0.965925 0
    outer loop
      vertex 119.481 -45.7 0
      vertex 118.481 -45.968 10
      vertex 119.481 -45.7 10
    endloop
  endfacet
  facet normal -0.258822 0.965925 0
    outer loop
      vertex 118.481 -45.968 10
      vertex 119.481 -45.7 0
      vertex 118.481 -45.968 0
    endloop
  endfacet
  facet normal -0.707103 0.70711 0
    outer loop
      vertex 120.213 -44.968 0
      vertex 119.481 -45.7 10
      vertex 120.213 -44.968 10
    endloop
  endfacet
  facet normal -0.707103 0.70711 0
    outer loop
      vertex 119.481 -45.7 10
      vertex 120.213 -44.968 0
      vertex 119.481 -45.7 0
    endloop
  endfacet
  facet normal 0.25882 -0.965926 0
    outer loop
      vertex 117.481 -38.7359 0
      vertex 118.481 -38.468 10
      vertex 117.481 -38.7359 10
    endloop
  endfacet
  facet normal 0.25882 -0.965926 0
    outer loop
      vertex 118.481 -38.468 10
      vertex 117.481 -38.7359 0
      vertex 118.481 -38.468 0
    endloop
  endfacet
  facet normal -0.965927 -0.258815 0
    outer loop
      vertex 120.481 -40.468 0
      vertex 120.213 -39.468 10
      vertex 120.213 -39.468 0
    endloop
  endfacet
  facet normal -0.965927 -0.258815 0
    outer loop
      vertex 120.213 -39.468 10
      vertex 120.481 -40.468 0
      vertex 120.481 -40.468 10
    endloop
  endfacet
  facet normal 0.965925 -0.258822 0
    outer loop
      vertex 116.481 -40.468 10
      vertex 116.749 -39.468 0
      vertex 116.749 -39.468 10
    endloop
  endfacet
  facet normal 0.965925 -0.258822 0
    outer loop
      vertex 116.749 -39.468 0
      vertex 116.481 -40.468 10
      vertex 116.481 -40.468 0
    endloop
  endfacet
  facet normal 0.707105 -0.707109 0
    outer loop
      vertex 116.749 -39.468 0
      vertex 117.481 -38.7359 10
      vertex 116.749 -39.468 10
    endloop
  endfacet
  facet normal 0.707105 -0.707109 0
    outer loop
      vertex 117.481 -38.7359 10
      vertex 116.749 -39.468 0
      vertex 117.481 -38.7359 0
    endloop
  endfacet
  facet normal -0.707105 -0.707109 0
    outer loop
      vertex 119.481 -38.7359 0
      vertex 120.213 -39.468 10
      vertex 119.481 -38.7359 10
    endloop
  endfacet
  facet normal -0.707105 -0.707109 -0
    outer loop
      vertex 120.213 -39.468 10
      vertex 119.481 -38.7359 0
      vertex 120.213 -39.468 0
    endloop
  endfacet
  facet normal -0.258818 -0.965926 0
    outer loop
      vertex 118.481 -38.468 0
      vertex 119.481 -38.7359 10
      vertex 118.481 -38.468 10
    endloop
  endfacet
  facet normal -0.258818 -0.965926 -0
    outer loop
      vertex 119.481 -38.7359 10
      vertex 118.481 -38.468 0
      vertex 119.481 -38.7359 0
    endloop
  endfacet
  facet normal 1 -0 0
    outer loop
      vertex 116.481 -43.968 10
      vertex 116.481 -40.468 0
      vertex 116.481 -40.468 10
    endloop
  endfacet
  facet normal 1 0 0
    outer loop
      vertex 116.481 -40.468 0
      vertex 116.481 -43.968 10
      vertex 116.481 -43.968 0
    endloop
  endfacet
  facet normal -1 0 0
    outer loop
      vertex 120.481 -43.968 0
      vertex 120.481 -40.468 10
      vertex 120.481 -40.468 0
    endloop
  endfacet
  facet normal -1 -0 0
    outer loop
      vertex 120.481 -40.468 10
      vertex 120.481 -43.968 0
      vertex 120.481 -43.968 10
    endloop
  endfacet
  facet normal 0.25882 0.965926 -0
    outer loop
      vertex 118.481 38.468 0
      vertex 117.481 38.7359 10
      vertex 118.481 38.468 10
    endloop
  endfacet
  facet normal 0.25882 0.965926 0
    outer loop
      vertex 117.481 38.7359 10
      vertex 118.481 38.468 0
      vertex 117.481 38.7359 0
    endloop
  endfacet
  facet normal 0.965925 0.258822 0
    outer loop
      vertex 116.749 39.468 10
      vertex 116.481 40.468 0
      vertex 116.481 40.468 10
    endloop
  endfacet
  facet normal 0.965925 0.258822 0
    outer loop
      vertex 116.481 40.468 0
      vertex 116.749 39.468 10
      vertex 116.749 39.468 0
    endloop
  endfacet
  facet normal 0.707105 0.707109 -0
    outer loop
      vertex 117.481 38.7359 0
      vertex 116.749 39.468 10
      vertex 117.481 38.7359 10
    endloop
  endfacet
  facet normal 0.707105 0.707109 0
    outer loop
      vertex 116.749 39.468 10
      vertex 117.481 38.7359 0
      vertex 116.749 39.468 0
    endloop
  endfacet
  facet normal -0.965927 0.258815 0
    outer loop
      vertex 120.213 39.468 0
      vertex 120.481 40.468 10
      vertex 120.481 40.468 0
    endloop
  endfacet
  facet normal -0.965927 0.258815 0
    outer loop
      vertex 120.481 40.468 10
      vertex 120.213 39.468 0
      vertex 120.213 39.468 10
    endloop
  endfacet
  facet normal -0.258818 0.965926 0
    outer loop
      vertex 119.481 38.7359 0
      vertex 118.481 38.468 10
      vertex 119.481 38.7359 10
    endloop
  endfacet
  facet normal -0.258818 0.965926 0
    outer loop
      vertex 118.481 38.468 10
      vertex 119.481 38.7359 0
      vertex 118.481 38.468 0
    endloop
  endfacet
  facet normal -0.707105 0.707109 0
    outer loop
      vertex 120.213 39.468 0
      vertex 119.481 38.7359 10
      vertex 120.213 39.468 10
    endloop
  endfacet
  facet normal -0.707105 0.707109 0
    outer loop
      vertex 119.481 38.7359 10
      vertex 120.213 39.468 0
      vertex 119.481 38.7359 0
    endloop
  endfacet
  facet normal 0.258823 -0.965925 0
    outer loop
      vertex 117.481 45.7 0
      vertex 118.481 45.968 10
      vertex 117.481 45.7 10
    endloop
  endfacet
  facet normal 0.258823 -0.965925 0
    outer loop
      vertex 118.481 45.968 10
      vertex 117.481 45.7 0
      vertex 118.481 45.968 0
    endloop
  endfacet
  facet normal -0.965927 -0.258815 0
    outer loop
      vertex 120.481 43.968 0
      vertex 120.213 44.968 10
      vertex 120.213 44.968 0
    endloop
  endfacet
  facet normal -0.965927 -0.258815 0
    outer loop
      vertex 120.213 44.968 10
      vertex 120.481 43.968 0
      vertex 120.481 43.968 10
    endloop
  endfacet
  facet normal 0.965925 -0.258822 0
    outer loop
      vertex 116.481 43.968 10
      vertex 116.749 44.968 0
      vertex 116.749 44.968 10
    endloop
  endfacet
  facet normal 0.965925 -0.258822 0
    outer loop
      vertex 116.749 44.968 0
      vertex 116.481 43.968 10
      vertex 116.481 43.968 0
    endloop
  endfacet
  facet normal 0.707103 -0.70711 0
    outer loop
      vertex 116.749 44.968 0
      vertex 117.481 45.7 10
      vertex 116.749 44.968 10
    endloop
  endfacet
  facet normal 0.707103 -0.70711 0
    outer loop
      vertex 117.481 45.7 10
      vertex 116.749 44.968 0
      vertex 117.481 45.7 0
    endloop
  endfacet
  facet normal -0.707103 -0.70711 0
    outer loop
      vertex 119.481 45.7 0
      vertex 120.213 44.968 10
      vertex 119.481 45.7 10
    endloop
  endfacet
  facet normal -0.707103 -0.70711 -0
    outer loop
      vertex 120.213 44.968 10
      vertex 119.481 45.7 0
      vertex 120.213 44.968 0
    endloop
  endfacet
  facet normal -0.258822 -0.965925 0
    outer loop
      vertex 118.481 45.968 0
      vertex 119.481 45.7 10
      vertex 118.481 45.968 10
    endloop
  endfacet
  facet normal -0.258822 -0.965925 -0
    outer loop
      vertex 119.481 45.7 10
      vertex 118.481 45.968 0
      vertex 119.481 45.7 0
    endloop
  endfacet
  facet normal 1 -0 0
    outer loop
      vertex 116.481 40.468 10
      vertex 116.481 43.968 0
      vertex 116.481 43.968 10
    endloop
  endfacet
  facet normal 1 0 0
    outer loop
      vertex 116.481 43.968 0
      vertex 116.481 40.468 10
      vertex 116.481 40.468 0
    endloop
  endfacet
  facet normal -1 0 0
    outer loop
      vertex 120.481 40.468 0
      vertex 120.481 43.968 10
      vertex 120.481 43.968 0
    endloop
  endfacet
  facet normal -1 -0 0
    outer loop
      vertex 120.481 43.968 10
      vertex 120.481 40.468 0
      vertex 120.481 40.468 10
    endloop
  endfacet
  facet normal -1 0 0
    outer loop
      vertex 103.923 59.9935 0
      vertex 103.923 62 10
      vertex 103.923 62 0
    endloop
  endfacet
  facet normal -1 -0 0
    outer loop
      vertex 103.923 62 10
      vertex 103.923 59.9935 0
      vertex 103.923 59.9935 10
    endloop
  endfacet
  facet normal -1 0 0
    outer loop
      vertex 103.923 -62 0
      vertex 103.923 -59.9935 10
      vertex 103.923 -59.9935 0
    endloop
  endfacet
  facet normal -1 -0 0
    outer loop
      vertex 103.923 -59.9935 10
      vertex 103.923 -62 0
      vertex 103.923 -62 10
    endloop
  endfacet
  facet normal 0 -0 1
    outer loop
      vertex 119.941 3.76929 10
      vertex 130 46.9445 10
      vertex 119.867 5.65277 10
    endloop
  endfacet
  facet normal -0 0 1
    outer loop
      vertex 119.985 -1.88488 10
      vertex 130 -46.9445 10
      vertex 120 0 10
    endloop
  endfacet
  facet normal -0 0 1
    outer loop
      vertex 119.941 -3.76929 10
      vertex 130 -46.9445 10
      vertex 119.985 -1.88488 10
    endloop
  endfacet
  facet normal 0 0 1
    outer loop
      vertex 130 46.9445 10
      vertex 120 0 10
      vertex 130 -46.9445 10
    endloop
  endfacet
  facet normal 0 -0 1
    outer loop
      vertex 120 0 10
      vertex 130 46.9445 10
      vertex 119.985 1.88488 10
    endloop
  endfacet
  facet normal 0 -0 1
    outer loop
      vertex 119.985 1.88488 10
      vertex 130 46.9445 10
      vertex 119.941 3.76929 10
    endloop
  endfacet
  facet normal 0 0 1
    outer loop
      vertex 120.213 39.468 10
      vertex 119.763 7.53486 10
      vertex 119.867 5.65277 10
    endloop
  endfacet
  facet normal 0 0 1
    outer loop
      vertex 120.213 39.468 10
      vertex 119.63 9.41509 10
      vertex 119.763 7.53486 10
    endloop
  endfacet
  facet normal 0 0 1
    outer loop
      vertex 116.684 28.0134 10
      vertex 120.213 39.468 10
      vertex 119.481 38.7359 10
    endloop
  endfacet
  facet normal 0 0 1
    outer loop
      vertex 120.213 39.468 10
      vertex 119.467 11.293 10
      vertex 119.63 9.41509 10
    endloop
  endfacet
  facet normal 0 0 1
    outer loop
      vertex 120.213 39.468 10
      vertex 119.275 13.1681 10
      vertex 119.467 11.293 10
    endloop
  endfacet
  facet normal 0 0 1
    outer loop
      vertex 120.213 39.468 10
      vertex 119.054 15.04 10
      vertex 119.275 13.1681 10
    endloop
  endfacet
  facet normal 0 0 1
    outer loop
      vertex 120.213 39.468 10
      vertex 118.803 16.9081 10
      vertex 119.054 15.04 10
    endloop
  endfacet
  facet normal 0 0 1
    outer loop
      vertex 120.213 39.468 10
      vertex 118.523 18.7721 10
      vertex 118.803 16.9081 10
    endloop
  endfacet
  facet normal 0 0 1
    outer loop
      vertex 115.747 31.6648 10
      vertex 119.481 38.7359 10
      vertex 118.481 38.468 10
    endloop
  endfacet
  facet normal 0 0 1
    outer loop
      vertex 120.213 39.468 10
      vertex 118.213 20.6315 10
      vertex 118.523 18.7721 10
    endloop
  endfacet
  facet normal 0 0 1
    outer loop
      vertex 120.213 39.468 10
      vertex 117.874 22.4858 10
      vertex 118.213 20.6315 10
    endloop
  endfacet
  facet normal 0 0 1
    outer loop
      vertex 120.213 39.468 10
      vertex 117.507 24.3345 10
      vertex 117.874 22.4858 10
    endloop
  endfacet
  facet normal 0 0 1
    outer loop
      vertex 114.695 35.2848 10
      vertex 118.481 38.468 10
      vertex 117.481 38.7359 10
    endloop
  endfacet
  facet normal 0 0 1
    outer loop
      vertex 120.213 39.468 10
      vertex 117.11 26.1772 10
      vertex 117.507 24.3345 10
    endloop
  endfacet
  facet normal 0 0 1
    outer loop
      vertex 114.127 37.082 10
      vertex 117.481 38.7359 10
      vertex 116.749 39.468 10
    endloop
  endfacet
  facet normal 0 0 1
    outer loop
      vertex 120.213 39.468 10
      vertex 116.684 28.0134 10
      vertex 117.11 26.1772 10
    endloop
  endfacet
  facet normal 0 0 1
    outer loop
      vertex 113.53 38.8701 10
      vertex 116.749 39.468 10
      vertex 116.481 40.468 10
    endloop
  endfacet
  facet normal 0 0 1
    outer loop
      vertex 119.481 38.7359 10
      vertex 116.23 29.8428 10
      vertex 116.684 28.0134 10
    endloop
  endfacet
  facet normal 0 0 1
    outer loop
      vertex 120.481 40.468 10
      vertex 130 46.9445 10
      vertex 120.481 43.968 10
    endloop
  endfacet
  facet normal 0 0 1
    outer loop
      vertex 130 46.9445 10
      vertex 120.213 44.968 10
      vertex 120.481 43.968 10
    endloop
  endfacet
  facet normal 0 0 1
    outer loop
      vertex 130 46.9445 10
      vertex 119.481 45.7 10
      vertex 120.213 44.968 10
    endloop
  endfacet
  facet normal 0 0 1
    outer loop
      vertex 130 46.9445 10
      vertex 118.481 45.968 10
      vertex 119.481 45.7 10
    endloop
  endfacet
  facet normal -0 0 1
    outer loop
      vertex 112.906 40.6486 10
      vertex 116.481 40.468 10
      vertex 116.481 43.968 10
    endloop
  endfacet
  facet normal 0 0 1
    outer loop
      vertex 119.481 38.7359 10
      vertex 115.747 31.6648 10
      vertex 116.23 29.8428 10
    endloop
  endfacet
  facet normal 0 0 1
    outer loop
      vertex 118.481 38.468 10
      vertex 115.235 33.4789 10
      vertex 115.747 31.6648 10
    endloop
  endfacet
  facet normal 0 0 1
    outer loop
      vertex 118.481 38.468 10
      vertex 114.695 35.2848 10
      vertex 115.235 33.4789 10
    endloop
  endfacet
  facet normal 0 0 1
    outer loop
      vertex 117.481 38.7359 10
      vertex 114.127 37.082 10
      vertex 114.695 35.2848 10
    endloop
  endfacet
  facet normal -0 0 1
    outer loop
      vertex 111.573 44.1749 10
      vertex 116.481 43.968 10
      vertex 116.749 44.968 10
    endloop
  endfacet
  facet normal 0 0 1
    outer loop
      vertex 116.749 39.468 10
      vertex 113.53 38.8701 10
      vertex 114.127 37.082 10
    endloop
  endfacet
  facet normal 0 0 1
    outer loop
      vertex 116.481 40.468 10
      vertex 112.906 40.6486 10
      vertex 113.53 38.8701 10
    endloop
  endfacet
  facet normal 0 0 1
    outer loop
      vertex 116.481 43.968 10
      vertex 112.253 42.417 10
      vertex 112.906 40.6486 10
    endloop
  endfacet
  facet normal 0 0 1
    outer loop
      vertex 110.866 45.922 10
      vertex 116.749 44.968 10
      vertex 117.481 45.7 10
    endloop
  endfacet
  facet normal 0 0 1
    outer loop
      vertex 116.481 43.968 10
      vertex 111.573 44.1749 10
      vertex 112.253 42.417 10
    endloop
  endfacet
  facet normal 0 0 1
    outer loop
      vertex 109.368 49.3817 10
      vertex 117.481 45.7 10
      vertex 118.481 45.968 10
    endloop
  endfacet
  facet normal 0 0 1
    outer loop
      vertex 116.749 44.968 10
      vertex 110.866 45.922 10
      vertex 111.573 44.1749 10
    endloop
  endfacet
  facet normal 0 0 1
    outer loop
      vertex 106.921 54.4789 10
      vertex 118.481 45.968 10
      vertex 130 46.9445 10
    endloop
  endfacet
  facet normal 0 0 1
    outer loop
      vertex 117.481 45.7 10
      vertex 110.131 47.6577 10
      vertex 110.866 45.922 10
    endloop
  endfacet
  facet normal 0 0 1
    outer loop
      vertex 117.481 45.7 10
      vertex 109.368 49.3817 10
      vertex 110.131 47.6577 10
    endloop
  endfacet
  facet normal 0 0 1
    outer loop
      vertex 118.481 45.968 10
      vertex 108.579 51.0935 10
      vertex 109.368 49.3817 10
    endloop
  endfacet
  facet normal 0 0 1
    outer loop
      vertex 118.481 45.968 10
      vertex 107.763 52.7927 10
      vertex 108.579 51.0935 10
    endloop
  endfacet
  facet normal 0 0 1
    outer loop
      vertex 118.481 45.968 10
      vertex 106.921 54.4789 10
      vertex 107.763 52.7927 10
    endloop
  endfacet
  facet normal 0 0 1
    outer loop
      vertex 130 46.9445 10
      vertex 106.052 56.1516 10
      vertex 106.921 54.4789 10
    endloop
  endfacet
  facet normal 0 0 1
    outer loop
      vertex 103.923 62 10
      vertex 106.052 56.1516 10
      vertex 130 46.9445 10
    endloop
  endfacet
  facet normal 0 0 1
    outer loop
      vertex 106.052 56.1516 10
      vertex 103.923 62 10
      vertex 105.157 57.8104 10
    endloop
  endfacet
  facet normal 0 0 1
    outer loop
      vertex 105.157 57.8104 10
      vertex 103.923 62 10
      vertex 104.236 59.455 10
    endloop
  endfacet
  facet normal 0 0 1
    outer loop
      vertex 104.236 59.455 10
      vertex 103.923 62 10
      vertex 103.923 59.9935 10
    endloop
  endfacet
  facet normal 0 0 1
    outer loop
      vertex 120.213 39.468 10
      vertex 130 46.9445 10
      vertex 120.481 40.468 10
    endloop
  endfacet
  facet normal 0 0 1
    outer loop
      vertex 119.867 5.65277 10
      vertex 130 46.9445 10
      vertex 120.213 39.468 10
    endloop
  endfacet
  facet normal -0 0 1
    outer loop
      vertex 120.481 -43.968 10
      vertex 130 -46.9445 10
      vertex 120.481 -40.468 10
    endloop
  endfacet
  facet normal -0 0 1
    outer loop
      vertex 120.213 -44.968 10
      vertex 130 -46.9445 10
      vertex 120.481 -43.968 10
    endloop
  endfacet
  facet normal -0 0 1
    outer loop
      vertex 119.481 -45.7 10
      vertex 130 -46.9445 10
      vertex 120.213 -44.968 10
    endloop
  endfacet
  facet normal -0 0 1
    outer loop
      vertex 118.481 -45.968 10
      vertex 130 -46.9445 10
      vertex 119.481 -45.7 10
    endloop
  endfacet
  facet normal -0 0 1
    outer loop
      vertex 114.127 -37.082 10
      vertex 117.481 -38.7359 10
      vertex 114.695 -35.2848 10
    endloop
  endfacet
  facet normal 0 0 1
    outer loop
      vertex 117.481 -38.7359 10
      vertex 114.127 -37.082 10
      vertex 116.749 -39.468 10
    endloop
  endfacet
  facet normal -0 0 1
    outer loop
      vertex 113.53 -38.8701 10
      vertex 116.749 -39.468 10
      vertex 114.127 -37.082 10
    endloop
  endfacet
  facet normal 0 0 1
    outer loop
      vertex 116.749 -39.468 10
      vertex 113.53 -38.8701 10
      vertex 116.481 -40.468 10
    endloop
  endfacet
  facet normal 0 0 1
    outer loop
      vertex 112.906 -40.6486 10
      vertex 116.481 -40.468 10
      vertex 113.53 -38.8701 10
    endloop
  endfacet
  facet normal 0 0 1
    outer loop
      vertex 116.481 -40.468 10
      vertex 112.906 -40.6486 10
      vertex 116.481 -43.968 10
    endloop
  endfacet
  facet normal -0 0 1
    outer loop
      vertex 112.253 -42.417 10
      vertex 116.481 -43.968 10
      vertex 112.906 -40.6486 10
    endloop
  endfacet
  facet normal 0 0 1
    outer loop
      vertex 111.573 -44.1749 10
      vertex 116.481 -43.968 10
      vertex 112.253 -42.417 10
    endloop
  endfacet
  facet normal 0 0 1
    outer loop
      vertex 116.481 -43.968 10
      vertex 111.573 -44.1749 10
      vertex 116.749 -44.968 10
    endloop
  endfacet
  facet normal 0 0 1
    outer loop
      vertex 110.866 -45.922 10
      vertex 116.749 -44.968 10
      vertex 111.573 -44.1749 10
    endloop
  endfacet
  facet normal 0 0 1
    outer loop
      vertex 116.749 -44.968 10
      vertex 110.866 -45.922 10
      vertex 117.481 -45.7 10
    endloop
  endfacet
  facet normal 0 0 1
    outer loop
      vertex 110.131 -47.6577 10
      vertex 117.481 -45.7 10
      vertex 110.866 -45.922 10
    endloop
  endfacet
  facet normal 0 0 1
    outer loop
      vertex 109.368 -49.3817 10
      vertex 117.481 -45.7 10
      vertex 110.131 -47.6577 10
    endloop
  endfacet
  facet normal 0 0 1
    outer loop
      vertex 117.481 -45.7 10
      vertex 109.368 -49.3817 10
      vertex 118.481 -45.968 10
    endloop
  endfacet
  facet normal 0 0 1
    outer loop
      vertex 108.579 -51.0935 10
      vertex 118.481 -45.968 10
      vertex 109.368 -49.3817 10
    endloop
  endfacet
  facet normal 0 0 1
    outer loop
      vertex 107.763 -52.7927 10
      vertex 118.481 -45.968 10
      vertex 108.579 -51.0935 10
    endloop
  endfacet
  facet normal 0 0 1
    outer loop
      vertex 106.921 -54.4789 10
      vertex 118.481 -45.968 10
      vertex 107.763 -52.7927 10
    endloop
  endfacet
  facet normal 0 0 1
    outer loop
      vertex 118.481 -45.968 10
      vertex 106.921 -54.4789 10
      vertex 130 -46.9445 10
    endloop
  endfacet
  facet normal 0 0 1
    outer loop
      vertex 106.052 -56.1516 10
      vertex 130 -46.9445 10
      vertex 106.921 -54.4789 10
    endloop
  endfacet
  facet normal 0 0 1
    outer loop
      vertex 103.923 -62 10
      vertex 106.052 -56.1516 10
      vertex 105.157 -57.8104 10
    endloop
  endfacet
  facet normal 0 0 1
    outer loop
      vertex 103.923 -62 10
      vertex 105.157 -57.8104 10
      vertex 104.236 -59.455 10
    endloop
  endfacet
  facet normal 0 0 1
    outer loop
      vertex 103.923 -62 10
      vertex 104.236 -59.455 10
      vertex 103.923 -59.9935 10
    endloop
  endfacet
  facet normal -0 0 1
    outer loop
      vertex 106.052 -56.1516 10
      vertex 103.923 -62 10
      vertex 130 -46.9445 10
    endloop
  endfacet
  facet normal -0 0 1
    outer loop
      vertex 119.867 -5.65277 10
      vertex 130 -46.9445 10
      vertex 119.941 -3.76929 10
    endloop
  endfacet
  facet normal -0 0 1
    outer loop
      vertex 119.763 -7.53486 10
      vertex 130 -46.9445 10
      vertex 119.867 -5.65277 10
    endloop
  endfacet
  facet normal -0 0 1
    outer loop
      vertex 119.63 -9.41509 10
      vertex 130 -46.9445 10
      vertex 119.763 -7.53486 10
    endloop
  endfacet
  facet normal -0 0 1
    outer loop
      vertex 119.467 -11.293 10
      vertex 130 -46.9445 10
      vertex 119.63 -9.41509 10
    endloop
  endfacet
  facet normal -0 0 1
    outer loop
      vertex 119.275 -13.1681 10
      vertex 130 -46.9445 10
      vertex 119.467 -11.293 10
    endloop
  endfacet
  facet normal -0 0 1
    outer loop
      vertex 119.054 -15.04 10
      vertex 130 -46.9445 10
      vertex 119.275 -13.1681 10
    endloop
  endfacet
  facet normal -0 0 1
    outer loop
      vertex 118.803 -16.9081 10
      vertex 130 -46.9445 10
      vertex 119.054 -15.04 10
    endloop
  endfacet
  facet normal 0 0 1
    outer loop
      vertex 130 -46.9445 10
      vertex 120.213 -39.468 10
      vertex 120.481 -40.468 10
    endloop
  endfacet
  facet normal -0 0 1
    outer loop
      vertex 118.523 -18.7721 10
      vertex 130 -46.9445 10
      vertex 118.803 -16.9081 10
    endloop
  endfacet
  facet normal -0 0 1
    outer loop
      vertex 118.213 -20.6315 10
      vertex 130 -46.9445 10
      vertex 118.523 -18.7721 10
    endloop
  endfacet
  facet normal -0 0 1
    outer loop
      vertex 117.874 -22.4858 10
      vertex 130 -46.9445 10
      vertex 118.213 -20.6315 10
    endloop
  endfacet
  facet normal -0 0 1
    outer loop
      vertex 117.507 -24.3345 10
      vertex 130 -46.9445 10
      vertex 117.874 -22.4858 10
    endloop
  endfacet
  facet normal 0 0 1
    outer loop
      vertex 130 -46.9445 10
      vertex 117.507 -24.3345 10
      vertex 120.213 -39.468 10
    endloop
  endfacet
  facet normal -0 0 1
    outer loop
      vertex 117.11 -26.1772 10
      vertex 120.213 -39.468 10
      vertex 117.507 -24.3345 10
    endloop
  endfacet
  facet normal -0 0 1
    outer loop
      vertex 116.684 -28.0134 10
      vertex 120.213 -39.468 10
      vertex 117.11 -26.1772 10
    endloop
  endfacet
  facet normal 0 0 1
    outer loop
      vertex 120.213 -39.468 10
      vertex 116.684 -28.0134 10
      vertex 119.481 -38.7359 10
    endloop
  endfacet
  facet normal -0 0 1
    outer loop
      vertex 116.23 -29.8428 10
      vertex 119.481 -38.7359 10
      vertex 116.684 -28.0134 10
    endloop
  endfacet
  facet normal -0 0 1
    outer loop
      vertex 115.747 -31.6648 10
      vertex 119.481 -38.7359 10
      vertex 116.23 -29.8428 10
    endloop
  endfacet
  facet normal 0 0 1
    outer loop
      vertex 119.481 -38.7359 10
      vertex 115.747 -31.6648 10
      vertex 118.481 -38.468 10
    endloop
  endfacet
  facet normal -0 0 1
    outer loop
      vertex 115.235 -33.4789 10
      vertex 118.481 -38.468 10
      vertex 115.747 -31.6648 10
    endloop
  endfacet
  facet normal 0 0 1
    outer loop
      vertex 118.481 -38.468 10
      vertex 114.695 -35.2848 10
      vertex 117.481 -38.7359 10
    endloop
  endfacet
  facet normal -0 0 1
    outer loop
      vertex 114.695 -35.2848 10
      vertex 118.481 -38.468 10
      vertex 115.235 -33.4789 10
    endloop
  endfacet
  facet normal 1 -0 0
    outer loop
      vertex 130 -46.9445 10
      vertex 130 46.9445 0
      vertex 130 46.9445 10
    endloop
  endfacet
  facet normal 1 0 0
    outer loop
      vertex 130 46.9445 0
      vertex 130 -46.9445 10
      vertex 130 -46.9445 0
    endloop
  endfacet
  facet normal 0 -0 -1
    outer loop
      vertex 119.941 -3.76929 0
      vertex 130 -46.9445 0
      vertex 119.867 -5.65277 0
    endloop
  endfacet
  facet normal 0 0 -1
    outer loop
      vertex 119.985 1.88488 0
      vertex 130 46.9445 0
      vertex 120 0 0
    endloop
  endfacet
  facet normal 0 0 -1
    outer loop
      vertex 119.941 3.76929 0
      vertex 130 46.9445 0
      vertex 119.985 1.88488 0
    endloop
  endfacet
  facet normal 0 0 -1
    outer loop
      vertex 130 -46.9445 0
      vertex 120 0 0
      vertex 130 46.9445 0
    endloop
  endfacet
  facet normal 0 -0 -1
    outer loop
      vertex 120 0 0
      vertex 130 -46.9445 0
      vertex 119.985 -1.88488 0
    endloop
  endfacet
  facet normal 0 -0 -1
    outer loop
      vertex 119.985 -1.88488 0
      vertex 130 -46.9445 0
      vertex 119.941 -3.76929 0
    endloop
  endfacet
  facet normal 0 0 -1
    outer loop
      vertex 120.213 -39.468 0
      vertex 119.763 -7.53486 0
      vertex 119.867 -5.65277 0
    endloop
  endfacet
  facet normal 0 0 -1
    outer loop
      vertex 120.213 -39.468 0
      vertex 119.63 -9.41509 0
      vertex 119.763 -7.53486 0
    endloop
  endfacet
  facet normal 0 0 -1
    outer loop
      vertex 116.684 -28.0134 0
      vertex 120.213 -39.468 0
      vertex 119.481 -38.7359 0
    endloop
  endfacet
  facet normal 0 0 -1
    outer loop
      vertex 120.213 -39.468 0
      vertex 119.467 -11.293 0
      vertex 119.63 -9.41509 0
    endloop
  endfacet
  facet normal 0 0 -1
    outer loop
      vertex 120.213 -39.468 0
      vertex 119.275 -13.1681 0
      vertex 119.467 -11.293 0
    endloop
  endfacet
  facet normal 0 0 -1
    outer loop
      vertex 120.213 -39.468 0
      vertex 119.054 -15.04 0
      vertex 119.275 -13.1681 0
    endloop
  endfacet
  facet normal 0 0 -1
    outer loop
      vertex 120.213 -39.468 0
      vertex 118.803 -16.9081 0
      vertex 119.054 -15.04 0
    endloop
  endfacet
  facet normal 0 0 -1
    outer loop
      vertex 120.213 -39.468 0
      vertex 118.523 -18.7721 0
      vertex 118.803 -16.9081 0
    endloop
  endfacet
  facet normal 0 0 -1
    outer loop
      vertex 115.747 -31.6648 0
      vertex 119.481 -38.7359 0
      vertex 118.481 -38.468 0
    endloop
  endfacet
  facet normal 0 0 -1
    outer loop
      vertex 120.213 -39.468 0
      vertex 118.213 -20.6315 0
      vertex 118.523 -18.7721 0
    endloop
  endfacet
  facet normal 0 0 -1
    outer loop
      vertex 120.213 -39.468 0
      vertex 117.874 -22.4858 0
      vertex 118.213 -20.6315 0
    endloop
  endfacet
  facet normal 0 0 -1
    outer loop
      vertex 120.213 -39.468 0
      vertex 117.507 -24.3345 0
      vertex 117.874 -22.4858 0
    endloop
  endfacet
  facet normal 0 0 -1
    outer loop
      vertex 114.695 -35.2848 0
      vertex 118.481 -38.468 0
      vertex 117.481 -38.7359 0
    endloop
  endfacet
  facet normal 0 0 -1
    outer loop
      vertex 120.213 -39.468 0
      vertex 117.11 -26.1772 0
      vertex 117.507 -24.3345 0
    endloop
  endfacet
  facet normal 0 0 -1
    outer loop
      vertex 114.127 -37.082 0
      vertex 117.481 -38.7359 0
      vertex 116.749 -39.468 0
    endloop
  endfacet
  facet normal 0 0 -1
    outer loop
      vertex 120.213 -39.468 0
      vertex 116.684 -28.0134 0
      vertex 117.11 -26.1772 0
    endloop
  endfacet
  facet normal 0 0 -1
    outer loop
      vertex 113.53 -38.8701 0
      vertex 116.749 -39.468 0
      vertex 116.481 -40.468 0
    endloop
  endfacet
  facet normal 0 0 -1
    outer loop
      vertex 119.481 -38.7359 0
      vertex 116.23 -29.8428 0
      vertex 116.684 -28.0134 0
    endloop
  endfacet
  facet normal 0 0 -1
    outer loop
      vertex 120.481 -40.468 0
      vertex 130 -46.9445 0
      vertex 120.481 -43.968 0
    endloop
  endfacet
  facet normal 0 0 -1
    outer loop
      vertex 130 -46.9445 0
      vertex 120.213 -44.968 0
      vertex 120.481 -43.968 0
    endloop
  endfacet
  facet normal 0 0 -1
    outer loop
      vertex 130 -46.9445 0
      vertex 119.481 -45.7 0
      vertex 120.213 -44.968 0
    endloop
  endfacet
  facet normal 0 0 -1
    outer loop
      vertex 130 -46.9445 0
      vertex 118.481 -45.968 0
      vertex 119.481 -45.7 0
    endloop
  endfacet
  facet normal 0 0 -1
    outer loop
      vertex 112.906 -40.6486 0
      vertex 116.481 -40.468 0
      vertex 116.481 -43.968 0
    endloop
  endfacet
  facet normal 0 0 -1
    outer loop
      vertex 119.481 -38.7359 0
      vertex 115.747 -31.6648 0
      vertex 116.23 -29.8428 0
    endloop
  endfacet
  facet normal 0 0 -1
    outer loop
      vertex 118.481 -38.468 0
      vertex 115.235 -33.4789 0
      vertex 115.747 -31.6648 0
    endloop
  endfacet
  facet normal 0 0 -1
    outer loop
      vertex 118.481 -38.468 0
      vertex 114.695 -35.2848 0
      vertex 115.235 -33.4789 0
    endloop
  endfacet
  facet normal 0 0 -1
    outer loop
      vertex 117.481 -38.7359 0
      vertex 114.127 -37.082 0
      vertex 114.695 -35.2848 0
    endloop
  endfacet
  facet normal 0 0 -1
    outer loop
      vertex 111.573 -44.1749 0
      vertex 116.481 -43.968 0
      vertex 116.749 -44.968 0
    endloop
  endfacet
  facet normal 0 0 -1
    outer loop
      vertex 116.749 -39.468 0
      vertex 113.53 -38.8701 0
      vertex 114.127 -37.082 0
    endloop
  endfacet
  facet normal -0 0 -1
    outer loop
      vertex 116.481 -40.468 0
      vertex 112.906 -40.6486 0
      vertex 113.53 -38.8701 0
    endloop
  endfacet
  facet normal 0 0 -1
    outer loop
      vertex 116.481 -43.968 0
      vertex 112.253 -42.417 0
      vertex 112.906 -40.6486 0
    endloop
  endfacet
  facet normal 0 0 -1
    outer loop
      vertex 110.866 -45.922 0
      vertex 116.749 -44.968 0
      vertex 117.481 -45.7 0
    endloop
  endfacet
  facet normal -0 0 -1
    outer loop
      vertex 116.481 -43.968 0
      vertex 111.573 -44.1749 0
      vertex 112.253 -42.417 0
    endloop
  endfacet
  facet normal 0 0 -1
    outer loop
      vertex 109.368 -49.3817 0
      vertex 117.481 -45.7 0
      vertex 118.481 -45.968 0
    endloop
  endfacet
  facet normal -0 0 -1
    outer loop
      vertex 116.749 -44.968 0
      vertex 110.866 -45.922 0
      vertex 111.573 -44.1749 0
    endloop
  endfacet
  facet normal 0 0 -1
    outer loop
      vertex 106.921 -54.4789 0
      vertex 118.481 -45.968 0
      vertex 130 -46.9445 0
    endloop
  endfacet
  facet normal 0 0 -1
    outer loop
      vertex 117.481 -45.7 0
      vertex 110.131 -47.6577 0
      vertex 110.866 -45.922 0
    endloop
  endfacet
  facet normal 0 0 -1
    outer loop
      vertex 117.481 -45.7 0
      vertex 109.368 -49.3817 0
      vertex 110.131 -47.6577 0
    endloop
  endfacet
  facet normal 0 0 -1
    outer loop
      vertex 118.481 -45.968 0
      vertex 108.579 -51.0935 0
      vertex 109.368 -49.3817 0
    endloop
  endfacet
  facet normal 0 0 -1
    outer loop
      vertex 118.481 -45.968 0
      vertex 107.763 -52.7927 0
      vertex 108.579 -51.0935 0
    endloop
  endfacet
  facet normal 0 0 -1
    outer loop
      vertex 118.481 -45.968 0
      vertex 106.921 -54.4789 0
      vertex 107.763 -52.7927 0
    endloop
  endfacet
  facet normal 0 0 -1
    outer loop
      vertex 130 -46.9445 0
      vertex 106.052 -56.1516 0
      vertex 106.921 -54.4789 0
    endloop
  endfacet
  facet normal 0 0 -1
    outer loop
      vertex 103.923 -62 0
      vertex 106.052 -56.1516 0
      vertex 130 -46.9445 0
    endloop
  endfacet
  facet normal 0 0 -1
    outer loop
      vertex 106.052 -56.1516 0
      vertex 103.923 -62 0
      vertex 105.157 -57.8104 0
    endloop
  endfacet
  facet normal 0 0 -1
    outer loop
      vertex 105.157 -57.8104 0
      vertex 103.923 -62 0
      vertex 104.236 -59.455 0
    endloop
  endfacet
  facet normal 0 0 -1
    outer loop
      vertex 104.236 -59.455 0
      vertex 103.923 -62 0
      vertex 103.923 -59.9935 0
    endloop
  endfacet
  facet normal 0 0 -1
    outer loop
      vertex 120.213 -39.468 0
      vertex 130 -46.9445 0
      vertex 120.481 -40.468 0
    endloop
  endfacet
  facet normal 0 0 -1
    outer loop
      vertex 119.867 -5.65277 0
      vertex 130 -46.9445 0
      vertex 120.213 -39.468 0
    endloop
  endfacet
  facet normal 0 0 -1
    outer loop
      vertex 120.481 43.968 0
      vertex 130 46.9445 0
      vertex 120.481 40.468 0
    endloop
  endfacet
  facet normal 0 0 -1
    outer loop
      vertex 120.213 44.968 0
      vertex 130 46.9445 0
      vertex 120.481 43.968 0
    endloop
  endfacet
  facet normal 0 0 -1
    outer loop
      vertex 119.481 45.7 0
      vertex 130 46.9445 0
      vertex 120.213 44.968 0
    endloop
  endfacet
  facet normal 0 0 -1
    outer loop
      vertex 118.481 45.968 0
      vertex 130 46.9445 0
      vertex 119.481 45.7 0
    endloop
  endfacet
  facet normal 0 0 -1
    outer loop
      vertex 114.127 37.082 0
      vertex 117.481 38.7359 0
      vertex 114.695 35.2848 0
    endloop
  endfacet
  facet normal -0 0 -1
    outer loop
      vertex 117.481 38.7359 0
      vertex 114.127 37.082 0
      vertex 116.749 39.468 0
    endloop
  endfacet
  facet normal 0 0 -1
    outer loop
      vertex 113.53 38.8701 0
      vertex 116.749 39.468 0
      vertex 114.127 37.082 0
    endloop
  endfacet
  facet normal -0 0 -1
    outer loop
      vertex 116.749 39.468 0
      vertex 113.53 38.8701 0
      vertex 116.481 40.468 0
    endloop
  endfacet
  facet normal 0 0 -1
    outer loop
      vertex 112.906 40.6486 0
      vertex 116.481 40.468 0
      vertex 113.53 38.8701 0
    endloop
  endfacet
  facet normal 0 0 -1
    outer loop
      vertex 116.481 40.468 0
      vertex 112.906 40.6486 0
      vertex 116.481 43.968 0
    endloop
  endfacet
  facet normal 0 0 -1
    outer loop
      vertex 112.253 42.417 0
      vertex 116.481 43.968 0
      vertex 112.906 40.6486 0
    endloop
  endfacet
  facet normal 0 0 -1
    outer loop
      vertex 111.573 44.1749 0
      vertex 116.481 43.968 0
      vertex 112.253 42.417 0
    endloop
  endfacet
  facet normal 0 0 -1
    outer loop
      vertex 116.481 43.968 0
      vertex 111.573 44.1749 0
      vertex 116.749 44.968 0
    endloop
  endfacet
  facet normal 0 0 -1
    outer loop
      vertex 110.866 45.922 0
      vertex 116.749 44.968 0
      vertex 111.573 44.1749 0
    endloop
  endfacet
  facet normal 0 0 -1
    outer loop
      vertex 116.749 44.968 0
      vertex 110.866 45.922 0
      vertex 117.481 45.7 0
    endloop
  endfacet
  facet normal 0 0 -1
    outer loop
      vertex 110.131 47.6577 0
      vertex 117.481 45.7 0
      vertex 110.866 45.922 0
    endloop
  endfacet
  facet normal 0 0 -1
    outer loop
      vertex 109.368 49.3817 0
      vertex 117.481 45.7 0
      vertex 110.131 47.6577 0
    endloop
  endfacet
  facet normal 0 0 -1
    outer loop
      vertex 117.481 45.7 0
      vertex 109.368 49.3817 0
      vertex 118.481 45.968 0
    endloop
  endfacet
  facet normal 0 0 -1
    outer loop
      vertex 108.579 51.0935 0
      vertex 118.481 45.968 0
      vertex 109.368 49.3817 0
    endloop
  endfacet
  facet normal 0 0 -1
    outer loop
      vertex 107.763 52.7927 0
      vertex 118.481 45.968 0
      vertex 108.579 51.0935 0
    endloop
  endfacet
  facet normal 0 0 -1
    outer loop
      vertex 106.921 54.4789 0
      vertex 118.481 45.968 0
      vertex 107.763 52.7927 0
    endloop
  endfacet
  facet normal 0 0 -1
    outer loop
      vertex 118.481 45.968 0
      vertex 106.921 54.4789 0
      vertex 130 46.9445 0
    endloop
  endfacet
  facet normal 0 0 -1
    outer loop
      vertex 106.052 56.1516 0
      vertex 130 46.9445 0
      vertex 106.921 54.4789 0
    endloop
  endfacet
  facet normal 0 0 -1
    outer loop
      vertex 103.923 62 0
      vertex 106.052 56.1516 0
      vertex 105.157 57.8104 0
    endloop
  endfacet
  facet normal 0 0 -1
    outer loop
      vertex 103.923 62 0
      vertex 105.157 57.8104 0
      vertex 104.236 59.455 0
    endloop
  endfacet
  facet normal 0 0 -1
    outer loop
      vertex 103.923 62 0
      vertex 104.236 59.455 0
      vertex 103.923 59.9935 0
    endloop
  endfacet
  facet normal 0 0 -1
    outer loop
      vertex 106.052 56.1516 0
      vertex 103.923 62 0
      vertex 130 46.9445 0
    endloop
  endfacet
  facet normal 0 0 -1
    outer loop
      vertex 119.867 5.65277 0
      vertex 130 46.9445 0
      vertex 119.941 3.76929 0
    endloop
  endfacet
  facet normal 0 0 -1
    outer loop
      vertex 119.763 7.53486 0
      vertex 130 46.9445 0
      vertex 119.867 5.65277 0
    endloop
  endfacet
  facet normal 0 0 -1
    outer loop
      vertex 119.63 9.41509 0
      vertex 130 46.9445 0
      vertex 119.763 7.53486 0
    endloop
  endfacet
  facet normal 0 0 -1
    outer loop
      vertex 119.467 11.293 0
      vertex 130 46.9445 0
      vertex 119.63 9.41509 0
    endloop
  endfacet
  facet normal 0 0 -1
    outer loop
      vertex 119.275 13.1681 0
      vertex 130 46.9445 0
      vertex 119.467 11.293 0
    endloop
  endfacet
  facet normal 0 0 -1
    outer loop
      vertex 119.054 15.04 0
      vertex 130 46.9445 0
      vertex 119.275 13.1681 0
    endloop
  endfacet
  facet normal 0 0 -1
    outer loop
      vertex 118.803 16.9081 0
      vertex 130 46.9445 0
      vertex 119.054 15.04 0
    endloop
  endfacet
  facet normal 0 0 -1
    outer loop
      vertex 130 46.9445 0
      vertex 120.213 39.468 0
      vertex 120.481 40.468 0
    endloop
  endfacet
  facet normal 0 0 -1
    outer loop
      vertex 118.523 18.7721 0
      vertex 130 46.9445 0
      vertex 118.803 16.9081 0
    endloop
  endfacet
  facet normal 0 0 -1
    outer loop
      vertex 118.213 20.6315 0
      vertex 130 46.9445 0
      vertex 118.523 18.7721 0
    endloop
  endfacet
  facet normal 0 0 -1
    outer loop
      vertex 117.874 22.4858 0
      vertex 130 46.9445 0
      vertex 118.213 20.6315 0
    endloop
  endfacet
  facet normal 0 0 -1
    outer loop
      vertex 117.507 24.3345 0
      vertex 130 46.9445 0
      vertex 117.874 22.4858 0
    endloop
  endfacet
  facet normal 0 0 -1
    outer loop
      vertex 130 46.9445 0
      vertex 117.507 24.3345 0
      vertex 120.213 39.468 0
    endloop
  endfacet
  facet normal 0 0 -1
    outer loop
      vertex 117.11 26.1772 0
      vertex 120.213 39.468 0
      vertex 117.507 24.3345 0
    endloop
  endfacet
  facet normal 0 0 -1
    outer loop
      vertex 116.684 28.0134 0
      vertex 120.213 39.468 0
      vertex 117.11 26.1772 0
    endloop
  endfacet
  facet normal 0 0 -1
    outer loop
      vertex 120.213 39.468 0
      vertex 116.684 28.0134 0
      vertex 119.481 38.7359 0
    endloop
  endfacet
  facet normal 0 0 -1
    outer loop
      vertex 116.23 29.8428 0
      vertex 119.481 38.7359 0
      vertex 116.684 28.0134 0
    endloop
  endfacet
  facet normal 0 0 -1
    outer loop
      vertex 115.747 31.6648 0
      vertex 119.481 38.7359 0
      vertex 116.23 29.8428 0
    endloop
  endfacet
  facet normal 0 0 -1
    outer loop
      vertex 119.481 38.7359 0
      vertex 115.747 31.6648 0
      vertex 118.481 38.468 0
    endloop
  endfacet
  facet normal 0 0 -1
    outer loop
      vertex 115.235 33.4789 0
      vertex 118.481 38.468 0
      vertex 115.747 31.6648 0
    endloop
  endfacet
  facet normal -0 0 -1
    outer loop
      vertex 118.481 38.468 0
      vertex 114.695 35.2848 0
      vertex 117.481 38.7359 0
    endloop
  endfacet
  facet normal 0 0 -1
    outer loop
      vertex 114.695 35.2848 0
      vertex 118.481 38.468 0
      vertex 115.235 33.4789 0
    endloop
  endfacet
  facet normal -0.9776 -0.210473 0
    outer loop
      vertex 117.507 24.3345 0
      vertex 117.11 26.1772 10
      vertex 117.11 26.1772 0
    endloop
  endfacet
  facet normal -0.9776 -0.210473 0
    outer loop
      vertex 117.11 26.1772 10
      vertex 117.507 24.3345 0
      vertex 117.507 24.3345 10
    endloop
  endfacet
  facet normal -0.887413 -0.460976 0
    outer loop
      vertex 106.921 54.4789 0
      vertex 106.052 56.1516 10
      vertex 106.052 56.1516 0
    endloop
  endfacet
  facet normal -0.887413 -0.460976 0
    outer loop
      vertex 106.052 56.1516 10
      vertex 106.921 54.4789 0
      vertex 106.921 54.4789 10
    endloop
  endfacet
  facet normal -0.958072 -0.286526 0
    outer loop
      vertex 115.235 33.4789 0
      vertex 114.695 35.2848 10
      vertex 114.695 35.2848 0
    endloop
  endfacet
  facet normal -0.958072 -0.286526 0
    outer loop
      vertex 114.695 35.2848 10
      vertex 115.235 33.4789 0
      vertex 115.235 33.4789 10
    endloop
  endfacet
  facet normal -0.926855 -0.375419 0
    outer loop
      vertex 111.573 44.1749 0
      vertex 110.866 45.922 10
      vertex 110.866 45.922 0
    endloop
  endfacet
  facet normal -0.926855 -0.375419 0
    outer loop
      vertex 110.866 45.922 10
      vertex 111.573 44.1749 0
      vertex 111.573 44.1749 10
    endloop
  endfacet
  facet normal -0.999969 -0.00785227 0
    outer loop
      vertex 120 0 0
      vertex 119.985 1.88488 10
      vertex 119.985 1.88488 0
    endloop
  endfacet
  facet normal -0.999969 -0.00785227 0
    outer loop
      vertex 119.985 1.88488 10
      vertex 120 0 0
      vertex 120 0 10
    endloop
  endfacet
  facet normal -0.926855 0.375419 0
    outer loop
      vertex 110.866 -45.922 0
      vertex 111.573 -44.1749 10
      vertex 111.573 -44.1749 0
    endloop
  endfacet
  facet normal -0.926855 0.375419 0
    outer loop
      vertex 111.573 -44.1749 10
      vertex 110.866 -45.922 0
      vertex 110.866 -45.922 10
    endloop
  endfacet
  facet normal -0.99627 0.0862859 0
    outer loop
      vertex 119.467 -11.293 0
      vertex 119.63 -9.41509 10
      vertex 119.63 -9.41509 0
    endloop
  endfacet
  facet normal -0.99627 0.0862859 0
    outer loop
      vertex 119.63 -9.41509 10
      vertex 119.467 -11.293 0
      vertex 119.467 -11.293 10
    endloop
  endfacet
  facet normal -0.999229 -0.0392613 0
    outer loop
      vertex 119.941 3.76929 0
      vertex 119.867 5.65277 10
      vertex 119.867 5.65277 0
    endloop
  endfacet
  facet normal -0.999229 -0.0392613 0
    outer loop
      vertex 119.867 5.65277 10
      vertex 119.941 3.76929 0
      vertex 119.941 3.76929 10
    endloop
  endfacet
  facet normal -0.980786 -0.195088 0
    outer loop
      vertex 117.874 22.4858 0
      vertex 117.507 24.3345 10
      vertex 117.507 24.3345 0
    endloop
  endfacet
  facet normal -0.980786 -0.195088 0
    outer loop
      vertex 117.507 24.3345 10
      vertex 117.874 22.4858 0
      vertex 117.874 22.4858 10
    endloop
  endfacet
  facet normal -0.970507 -0.241073 0
    outer loop
      vertex 116.684 28.0134 0
      vertex 116.23 29.8428 10
      vertex 116.23 29.8428 0
    endloop
  endfacet
  facet normal -0.970507 -0.241073 0
    outer loop
      vertex 116.23 29.8428 10
      vertex 116.684 28.0134 0
      vertex 116.684 28.0134 10
    endloop
  endfacet
  facet normal -0.9666 -0.256291 0
    outer loop
      vertex 116.23 29.8428 0
      vertex 115.747 31.6648 10
      vertex 115.747 31.6648 0
    endloop
  endfacet
  facet normal -0.9666 -0.256291 0
    outer loop
      vertex 115.747 31.6648 10
      vertex 116.23 29.8428 0
      vertex 116.23 29.8428 10
    endloop
  endfacet
  facet normal -0.943512 -0.331337 0
    outer loop
      vertex 113.53 38.8701 0
      vertex 112.906 40.6486 10
      vertex 112.906 40.6486 0
    endloop
  endfacet
  facet normal -0.943512 -0.331337 0
    outer loop
      vertex 112.906 40.6486 10
      vertex 113.53 38.8701 0
      vertex 113.53 38.8701 10
    endloop
  endfacet
  facet normal -0.908143 -0.41866 0
    outer loop
      vertex 109.368 49.3817 0
      vertex 108.579 51.0935 10
      vertex 108.579 51.0935 0
    endloop
  endfacet
  facet normal -0.908143 -0.41866 0
    outer loop
      vertex 108.579 51.0935 10
      vertex 109.368 49.3817 0
      vertex 109.368 49.3817 10
    endloop
  endfacet
  facet normal -0.901455 -0.432874 0
    outer loop
      vertex 108.579 51.0935 0
      vertex 107.763 52.7927 10
      vertex 107.763 52.7927 0
    endloop
  endfacet
  facet normal -0.901455 -0.432874 0
    outer loop
      vertex 107.763 52.7927 10
      vertex 108.579 51.0935 0
      vertex 108.579 51.0935 10
    endloop
  endfacet
  facet normal -0.914607 -0.404343 0
    outer loop
      vertex 110.131 47.6577 0
      vertex 109.368 49.3817 10
      vertex 109.368 49.3817 0
    endloop
  endfacet
  facet normal -0.914607 -0.404343 0
    outer loop
      vertex 109.368 49.3817 10
      vertex 110.131 47.6577 0
      vertex 110.131 47.6577 10
    endloop
  endfacet
  facet normal -0.864717 -0.50226 0
    outer loop
      vertex 104.236 59.455 0
      vertex 103.923 59.9935 10
      vertex 103.923 59.9935 0
    endloop
  endfacet
  facet normal -0.864717 -0.50226 0
    outer loop
      vertex 103.923 59.9935 10
      vertex 104.236 59.455 0
      vertex 104.236 59.455 10
    endloop
  endfacet
  facet normal -0.872496 -0.488621 0
    outer loop
      vertex 105.157 57.8104 0
      vertex 104.236 59.455 10
      vertex 104.236 59.455 0
    endloop
  endfacet
  facet normal -0.872496 -0.488621 0
    outer loop
      vertex 104.236 59.455 10
      vertex 105.157 57.8104 0
      vertex 105.157 57.8104 10
    endloop
  endfacet
  facet normal -0.864717 0.50226 0
    outer loop
      vertex 103.923 -59.9935 0
      vertex 104.236 -59.455 10
      vertex 104.236 -59.455 0
    endloop
  endfacet
  facet normal -0.864717 0.50226 0
    outer loop
      vertex 104.236 -59.455 10
      vertex 103.923 -59.9935 0
      vertex 103.923 -59.9935 10
    endloop
  endfacet
  facet normal -0.998489 0.0549497 0
    outer loop
      vertex 119.763 -7.53486 0
      vertex 119.867 -5.65277 10
      vertex 119.867 -5.65277 0
    endloop
  endfacet
  facet normal -0.998489 0.0549497 0
    outer loop
      vertex 119.867 -5.65277 10
      vertex 119.763 -7.53486 0
      vertex 119.763 -7.53486 10
    endloop
  endfacet
  facet normal -0.983728 0.179663 0
    outer loop
      vertex 117.874 -22.4858 0
      vertex 118.213 -20.6315 10
      vertex 118.213 -20.6315 0
    endloop
  endfacet
  facet normal -0.983728 0.179663 0
    outer loop
      vertex 118.213 -20.6315 10
      vertex 117.874 -22.4858 0
      vertex 117.874 -22.4858 10
    endloop
  endfacet
  facet normal -0.9911 0.13312 0
    outer loop
      vertex 118.803 -16.9081 0
      vertex 119.054 -15.04 10
      vertex 119.054 -15.04 0
    endloop
  endfacet
  facet normal -0.9911 0.13312 0
    outer loop
      vertex 119.054 -15.04 10
      vertex 118.803 -16.9081 0
      vertex 118.803 -16.9081 10
    endloop
  endfacet
  facet normal -0.943512 0.331337 0
    outer loop
      vertex 112.906 -40.6486 0
      vertex 113.53 -38.8701 10
      vertex 113.53 -38.8701 0
    endloop
  endfacet
  facet normal -0.943512 0.331337 0
    outer loop
      vertex 113.53 -38.8701 10
      vertex 112.906 -40.6486 0
      vertex 112.906 -40.6486 10
    endloop
  endfacet
  facet normal -0.9486 0.316479 0
    outer loop
      vertex 113.53 -38.8701 0
      vertex 114.127 -37.082 10
      vertex 114.127 -37.082 0
    endloop
  endfacet
  facet normal -0.9486 0.316479 0
    outer loop
      vertex 114.127 -37.082 10
      vertex 113.53 -38.8701 0
      vertex 113.53 -38.8701 10
    endloop
  endfacet
  facet normal -0.974173 0.225801 0
    outer loop
      vertex 116.684 -28.0134 0
      vertex 117.11 -26.1772 10
      vertex 117.11 -26.1772 0
    endloop
  endfacet
  facet normal -0.974173 0.225801 0
    outer loop
      vertex 117.11 -26.1772 10
      vertex 116.684 -28.0134 0
      vertex 116.684 -28.0134 10
    endloop
  endfacet
  facet normal -0.962456 0.271438 0
    outer loop
      vertex 115.235 -33.4789 0
      vertex 115.747 -31.6648 10
      vertex 115.747 -31.6648 0
    endloop
  endfacet
  facet normal -0.962456 0.271438 0
    outer loop
      vertex 115.747 -31.6648 10
      vertex 115.235 -33.4789 0
      vertex 115.235 -33.4789 10
    endloop
  endfacet
  facet normal -0.997503 -0.0706259 0
    outer loop
      vertex 119.763 7.53486 0
      vertex 119.63 9.41509 10
      vertex 119.63 9.41509 0
    endloop
  endfacet
  facet normal -0.997503 -0.0706259 0
    outer loop
      vertex 119.63 9.41509 10
      vertex 119.763 7.53486 0
      vertex 119.763 7.53486 10
    endloop
  endfacet
  facet normal -0.994792 -0.101926 0
    outer loop
      vertex 119.467 11.293 0
      vertex 119.275 13.1681 10
      vertex 119.275 13.1681 0
    endloop
  endfacet
  facet normal -0.994792 -0.101926 0
    outer loop
      vertex 119.275 13.1681 10
      vertex 119.467 11.293 0
      vertex 119.467 11.293 10
    endloop
  endfacet
  facet normal -0.999722 -0.0235608 0
    outer loop
      vertex 119.985 1.88488 0
      vertex 119.941 3.76929 10
      vertex 119.941 3.76929 0
    endloop
  endfacet
  facet normal -0.999722 -0.0235608 0
    outer loop
      vertex 119.941 3.76929 10
      vertex 119.985 1.88488 0
      vertex 119.985 1.88488 10
    endloop
  endfacet
  facet normal -0.988886 -0.148675 0
    outer loop
      vertex 118.803 16.9081 0
      vertex 118.523 18.7721 10
      vertex 118.523 18.7721 0
    endloop
  endfacet
  facet normal -0.988886 -0.148675 0
    outer loop
      vertex 118.523 18.7721 10
      vertex 118.803 16.9081 0
      vertex 118.803 16.9081 10
    endloop
  endfacet
  facet normal -0.974173 -0.225801 0
    outer loop
      vertex 117.11 26.1772 0
      vertex 116.684 28.0134 10
      vertex 116.684 28.0134 0
    endloop
  endfacet
  facet normal -0.974173 -0.225801 0
    outer loop
      vertex 116.684 28.0134 10
      vertex 117.11 26.1772 0
      vertex 117.11 26.1772 10
    endloop
  endfacet
  facet normal -0.962456 -0.271438 0
    outer loop
      vertex 115.747 31.6648 0
      vertex 115.235 33.4789 10
      vertex 115.235 33.4789 0
    endloop
  endfacet
  facet normal -0.962456 -0.271438 0
    outer loop
      vertex 115.235 33.4789 10
      vertex 115.747 31.6648 0
      vertex 115.747 31.6648 10
    endloop
  endfacet
  facet normal -0.9486 -0.316479 0
    outer loop
      vertex 114.127 37.082 0
      vertex 113.53 38.8701 10
      vertex 113.53 38.8701 0
    endloop
  endfacet
  facet normal -0.9486 -0.316479 0
    outer loop
      vertex 113.53 38.8701 10
      vertex 114.127 37.082 0
      vertex 114.127 37.082 10
    endloop
  endfacet
  facet normal -0.953455 -0.301536 0
    outer loop
      vertex 114.695 35.2848 0
      vertex 114.127 37.082 10
      vertex 114.127 37.082 0
    endloop
  endfacet
  facet normal -0.953455 -0.301536 0
    outer loop
      vertex 114.127 37.082 10
      vertex 114.695 35.2848 0
      vertex 114.695 35.2848 10
    endloop
  endfacet
  facet normal -0.938191 -0.346119 0
    outer loop
      vertex 112.906 40.6486 0
      vertex 112.253 42.417 10
      vertex 112.253 42.417 0
    endloop
  endfacet
  facet normal -0.938191 -0.346119 0
    outer loop
      vertex 112.253 42.417 10
      vertex 112.906 40.6486 0
      vertex 112.906 40.6486 10
    endloop
  endfacet
  facet normal -0.93264 -0.360808 0
    outer loop
      vertex 112.253 42.417 0
      vertex 111.573 44.1749 10
      vertex 111.573 44.1749 0
    endloop
  endfacet
  facet normal -0.93264 -0.360808 0
    outer loop
      vertex 111.573 44.1749 10
      vertex 112.253 42.417 0
      vertex 112.253 42.417 10
    endloop
  endfacet
  facet normal -0.894545 -0.446977 0
    outer loop
      vertex 107.763 52.7927 0
      vertex 106.921 54.4789 10
      vertex 106.921 54.4789 0
    endloop
  endfacet
  facet normal -0.894545 -0.446977 0
    outer loop
      vertex 106.921 54.4789 10
      vertex 107.763 52.7927 0
      vertex 107.763 52.7927 10
    endloop
  endfacet
  facet normal -0.920846 -0.389927 0
    outer loop
      vertex 110.866 45.922 0
      vertex 110.131 47.6577 10
      vertex 110.131 47.6577 0
    endloop
  endfacet
  facet normal -0.920846 -0.389927 0
    outer loop
      vertex 110.131 47.6577 10
      vertex 110.866 45.922 0
      vertex 110.866 45.922 10
    endloop
  endfacet
  facet normal -0.880064 -0.474856 0
    outer loop
      vertex 106.052 56.1516 0
      vertex 105.157 57.8104 10
      vertex 105.157 57.8104 0
    endloop
  endfacet
  facet normal -0.880064 -0.474856 0
    outer loop
      vertex 105.157 57.8104 10
      vertex 106.052 56.1516 0
      vertex 106.052 56.1516 10
    endloop
  endfacet
  facet normal -0.872496 0.488621 0
    outer loop
      vertex 104.236 -59.455 0
      vertex 105.157 -57.8104 10
      vertex 105.157 -57.8104 0
    endloop
  endfacet
  facet normal -0.872496 0.488621 0
    outer loop
      vertex 105.157 -57.8104 10
      vertex 104.236 -59.455 0
      vertex 104.236 -59.455 10
    endloop
  endfacet
  facet normal -0.880064 0.474856 0
    outer loop
      vertex 105.157 -57.8104 0
      vertex 106.052 -56.1516 10
      vertex 106.052 -56.1516 0
    endloop
  endfacet
  facet normal -0.880064 0.474856 0
    outer loop
      vertex 106.052 -56.1516 10
      vertex 105.157 -57.8104 0
      vertex 105.157 -57.8104 10
    endloop
  endfacet
  facet normal -0.887413 0.460976 0
    outer loop
      vertex 106.052 -56.1516 0
      vertex 106.921 -54.4789 10
      vertex 106.921 -54.4789 0
    endloop
  endfacet
  facet normal -0.887413 0.460976 0
    outer loop
      vertex 106.921 -54.4789 10
      vertex 106.052 -56.1516 0
      vertex 106.052 -56.1516 10
    endloop
  endfacet
  facet normal -0.894545 0.446977 0
    outer loop
      vertex 106.921 -54.4789 0
      vertex 107.763 -52.7927 10
      vertex 107.763 -52.7927 0
    endloop
  endfacet
  facet normal -0.894545 0.446977 0
    outer loop
      vertex 107.763 -52.7927 10
      vertex 106.921 -54.4789 0
      vertex 106.921 -54.4789 10
    endloop
  endfacet
  facet normal -0.901455 0.432874 0
    outer loop
      vertex 107.763 -52.7927 0
      vertex 108.579 -51.0935 10
      vertex 108.579 -51.0935 0
    endloop
  endfacet
  facet normal -0.901455 0.432874 0
    outer loop
      vertex 108.579 -51.0935 10
      vertex 107.763 -52.7927 0
      vertex 107.763 -52.7927 10
    endloop
  endfacet
  facet normal -0.914607 0.404343 0
    outer loop
      vertex 109.368 -49.3817 0
      vertex 110.131 -47.6577 10
      vertex 110.131 -47.6577 0
    endloop
  endfacet
  facet normal -0.914607 0.404343 0
    outer loop
      vertex 110.131 -47.6577 10
      vertex 109.368 -49.3817 0
      vertex 109.368 -49.3817 10
    endloop
  endfacet
  facet normal -0.93264 0.360808 0
    outer loop
      vertex 111.573 -44.1749 0
      vertex 112.253 -42.417 10
      vertex 112.253 -42.417 0
    endloop
  endfacet
  facet normal -0.93264 0.360808 0
    outer loop
      vertex 112.253 -42.417 10
      vertex 111.573 -44.1749 0
      vertex 111.573 -44.1749 10
    endloop
  endfacet
  facet normal -0.999229 0.0392613 0
    outer loop
      vertex 119.867 -5.65277 0
      vertex 119.941 -3.76929 10
      vertex 119.941 -3.76929 0
    endloop
  endfacet
  facet normal -0.999229 0.0392613 0
    outer loop
      vertex 119.941 -3.76929 10
      vertex 119.867 -5.65277 0
      vertex 119.867 -5.65277 10
    endloop
  endfacet
  facet normal -0.999722 0.0235608 0
    outer loop
      vertex 119.941 -3.76929 0
      vertex 119.985 -1.88488 10
      vertex 119.985 -1.88488 0
    endloop
  endfacet
  facet normal -0.999722 0.0235608 0
    outer loop
      vertex 119.985 -1.88488 10
      vertex 119.941 -3.76929 0
      vertex 119.941 -3.76929 10
    endloop
  endfacet
  facet normal -0.953455 0.301536 0
    outer loop
      vertex 114.127 -37.082 0
      vertex 114.695 -35.2848 10
      vertex 114.695 -35.2848 0
    endloop
  endfacet
  facet normal -0.953455 0.301536 0
    outer loop
      vertex 114.695 -35.2848 10
      vertex 114.127 -37.082 0
      vertex 114.127 -37.082 10
    endloop
  endfacet
  facet normal -0.958072 0.286526 0
    outer loop
      vertex 114.695 -35.2848 0
      vertex 115.235 -33.4789 10
      vertex 115.235 -33.4789 0
    endloop
  endfacet
  facet normal -0.958072 0.286526 0
    outer loop
      vertex 115.235 -33.4789 10
      vertex 114.695 -35.2848 0
      vertex 114.695 -35.2848 10
    endloop
  endfacet
  facet normal -0.9776 0.210473 0
    outer loop
      vertex 117.11 -26.1772 0
      vertex 117.507 -24.3345 10
      vertex 117.507 -24.3345 0
    endloop
  endfacet
  facet normal -0.9776 0.210473 0
    outer loop
      vertex 117.507 -24.3345 10
      vertex 117.11 -26.1772 0
      vertex 117.11 -26.1772 10
    endloop
  endfacet
  facet normal -0.9666 0.256291 0
    outer loop
      vertex 115.747 -31.6648 0
      vertex 116.23 -29.8428 10
      vertex 116.23 -29.8428 0
    endloop
  endfacet
  facet normal -0.9666 0.256291 0
    outer loop
      vertex 116.23 -29.8428 10
      vertex 115.747 -31.6648 0
      vertex 115.747 -31.6648 10
    endloop
  endfacet
  facet normal -0.99627 -0.0862859 0
    outer loop
      vertex 119.63 9.41509 0
      vertex 119.467 11.293 10
      vertex 119.467 11.293 0
    endloop
  endfacet
  facet normal -0.99627 -0.0862859 0
    outer loop
      vertex 119.467 11.293 10
      vertex 119.63 9.41509 0
      vertex 119.63 9.41509 10
    endloop
  endfacet
  facet normal -0.983728 -0.179663 0
    outer loop
      vertex 118.213 20.6315 0
      vertex 117.874 22.4858 10
      vertex 117.874 22.4858 0
    endloop
  endfacet
  facet normal -0.983728 -0.179663 0
    outer loop
      vertex 117.874 22.4858 10
      vertex 118.213 20.6315 0
      vertex 118.213 20.6315 10
    endloop
  endfacet
  facet normal -0.98643 -0.164185 0
    outer loop
      vertex 118.523 18.7721 0
      vertex 118.213 20.6315 10
      vertex 118.213 20.6315 0
    endloop
  endfacet
  facet normal -0.98643 -0.164185 0
    outer loop
      vertex 118.213 20.6315 10
      vertex 118.523 18.7721 0
      vertex 118.523 18.7721 10
    endloop
  endfacet
  facet normal -0.908143 0.41866 0
    outer loop
      vertex 108.579 -51.0935 0
      vertex 109.368 -49.3817 10
      vertex 109.368 -49.3817 0
    endloop
  endfacet
  facet normal -0.908143 0.41866 0
    outer loop
      vertex 109.368 -49.3817 10
      vertex 108.579 -51.0935 0
      vertex 108.579 -51.0935 10
    endloop
  endfacet
  facet normal -0.920846 0.389927 0
    outer loop
      vertex 110.131 -47.6577 0
      vertex 110.866 -45.922 10
      vertex 110.866 -45.922 0
    endloop
  endfacet
  facet normal -0.920846 0.389927 0
    outer loop
      vertex 110.866 -45.922 10
      vertex 110.131 -47.6577 0
      vertex 110.131 -47.6577 10
    endloop
  endfacet
  facet normal -0.997503 0.0706259 0
    outer loop
      vertex 119.63 -9.41509 0
      vertex 119.763 -7.53486 10
      vertex 119.763 -7.53486 0
    endloop
  endfacet
  facet normal -0.997503 0.0706259 0
    outer loop
      vertex 119.763 -7.53486 10
      vertex 119.63 -9.41509 0
      vertex 119.63 -9.41509 10
    endloop
  endfacet
  facet normal -0.999969 0.00785227 0
    outer loop
      vertex 119.985 -1.88488 0
      vertex 120 0 10
      vertex 120 0 0
    endloop
  endfacet
  facet normal -0.999969 0.00785227 0
    outer loop
      vertex 120 0 10
      vertex 119.985 -1.88488 0
      vertex 119.985 -1.88488 10
    endloop
  endfacet
  facet normal -0.994792 0.101926 0
    outer loop
      vertex 119.275 -13.1681 0
      vertex 119.467 -11.293 10
      vertex 119.467 -11.293 0
    endloop
  endfacet
  facet normal -0.994792 0.101926 0
    outer loop
      vertex 119.467 -11.293 10
      vertex 119.275 -13.1681 0
      vertex 119.275 -13.1681 10
    endloop
  endfacet
  facet normal -0.993068 0.117537 0
    outer loop
      vertex 119.054 -15.04 0
      vertex 119.275 -13.1681 10
      vertex 119.275 -13.1681 0
    endloop
  endfacet
  facet normal -0.993068 0.117537 0
    outer loop
      vertex 119.275 -13.1681 10
      vertex 119.054 -15.04 0
      vertex 119.054 -15.04 10
    endloop
  endfacet
  facet normal -0.938191 0.346119 0
    outer loop
      vertex 112.253 -42.417 0
      vertex 112.906 -40.6486 10
      vertex 112.906 -40.6486 0
    endloop
  endfacet
  facet normal -0.938191 0.346119 0
    outer loop
      vertex 112.906 -40.6486 10
      vertex 112.253 -42.417 0
      vertex 112.253 -42.417 10
    endloop
  endfacet
  facet normal -0.980786 0.195088 0
    outer loop
      vertex 117.507 -24.3345 0
      vertex 117.874 -22.4858 10
      vertex 117.874 -22.4858 0
    endloop
  endfacet
  facet normal -0.980786 0.195088 0
    outer loop
      vertex 117.874 -22.4858 10
      vertex 117.507 -24.3345 0
      vertex 117.507 -24.3345 10
    endloop
  endfacet
  facet normal -0.970507 0.241073 0
    outer loop
      vertex 116.23 -29.8428 0
      vertex 116.684 -28.0134 10
      vertex 116.684 -28.0134 0
    endloop
  endfacet
  facet normal -0.970507 0.241073 0
    outer loop
      vertex 116.684 -28.0134 10
      vertex 116.23 -29.8428 0
      vertex 116.23 -29.8428 10
    endloop
  endfacet
  facet normal -0.9911 -0.13312 0
    outer loop
      vertex 119.054 15.04 0
      vertex 118.803 16.9081 10
      vertex 118.803 16.9081 0
    endloop
  endfacet
  facet normal -0.9911 -0.13312 0
    outer loop
      vertex 118.803 16.9081 10
      vertex 119.054 15.04 0
      vertex 119.054 15.04 10
    endloop
  endfacet
  facet normal -0.993068 -0.117537 0
    outer loop
      vertex 119.275 13.1681 0
      vertex 119.054 15.04 10
      vertex 119.054 15.04 0
    endloop
  endfacet
  facet normal -0.993068 -0.117537 0
    outer loop
      vertex 119.054 15.04 10
      vertex 119.275 13.1681 0
      vertex 119.275 13.1681 10
    endloop
  endfacet
  facet normal -0.998489 -0.0549497 0
    outer loop
      vertex 119.867 5.65277 0
      vertex 119.763 7.53486 10
      vertex 119.763 7.53486 0
    endloop
  endfacet
  facet normal -0.998489 -0.0549497 0
    outer loop
      vertex 119.763 7.53486 10
      vertex 119.867 5.65277 0
      vertex 119.867 5.65277 10
    endloop
  endfacet
  facet normal -0.988886 0.148675 0
    outer loop
      vertex 118.523 -18.7721 0
      vertex 118.803 -16.9081 10
      vertex 118.803 -16.9081 0
    endloop
  endfacet
  facet normal -0.988886 0.148675 0
    outer loop
      vertex 118.803 -16.9081 10
      vertex 118.523 -18.7721 0
      vertex 118.523 -18.7721 10
    endloop
  endfacet
  facet normal -0.98643 0.164185 0
    outer loop
      vertex 118.213 -20.6315 0
      vertex 118.523 -18.7721 10
      vertex 118.523 -18.7721 0
    endloop
  endfacet
  facet normal -0.98643 0.164185 0
    outer loop
      vertex 118.523 -18.7721 10
      vertex 118.213 -20.6315 0
      vertex 118.213 -20.6315 10
    endloop
  endfacet
  facet normal 0.5 0.866025 -0
    outer loop
      vertex 130 46.9445 0
      vertex 103.923 62 10
      vertex 130 46.9445 10
    endloop
  endfacet
  facet normal 0.5 0.866025 0
    outer loop
      vertex 103.923 62 10
      vertex 130 46.9445 0
      vertex 103.923 62 0
    endloop
  endfacet
  facet normal 0.5 -0.866025 0
    outer loop
      vertex 103.923 -62 0
      vertex 130 -46.9445 10
      vertex 103.923 -62 10
    endloop
  endfacet
  facet normal 0.5 -0.866025 0
    outer loop
      vertex 130 -46.9445 10
      vertex 103.923 -62 0
      vertex 130 -46.9445 0
    endloop
  endfacet
endsolid OpenSCAD_Model
