solid OpenSCAD_Model
  facet normal 0 0.965925 -0.258822
    outer loop
      vertex 10 -45.968 1.51924
      vertex -4.46714e-16 -45.7 2.51924
      vertex 10 -45.7 2.51924
    endloop
  endfacet
  facet normal 0 0.965925 -0.258822
    outer loop
      vertex -4.46714e-16 -45.7 2.51924
      vertex 10 -45.968 1.51924
      vertex -2.69393e-16 -45.968 1.51924
    endloop
  endfacet
  facet normal 0 0.258819 -0.965926
    outer loop
      vertex -5.76522e-16 -44.968 3.25129
      vertex 10 -43.968 3.51924
      vertex 10 -44.968 3.25129
    endloop
  endfacet
  facet normal 0 0.258819 -0.965926
    outer loop
      vertex 10 -43.968 3.51924
      vertex -5.76522e-16 -44.968 3.25129
      vertex -6.24036e-16 -43.968 3.51924
    endloop
  endfacet
  facet normal 0 0.707108 -0.707105
    outer loop
      vertex 10 -45.7 2.51924
      vertex -5.76522e-16 -44.968 3.25129
      vertex 10 -44.968 3.25129
    endloop
  endfacet
  facet normal 0 0.707108 -0.707105
    outer loop
      vertex -5.76522e-16 -44.968 3.25129
      vertex 10 -45.7 2.51924
      vertex -4.46714e-16 -45.7 2.51924
    endloop
  endfacet
  facet normal -0 0.25882 0.965926
    outer loop
      vertex 8.52493e-17 -43.968 -0.480762
      vertex 10 -44.968 -0.212812
      vertex 10 -43.968 -0.480762
    endloop
  endfacet
  facet normal 0 0.25882 0.965926
    outer loop
      vertex 10 -44.968 -0.212812
      vertex 8.52493e-17 -43.968 -0.480762
      vertex 3.77361e-17 -44.968 -0.212812
    endloop
  endfacet
  facet normal 0 0.965925 0.258822
    outer loop
      vertex 10 -45.7 0.519239
      vertex -2.69393e-16 -45.968 1.51924
      vertex 10 -45.968 1.51924
    endloop
  endfacet
  facet normal 0 0.965925 0.258822
    outer loop
      vertex -2.69393e-16 -45.968 1.51924
      vertex 10 -45.7 0.519239
      vertex -9.20721e-17 -45.7 0.519239
    endloop
  endfacet
  facet normal 0 0.707108 0.707105
    outer loop
      vertex 10 -44.968 -0.212812
      vertex -9.20721e-17 -45.7 0.519239
      vertex 10 -45.7 0.519239
    endloop
  endfacet
  facet normal 0 0.707108 0.707105
    outer loop
      vertex -9.20721e-17 -45.7 0.519239
      vertex 10 -44.968 -0.212812
      vertex 3.77361e-17 -44.968 -0.212812
    endloop
  endfacet
  facet normal 0 -0.965926 -0.258818
    outer loop
      vertex -2.69393e-16 -38.468 1.51924
      vertex 10 -38.7359 2.51924
      vertex -4.46714e-16 -38.7359 2.51924
    endloop
  endfacet
  facet normal 0 -0.965926 -0.258818
    outer loop
      vertex 10 -38.7359 2.51924
      vertex -2.69393e-16 -38.468 1.51924
      vertex 10 -38.468 1.51924
    endloop
  endfacet
  facet normal 0 -0.965926 0.258818
    outer loop
      vertex -9.20719e-17 -38.7359 0.519238
      vertex 10 -38.468 1.51924
      vertex -2.69393e-16 -38.468 1.51924
    endloop
  endfacet
  facet normal 0 -0.965926 0.258818
    outer loop
      vertex 10 -38.468 1.51924
      vertex -9.20719e-17 -38.7359 0.519238
      vertex 10 -38.7359 0.519238
    endloop
  endfacet
  facet normal 0 -0.25882 -0.965926
    outer loop
      vertex 10 -40.468 3.51924
      vertex -5.76522e-16 -39.468 3.25129
      vertex 10 -39.468 3.25129
    endloop
  endfacet
  facet normal 0 -0.25882 -0.965926
    outer loop
      vertex -5.76522e-16 -39.468 3.25129
      vertex 10 -40.468 3.51924
      vertex -6.24036e-16 -40.468 3.51924
    endloop
  endfacet
  facet normal 0 -0.707106 -0.707107
    outer loop
      vertex 10 -39.468 3.25129
      vertex -4.46714e-16 -38.7359 2.51924
      vertex 10 -38.7359 2.51924
    endloop
  endfacet
  facet normal 0 -0.707106 -0.707107
    outer loop
      vertex -4.46714e-16 -38.7359 2.51924
      vertex 10 -39.468 3.25129
      vertex -5.76522e-16 -39.468 3.25129
    endloop
  endfacet
  facet normal 0 -0.25882 0.965926
    outer loop
      vertex 10 -39.468 -0.212812
      vertex 8.52493e-17 -40.468 -0.480762
      vertex 10 -40.468 -0.480762
    endloop
  endfacet
  facet normal 0 -0.25882 0.965926
    outer loop
      vertex 8.52493e-17 -40.468 -0.480762
      vertex 10 -39.468 -0.212812
      vertex 3.77361e-17 -39.468 -0.212812
    endloop
  endfacet
  facet normal 0 -0.707106 0.707108
    outer loop
      vertex 10 -38.7359 0.519238
      vertex 3.77361e-17 -39.468 -0.212812
      vertex 10 -39.468 -0.212812
    endloop
  endfacet
  facet normal 0 -0.707106 0.707108
    outer loop
      vertex 3.77361e-17 -39.468 -0.212812
      vertex 10 -38.7359 0.519238
      vertex -9.20719e-17 -38.7359 0.519238
    endloop
  endfacet
  facet normal 0 0 -1
    outer loop
      vertex -6.24036e-16 -43.968 3.51924
      vertex 10 -40.468 3.51924
      vertex 10 -43.968 3.51924
    endloop
  endfacet
  facet normal -0 0 -1
    outer loop
      vertex 10 -40.468 3.51924
      vertex -6.24036e-16 -43.968 3.51924
      vertex -6.24036e-16 -40.468 3.51924
    endloop
  endfacet
  facet normal -0 0 1
    outer loop
      vertex 8.52493e-17 -40.468 -0.480762
      vertex 10 -43.968 -0.480762
      vertex 10 -40.468 -0.480762
    endloop
  endfacet
  facet normal 0 0 1
    outer loop
      vertex 10 -43.968 -0.480762
      vertex 8.52493e-17 -40.468 -0.480762
      vertex 8.52493e-17 -43.968 -0.480762
    endloop
  endfacet
  facet normal 0 0.965926 -0.258818
    outer loop
      vertex 10 38.468 1.51924
      vertex -4.46714e-16 38.7359 2.51924
      vertex 10 38.7359 2.51924
    endloop
  endfacet
  facet normal 0 0.965926 -0.258818
    outer loop
      vertex -4.46714e-16 38.7359 2.51924
      vertex 10 38.468 1.51924
      vertex -2.69393e-16 38.468 1.51924
    endloop
  endfacet
  facet normal 0 0.258819 -0.965926
    outer loop
      vertex -5.76522e-16 39.468 3.25129
      vertex 10 40.468 3.51924
      vertex 10 39.468 3.25129
    endloop
  endfacet
  facet normal 0 0.258819 -0.965926
    outer loop
      vertex 10 40.468 3.51924
      vertex -5.76522e-16 39.468 3.25129
      vertex -6.24036e-16 40.468 3.51924
    endloop
  endfacet
  facet normal 0 0.707106 -0.707107
    outer loop
      vertex -4.46714e-16 38.7359 2.51924
      vertex 10 39.468 3.25129
      vertex 10 38.7359 2.51924
    endloop
  endfacet
  facet normal 0 0.707106 -0.707107
    outer loop
      vertex 10 39.468 3.25129
      vertex -4.46714e-16 38.7359 2.51924
      vertex -5.76522e-16 39.468 3.25129
    endloop
  endfacet
  facet normal -0 0.25882 0.965926
    outer loop
      vertex 8.52493e-17 40.468 -0.480762
      vertex 10 39.468 -0.212812
      vertex 10 40.468 -0.480762
    endloop
  endfacet
  facet normal 0 0.25882 0.965926
    outer loop
      vertex 10 39.468 -0.212812
      vertex 8.52493e-17 40.468 -0.480762
      vertex 3.77361e-17 39.468 -0.212812
    endloop
  endfacet
  facet normal 0 0.965926 0.258818
    outer loop
      vertex 10 38.7359 0.519239
      vertex -2.69393e-16 38.468 1.51924
      vertex 10 38.468 1.51924
    endloop
  endfacet
  facet normal 0 0.965926 0.258818
    outer loop
      vertex -2.69393e-16 38.468 1.51924
      vertex 10 38.7359 0.519239
      vertex -9.20721e-17 38.7359 0.519239
    endloop
  endfacet
  facet normal -0 0.707106 0.707107
    outer loop
      vertex 3.77361e-17 39.468 -0.212812
      vertex 10 38.7359 0.519239
      vertex 10 39.468 -0.212812
    endloop
  endfacet
  facet normal 0 0.707106 0.707107
    outer loop
      vertex 10 38.7359 0.519239
      vertex 3.77361e-17 39.468 -0.212812
      vertex -9.20721e-17 38.7359 0.519239
    endloop
  endfacet
  facet normal 0 -0.965925 -0.258822
    outer loop
      vertex -2.69393e-16 45.968 1.51924
      vertex 10 45.7 2.51924
      vertex -4.46714e-16 45.7 2.51924
    endloop
  endfacet
  facet normal 0 -0.965925 -0.258822
    outer loop
      vertex 10 45.7 2.51924
      vertex -2.69393e-16 45.968 1.51924
      vertex 10 45.968 1.51924
    endloop
  endfacet
  facet normal 0 -0.965925 0.258822
    outer loop
      vertex -9.20719e-17 45.7 0.519238
      vertex 10 45.968 1.51924
      vertex -2.69393e-16 45.968 1.51924
    endloop
  endfacet
  facet normal 0 -0.965925 0.258822
    outer loop
      vertex 10 45.968 1.51924
      vertex -9.20719e-17 45.7 0.519238
      vertex 10 45.7 0.519238
    endloop
  endfacet
  facet normal 0 -0.25882 -0.965926
    outer loop
      vertex 10 43.968 3.51924
      vertex -5.76522e-16 44.968 3.25129
      vertex 10 44.968 3.25129
    endloop
  endfacet
  facet normal 0 -0.25882 -0.965926
    outer loop
      vertex -5.76522e-16 44.968 3.25129
      vertex 10 43.968 3.51924
      vertex -6.24036e-16 43.968 3.51924
    endloop
  endfacet
  facet normal 0 -0.707108 -0.707105
    outer loop
      vertex -4.46714e-16 45.7 2.51924
      vertex 10 44.968 3.25129
      vertex -5.76522e-16 44.968 3.25129
    endloop
  endfacet
  facet normal 0 -0.707108 -0.707105
    outer loop
      vertex 10 44.968 3.25129
      vertex -4.46714e-16 45.7 2.51924
      vertex 10 45.7 2.51924
    endloop
  endfacet
  facet normal 0 -0.25882 0.965926
    outer loop
      vertex 10 44.968 -0.212812
      vertex 8.52493e-17 43.968 -0.480762
      vertex 10 43.968 -0.480762
    endloop
  endfacet
  facet normal 0 -0.25882 0.965926
    outer loop
      vertex 8.52493e-17 43.968 -0.480762
      vertex 10 44.968 -0.212812
      vertex 3.77361e-17 44.968 -0.212812
    endloop
  endfacet
  facet normal 0 -0.707108 0.707106
    outer loop
      vertex 3.77361e-17 44.968 -0.212812
      vertex 10 45.7 0.519238
      vertex -9.20719e-17 45.7 0.519238
    endloop
  endfacet
  facet normal 0 -0.707108 0.707106
    outer loop
      vertex 10 45.7 0.519238
      vertex 3.77361e-17 44.968 -0.212812
      vertex 10 44.968 -0.212812
    endloop
  endfacet
  facet normal 0 0 -1
    outer loop
      vertex -6.24036e-16 40.468 3.51924
      vertex 10 43.968 3.51924
      vertex 10 40.468 3.51924
    endloop
  endfacet
  facet normal -0 0 -1
    outer loop
      vertex 10 43.968 3.51924
      vertex -6.24036e-16 40.468 3.51924
      vertex -6.24036e-16 43.968 3.51924
    endloop
  endfacet
  facet normal -0 0 1
    outer loop
      vertex 8.52493e-17 43.968 -0.480762
      vertex 10 40.468 -0.480762
      vertex 10 43.968 -0.480762
    endloop
  endfacet
  facet normal 0 0 1
    outer loop
      vertex 10 40.468 -0.480762
      vertex 8.52493e-17 43.968 -0.480762
      vertex 8.52493e-17 40.468 -0.480762
    endloop
  endfacet
  facet normal -0 0 1
    outer loop
      vertex -2.85079e-15 62 16.077
      vertex 10 59.9935 16.077
      vertex 10 62 16.077
    endloop
  endfacet
  facet normal 0 0 1
    outer loop
      vertex 10 59.9935 16.077
      vertex -2.85079e-15 62 16.077
      vertex -2.85079e-15 59.9935 16.077
    endloop
  endfacet
  facet normal -0 0 1
    outer loop
      vertex -2.85079e-15 -59.9935 16.077
      vertex 10 -62 16.077
      vertex 10 -59.9935 16.077
    endloop
  endfacet
  facet normal 0 0 1
    outer loop
      vertex 10 -62 16.077
      vertex -2.85079e-15 -59.9935 16.077
      vertex -2.85079e-15 -62 16.077
    endloop
  endfacet
  facet normal 1 0 0
    outer loop
      vertex 10 -35.2848 5.30484
      vertex 10 -38.7359 2.51924
      vertex 10 -38.468 1.51924
    endloop
  endfacet
  facet normal 1 0 0
    outer loop
      vertex 10 -39.468 3.25129
      vertex 10 -37.082 5.87322
      vertex 10 -38.8701 6.46976
    endloop
  endfacet
  facet normal 1 0 0
    outer loop
      vertex 10 -37.082 5.87322
      vertex 10 -39.468 3.25129
      vertex 10 -38.7359 2.51924
    endloop
  endfacet
  facet normal 1 0 0
    outer loop
      vertex 10 -38.8701 6.46976
      vertex 10 -40.468 3.51924
      vertex 10 -39.468 3.25129
    endloop
  endfacet
  facet normal 1 0 0
    outer loop
      vertex 10 -40.6486 7.09431
      vertex 10 -40.468 3.51924
      vertex 10 -38.8701 6.46976
    endloop
  endfacet
  facet normal 1 0 0
    outer loop
      vertex 10 -43.968 3.51924
      vertex 10 -40.6486 7.09431
      vertex 10 -42.417 7.74672
    endloop
  endfacet
  facet normal 1 0 0
    outer loop
      vertex 10 -40.6486 7.09431
      vertex 10 -43.968 3.51924
      vertex 10 -40.468 3.51924
    endloop
  endfacet
  facet normal 1 0 0
    outer loop
      vertex 10 -44.1749 8.42682
      vertex 10 -43.968 3.51924
      vertex 10 -42.417 7.74672
    endloop
  endfacet
  facet normal 1 0 0
    outer loop
      vertex 10 -44.968 3.25129
      vertex 10 -43.968 3.51924
      vertex 10 -44.1749 8.42682
    endloop
  endfacet
  facet normal 1 0 0
    outer loop
      vertex 10 -45.922 9.13446
      vertex 10 -44.968 3.25129
      vertex 10 -44.1749 8.42682
    endloop
  endfacet
  facet normal 1 0 0
    outer loop
      vertex 10 -44.968 3.25129
      vertex 10 -45.922 9.13446
      vertex 10 -45.7 2.51924
    endloop
  endfacet
  facet normal 1 0 0
    outer loop
      vertex 10 -47.6577 9.86945
      vertex 10 -45.7 2.51924
      vertex 10 -45.922 9.13446
    endloop
  endfacet
  facet normal 1 0 0
    outer loop
      vertex 10 -49.3817 10.6316
      vertex 10 -45.7 2.51924
      vertex 10 -47.6577 9.86945
    endloop
  endfacet
  facet normal 1 0 0
    outer loop
      vertex 10 -45.7 2.51924
      vertex 10 -49.3817 10.6316
      vertex 10 -45.968 1.51924
    endloop
  endfacet
  facet normal 1 0 0
    outer loop
      vertex 10 -51.0935 11.4208
      vertex 10 -45.968 1.51924
      vertex 10 -49.3817 10.6316
    endloop
  endfacet
  facet normal 1 0 0
    outer loop
      vertex 10 -52.7927 12.2367
      vertex 10 -45.968 1.51924
      vertex 10 -51.0935 11.4208
    endloop
  endfacet
  facet normal 1 0 0
    outer loop
      vertex 10 -54.4789 13.0792
      vertex 10 -45.968 1.51924
      vertex 10 -52.7927 12.2367
    endloop
  endfacet
  facet normal 1 0 0
    outer loop
      vertex 10 -45.968 1.51924
      vertex 10 -54.4789 13.0792
      vertex 10 -46.9445 -10
    endloop
  endfacet
  facet normal 1 0 0
    outer loop
      vertex 10 -56.1516 13.9481
      vertex 10 -46.9445 -10
      vertex 10 -54.4789 13.0792
    endloop
  endfacet
  facet normal 1 0 0
    outer loop
      vertex 10 -62 16.077
      vertex 10 -56.1516 13.9481
      vertex 10 -57.8104 14.8432
    endloop
  endfacet
  facet normal 1 0 0
    outer loop
      vertex 10 -62 16.077
      vertex 10 -57.8104 14.8432
      vertex 10 -59.455 15.7642
    endloop
  endfacet
  facet normal 1 -0 0
    outer loop
      vertex 10 -62 16.077
      vertex 10 -59.455 15.7642
      vertex 10 -59.9935 16.077
    endloop
  endfacet
  facet normal 1 0 0
    outer loop
      vertex 10 -56.1516 13.9481
      vertex 10 -62 16.077
      vertex 10 -46.9445 -10
    endloop
  endfacet
  facet normal 1 0 0
    outer loop
      vertex 10 59.455 15.7642
      vertex 10 62 16.077
      vertex 10 59.9935 16.077
    endloop
  endfacet
  facet normal 1 0 0
    outer loop
      vertex 10 57.8104 14.8432
      vertex 10 62 16.077
      vertex 10 59.455 15.7642
    endloop
  endfacet
  facet normal 1 0 0
    outer loop
      vertex 10 56.1516 13.9481
      vertex 10 62 16.077
      vertex 10 57.8104 14.8432
    endloop
  endfacet
  facet normal 1 0 0
    outer loop
      vertex 10 46.9445 -10
      vertex 10 56.1516 13.9481
      vertex 10 54.4789 13.0792
    endloop
  endfacet
  facet normal 1 0 0
    outer loop
      vertex 10 45.968 1.51924
      vertex 10 54.4789 13.0792
      vertex 10 52.7927 12.2367
    endloop
  endfacet
  facet normal 1 0 0
    outer loop
      vertex 10 45.968 1.51924
      vertex 10 52.7927 12.2367
      vertex 10 51.0935 11.4208
    endloop
  endfacet
  facet normal 1 0 0
    outer loop
      vertex 10 45.968 1.51924
      vertex 10 51.0935 11.4208
      vertex 10 49.3817 10.6316
    endloop
  endfacet
  facet normal 1 0 0
    outer loop
      vertex 10 45.7 2.51924
      vertex 10 49.3817 10.6316
      vertex 10 47.6577 9.86945
    endloop
  endfacet
  facet normal 1 0 -0
    outer loop
      vertex 10 46.9445 -10
      vertex 10 54.4789 13.0792
      vertex 10 45.968 1.51924
    endloop
  endfacet
  facet normal 1 -0 0
    outer loop
      vertex 10 56.1516 13.9481
      vertex 10 46.9445 -10
      vertex 10 62 16.077
    endloop
  endfacet
  facet normal 1 0 0
    outer loop
      vertex 10 45.7 2.51924
      vertex 10 47.6577 9.86945
      vertex 10 45.922 9.13446
    endloop
  endfacet
  facet normal 1 0 0
    outer loop
      vertex 10 49.3817 10.6316
      vertex 10 45.7 2.51924
      vertex 10 45.968 1.51924
    endloop
  endfacet
  facet normal 1 0 0
    outer loop
      vertex 10 45.922 9.13446
      vertex 10 44.968 3.25129
      vertex 10 45.7 2.51924
    endloop
  endfacet
  facet normal 1 -0 0
    outer loop
      vertex 10 44.1749 8.42682
      vertex 10 44.968 3.25129
      vertex 10 45.922 9.13446
    endloop
  endfacet
  facet normal 1 0 0
    outer loop
      vertex 10 44.1749 8.42682
      vertex 10 43.968 3.51924
      vertex 10 44.968 3.25129
    endloop
  endfacet
  facet normal 1 -0 0
    outer loop
      vertex 10 42.417 7.74672
      vertex 10 43.968 3.51924
      vertex 10 44.1749 8.42682
    endloop
  endfacet
  facet normal 1 -0 0
    outer loop
      vertex 10 40.6486 7.09431
      vertex 10 43.968 3.51924
      vertex 10 42.417 7.74672
    endloop
  endfacet
  facet normal 1 0 0
    outer loop
      vertex 10 40.6486 7.09431
      vertex 10 40.468 3.51924
      vertex 10 43.968 3.51924
    endloop
  endfacet
  facet normal 1 -0 0
    outer loop
      vertex 10 38.8701 6.46976
      vertex 10 40.468 3.51924
      vertex 10 40.6486 7.09431
    endloop
  endfacet
  facet normal 1 0 0
    outer loop
      vertex 10 40.468 3.51924
      vertex 10 38.8701 6.46976
      vertex 10 39.468 3.25129
    endloop
  endfacet
  facet normal 1 -0 0
    outer loop
      vertex 10 37.082 5.87322
      vertex 10 39.468 3.25129
      vertex 10 38.8701 6.46976
    endloop
  endfacet
  facet normal 1 0 0
    outer loop
      vertex 10 39.468 3.25129
      vertex 10 37.082 5.87322
      vertex 10 38.7359 2.51924
    endloop
  endfacet
  facet normal 1 -0 0
    outer loop
      vertex 10 35.2848 5.30484
      vertex 10 38.7359 2.51924
      vertex 10 37.082 5.87322
    endloop
  endfacet
  facet normal 1 -0 0
    outer loop
      vertex 10 45.7 0.519238
      vertex 10 46.9445 -10
      vertex 10 45.968 1.51924
    endloop
  endfacet
  facet normal 1 -0 0
    outer loop
      vertex 10 44.968 -0.212812
      vertex 10 46.9445 -10
      vertex 10 45.7 0.519238
    endloop
  endfacet
  facet normal 1 0 0
    outer loop
      vertex 10 44.968 -0.212812
      vertex 10 43.968 -0.480762
      vertex 10 46.9445 -10
    endloop
  endfacet
  facet normal 1 -0 0
    outer loop
      vertex 10 40.468 -0.480762
      vertex 10 46.9445 -10
      vertex 10 43.968 -0.480762
    endloop
  endfacet
  facet normal 1 0 0
    outer loop
      vertex 10 39.468 -0.212812
      vertex 10 46.9445 -10
      vertex 10 40.468 -0.480762
    endloop
  endfacet
  facet normal 1 0 0
    outer loop
      vertex 10 28.0134 3.31561
      vertex 10 39.468 -0.212812
      vertex 10 38.7359 0.519239
    endloop
  endfacet
  facet normal 1 0 0
    outer loop
      vertex 10 38.7359 2.51924
      vertex 10 35.2848 5.30484
      vertex 10 38.468 1.51924
    endloop
  endfacet
  facet normal 1 -0 0
    outer loop
      vertex 10 33.4789 4.76476
      vertex 10 38.468 1.51924
      vertex 10 35.2848 5.30484
    endloop
  endfacet
  facet normal 1 -0 0
    outer loop
      vertex 10 31.6648 4.25311
      vertex 10 38.468 1.51924
      vertex 10 33.4789 4.76476
    endloop
  endfacet
  facet normal 1 0 0
    outer loop
      vertex 10 38.468 1.51924
      vertex 10 31.6648 4.25311
      vertex 10 38.7359 0.519239
    endloop
  endfacet
  facet normal 1 -0 0
    outer loop
      vertex 10 29.8428 3.77002
      vertex 10 38.7359 0.519239
      vertex 10 31.6648 4.25311
    endloop
  endfacet
  facet normal 1 -0 0
    outer loop
      vertex 10 28.0134 3.31561
      vertex 10 38.7359 0.519239
      vertex 10 29.8428 3.77002
    endloop
  endfacet
  facet normal 1 0 0
    outer loop
      vertex 10 39.468 -0.212812
      vertex 10 28.0134 3.31561
      vertex 10 26.1772 2.88999
    endloop
  endfacet
  facet normal 1 -0 0
    outer loop
      vertex 10 24.3345 2.49326
      vertex 10 39.468 -0.212812
      vertex 10 26.1772 2.88999
    endloop
  endfacet
  facet normal 1 0 0
    outer loop
      vertex 10 39.468 -0.212812
      vertex 10 24.3345 2.49326
      vertex 10 46.9445 -10
    endloop
  endfacet
  facet normal 1 -0 0
    outer loop
      vertex 10 22.4858 2.12553
      vertex 10 46.9445 -10
      vertex 10 24.3345 2.49326
    endloop
  endfacet
  facet normal 1 -0 0
    outer loop
      vertex 10 20.6315 1.78688
      vertex 10 46.9445 -10
      vertex 10 22.4858 2.12553
    endloop
  endfacet
  facet normal 1 -0 0
    outer loop
      vertex 10 18.7721 1.4774
      vertex 10 46.9445 -10
      vertex 10 20.6315 1.78688
    endloop
  endfacet
  facet normal 1 -0 0
    outer loop
      vertex 10 16.9081 1.19716
      vertex 10 46.9445 -10
      vertex 10 18.7721 1.4774
    endloop
  endfacet
  facet normal 1 -0 0
    outer loop
      vertex 10 15.04 0.946237
      vertex 10 46.9445 -10
      vertex 10 16.9081 1.19716
    endloop
  endfacet
  facet normal 1 -0 0
    outer loop
      vertex 10 13.1681 0.724686
      vertex 10 46.9445 -10
      vertex 10 15.04 0.946237
    endloop
  endfacet
  facet normal 1 -0 0
    outer loop
      vertex 10 11.293 0.532565
      vertex 10 46.9445 -10
      vertex 10 13.1681 0.724686
    endloop
  endfacet
  facet normal 1 -0 0
    outer loop
      vertex 10 9.41509 0.369921
      vertex 10 46.9445 -10
      vertex 10 11.293 0.532565
    endloop
  endfacet
  facet normal 1 -0 0
    outer loop
      vertex 10 7.53486 0.236794
      vertex 10 46.9445 -10
      vertex 10 9.41509 0.369921
    endloop
  endfacet
  facet normal 1 -0 0
    outer loop
      vertex 10 5.65277 0.133216
      vertex 10 46.9445 -10
      vertex 10 7.53486 0.236794
    endloop
  endfacet
  facet normal 1 -0 0
    outer loop
      vertex 10 3.76929 0.0592136
      vertex 10 46.9445 -10
      vertex 10 5.65277 0.133216
    endloop
  endfacet
  facet normal 1 -0 0
    outer loop
      vertex 10 1.88488 0.0148048
      vertex 10 46.9445 -10
      vertex 10 3.76929 0.0592136
    endloop
  endfacet
  facet normal 1 -0 0
    outer loop
      vertex 10 0 1.77321e-15
      vertex 10 46.9445 -10
      vertex 10 1.88488 0.0148048
    endloop
  endfacet
  facet normal 1 0 0
    outer loop
      vertex 10 -46.9445 -10
      vertex 10 0 1.77321e-15
      vertex 10 -1.88488 0.0148048
    endloop
  endfacet
  facet normal 1 0 0
    outer loop
      vertex 10 -46.9445 -10
      vertex 10 -1.88488 0.0148048
      vertex 10 -3.76929 0.0592136
    endloop
  endfacet
  facet normal 1 0 0
    outer loop
      vertex 10 -46.9445 -10
      vertex 10 -3.76929 0.0592136
      vertex 10 -5.65277 0.133216
    endloop
  endfacet
  facet normal 1 0 0
    outer loop
      vertex 10 -46.9445 -10
      vertex 10 -5.65277 0.133216
      vertex 10 -7.53486 0.236794
    endloop
  endfacet
  facet normal 1 0 0
    outer loop
      vertex 10 -46.9445 -10
      vertex 10 -7.53486 0.236794
      vertex 10 -9.41509 0.369921
    endloop
  endfacet
  facet normal 1 0 0
    outer loop
      vertex 10 -46.9445 -10
      vertex 10 -9.41509 0.369921
      vertex 10 -11.293 0.532565
    endloop
  endfacet
  facet normal 1 0 0
    outer loop
      vertex 10 -46.9445 -10
      vertex 10 -11.293 0.532565
      vertex 10 -13.1681 0.724686
    endloop
  endfacet
  facet normal 1 0 0
    outer loop
      vertex 10 -46.9445 -10
      vertex 10 -13.1681 0.724686
      vertex 10 -15.04 0.946237
    endloop
  endfacet
  facet normal 1 0 0
    outer loop
      vertex 10 -46.9445 -10
      vertex 10 -15.04 0.946237
      vertex 10 -16.9081 1.19716
    endloop
  endfacet
  facet normal 1 0 0
    outer loop
      vertex 10 -46.9445 -10
      vertex 10 -16.9081 1.19716
      vertex 10 -18.7721 1.4774
    endloop
  endfacet
  facet normal 1 0 0
    outer loop
      vertex 10 -46.9445 -10
      vertex 10 -18.7721 1.4774
      vertex 10 -20.6315 1.78688
    endloop
  endfacet
  facet normal 1 0 0
    outer loop
      vertex 10 -38.7359 2.51924
      vertex 10 -35.2848 5.30484
      vertex 10 -37.082 5.87322
    endloop
  endfacet
  facet normal 1 0 0
    outer loop
      vertex 10 -38.468 1.51924
      vertex 10 -33.4789 4.76476
      vertex 10 -35.2848 5.30484
    endloop
  endfacet
  facet normal 1 0 0
    outer loop
      vertex 10 -38.468 1.51924
      vertex 10 -31.6648 4.25311
      vertex 10 -33.4789 4.76476
    endloop
  endfacet
  facet normal 1 0 0
    outer loop
      vertex 10 -38.7359 0.519238
      vertex 10 -31.6648 4.25311
      vertex 10 -38.468 1.51924
    endloop
  endfacet
  facet normal 1 0 0
    outer loop
      vertex 10 -31.6648 4.25311
      vertex 10 -38.7359 0.519238
      vertex 10 -29.8428 3.77002
    endloop
  endfacet
  facet normal 1 0 0
    outer loop
      vertex 10 -29.8428 3.77002
      vertex 10 -38.7359 0.519238
      vertex 10 -28.0134 3.31561
    endloop
  endfacet
  facet normal 1 0 0
    outer loop
      vertex 10 -39.468 -0.212812
      vertex 10 -28.0134 3.31561
      vertex 10 -38.7359 0.519238
    endloop
  endfacet
  facet normal 1 0 0
    outer loop
      vertex 10 -28.0134 3.31561
      vertex 10 -39.468 -0.212812
      vertex 10 -26.1772 2.88999
    endloop
  endfacet
  facet normal 1 0 0
    outer loop
      vertex 10 -26.1772 2.88999
      vertex 10 -39.468 -0.212812
      vertex 10 -24.3345 2.49326
    endloop
  endfacet
  facet normal 1 0 0
    outer loop
      vertex 10 -46.9445 -10
      vertex 10 -24.3345 2.49326
      vertex 10 -39.468 -0.212812
    endloop
  endfacet
  facet normal 1 0 0
    outer loop
      vertex 10 -24.3345 2.49326
      vertex 10 -46.9445 -10
      vertex 10 -22.4858 2.12553
    endloop
  endfacet
  facet normal 1 0 0
    outer loop
      vertex 10 -22.4858 2.12553
      vertex 10 -46.9445 -10
      vertex 10 -20.6315 1.78688
    endloop
  endfacet
  facet normal 1 0 0
    outer loop
      vertex 10 -46.9445 -10
      vertex 10 -39.468 -0.212812
      vertex 10 -40.468 -0.480762
    endloop
  endfacet
  facet normal 1 0 0
    outer loop
      vertex 10 -46.9445 -10
      vertex 10 -40.468 -0.480762
      vertex 10 -43.968 -0.480762
    endloop
  endfacet
  facet normal 1 0 0
    outer loop
      vertex 10 0 1.77321e-15
      vertex 10 -46.9445 -10
      vertex 10 46.9445 -10
    endloop
  endfacet
  facet normal 1 0 0
    outer loop
      vertex 10 -44.968 -0.212812
      vertex 10 -46.9445 -10
      vertex 10 -43.968 -0.480762
    endloop
  endfacet
  facet normal 1 0 0
    outer loop
      vertex 10 -45.7 0.519239
      vertex 10 -46.9445 -10
      vertex 10 -44.968 -0.212812
    endloop
  endfacet
  facet normal 1 0 0
    outer loop
      vertex 10 -46.9445 -10
      vertex 10 -45.7 0.519239
      vertex 10 -45.968 1.51924
    endloop
  endfacet
  facet normal 0 0 -1
    outer loop
      vertex 1.77321e-15 -23.4722 -10
      vertex 2 23.4722 -10
      vertex 2 -23.4722 -10
    endloop
  endfacet
  facet normal 0 0 -1
    outer loop
      vertex 1.77321e-15 -23.4722 -10
      vertex 1.77321e-15 23.4722 -10
      vertex 2 23.4722 -10
    endloop
  endfacet
  facet normal 0 0 -1
    outer loop
      vertex -5 -23.4722 -10
      vertex 1.77321e-15 23.4722 -10
      vertex 1.77321e-15 -23.4722 -10
    endloop
  endfacet
  facet normal -0 0 -1
    outer loop
      vertex 1.77321e-15 23.4722 -10
      vertex -5 -23.4722 -10
      vertex -5 23.4722 -10
    endloop
  endfacet
  facet normal 0 0 -1
    outer loop
      vertex 10 -46.9445 -10
      vertex 2 -23.4722 -10
      vertex 10 46.9445 -10
    endloop
  endfacet
  facet normal 0 0 -1
    outer loop
      vertex 1.77321e-15 -46.9445 -10
      vertex 2 -23.4722 -10
      vertex 10 -46.9445 -10
    endloop
  endfacet
  facet normal -0 0 -1
    outer loop
      vertex 2 -23.4722 -10
      vertex 1.77321e-15 -46.9445 -10
      vertex 1.77321e-15 -23.4722 -10
    endloop
  endfacet
  facet normal 0 0 -1
    outer loop
      vertex 2 23.4722 -10
      vertex 10 46.9445 -10
      vertex 2 -23.4722 -10
    endloop
  endfacet
  facet normal 0 0 -1
    outer loop
      vertex 1.77321e-15 46.9445 -10
      vertex 2 23.4722 -10
      vertex 1.77321e-15 23.4722 -10
    endloop
  endfacet
  facet normal 0 0 -1
    outer loop
      vertex 2 23.4722 -10
      vertex 1.77321e-15 46.9445 -10
      vertex 10 46.9445 -10
    endloop
  endfacet
  facet normal -1 -1.67077e-23 -1.77321e-16
    outer loop
      vertex 1.77321e-15 46.9445 -10
      vertex -9.20719e-17 45.7 0.519238
      vertex -2.69393e-16 45.968 1.51924
    endloop
  endfacet
  facet normal -1 -1.69162e-24 -1.77321e-16
    outer loop
      vertex 1.77321e-15 46.9445 -10
      vertex 3.77361e-17 44.968 -0.212812
      vertex -9.20719e-17 45.7 0.519238
    endloop
  endfacet
  facet normal -1 1.43339e-24 -1.77321e-16
    outer loop
      vertex 1.77321e-15 46.9445 -10
      vertex 8.52493e-17 43.968 -0.480762
      vertex 3.77361e-17 44.968 -0.212812
    endloop
  endfacet
  facet normal -1 0 -1.77321e-16
    outer loop
      vertex 1.77321e-15 46.9445 -10
      vertex 8.52493e-17 40.468 -0.480762
      vertex 8.52493e-17 43.968 -0.480762
    endloop
  endfacet
  facet normal -1 -1.89983e-24 -1.77321e-16
    outer loop
      vertex 1.77321e-15 46.9445 -10
      vertex 3.77361e-17 39.468 -0.212812
      vertex 8.52493e-17 40.468 -0.480762
    endloop
  endfacet
  facet normal -1 0 -1.77321e-16
    outer loop
      vertex 1.77321e-15 23.4722 -10
      vertex 3.77361e-17 39.468 -0.212812
      vertex 1.77321e-15 46.9445 -10
    endloop
  endfacet
  facet normal -1 -6.68349e-25 -1.77321e-16
    outer loop
      vertex -7.54167e-16 31.6648 4.25311
      vertex -2.69393e-16 38.468 1.51924
      vertex -9.20721e-17 38.7359 0.519239
    endloop
  endfacet
  facet normal -1 2.49558e-23 -1.77321e-16
    outer loop
      vertex -2.69393e-16 38.468 1.51924
      vertex -9.40661e-16 35.2848 5.30484
      vertex -1.04145e-15 37.082 5.87322
    endloop
  endfacet
  facet normal -1 -1.07131e-23 -1.77321e-16
    outer loop
      vertex -2.69393e-16 38.468 1.51924
      vertex -8.44893e-16 33.4789 4.76476
      vertex -9.40661e-16 35.2848 5.30484
    endloop
  endfacet
  facet normal -1 2.29987e-24 -1.77321e-16
    outer loop
      vertex 3.77361e-17 39.468 -0.212812
      vertex 1.77321e-15 23.4722 -10
      vertex -9.20721e-17 38.7359 0.519239
    endloop
  endfacet
  facet normal -1 1.09788e-23 -1.77321e-16
    outer loop
      vertex -2.69393e-16 38.468 1.51924
      vertex -7.54167e-16 31.6648 4.25311
      vertex -8.44893e-16 33.4789 4.76476
    endloop
  endfacet
  facet normal -1 -1.63482e-26 -1.77321e-16
    outer loop
      vertex -6.68505e-16 29.8428 3.77002
      vertex -9.20721e-17 38.7359 0.519239
      vertex 1.77321e-15 23.4722 -10
    endloop
  endfacet
  facet normal -1 -2.62295e-24 -1.77321e-16
    outer loop
      vertex -9.20721e-17 38.7359 0.519239
      vertex -6.68505e-16 29.8428 3.77002
      vertex -7.54167e-16 31.6648 4.25311
    endloop
  endfacet
  facet normal -1 5.32476e-24 -1.77321e-16
    outer loop
      vertex -6.68505e-16 29.8428 3.77002
      vertex 1.77321e-15 23.4722 -10
      vertex -5.87928e-16 28.0134 3.31561
    endloop
  endfacet
  facet normal -1 -2.00286e-23 -1.77321e-16
    outer loop
      vertex -5.87928e-16 28.0134 3.31561
      vertex 1.77321e-15 23.4722 -10
      vertex -5.12456e-16 26.1772 2.88999
    endloop
  endfacet
  facet normal -1 4.67456e-24 -1.77321e-16
    outer loop
      vertex -5.12456e-16 26.1772 2.88999
      vertex 1.77321e-15 23.4722 -10
      vertex -4.42109e-16 24.3345 2.49326
    endloop
  endfacet
  facet normal -1 4.46977e-24 -1.77321e-16
    outer loop
      vertex 1.77321e-15 23.4722 -10
      vertex -3.76902e-16 22.4858 2.12553
      vertex -4.42109e-16 24.3345 2.49326
    endloop
  endfacet
  facet normal -1 -1.22317e-25 -1.77321e-16
    outer loop
      vertex 1.77321e-15 23.4722 -10
      vertex -3.16852e-16 20.6315 1.78688
      vertex -3.76902e-16 22.4858 2.12553
    endloop
  endfacet
  facet normal -1 1.36437e-23 -1.77321e-16
    outer loop
      vertex -3.16852e-16 20.6315 1.78688
      vertex 1.77321e-15 23.4722 -10
      vertex -2.84619e-16 19.5394 1.60511
    endloop
  endfacet
  facet normal -1 -0 -1.77322e-16
    outer loop
      vertex -2.85079e-15 62 16.077
      vertex -2.79533e-15 59.455 15.7642
      vertex -2.85079e-15 59.9935 16.077
    endloop
  endfacet
  facet normal -1 -2.50426e-23 -1.77321e-16
    outer loop
      vertex -2.85079e-15 62 16.077
      vertex -2.63201e-15 57.8104 14.8432
      vertex -2.79533e-15 59.455 15.7642
    endloop
  endfacet
  facet normal -1 -1.35782e-22 -1.77321e-16
    outer loop
      vertex -2.85079e-15 62 16.077
      vertex -2.4733e-15 56.1516 13.9481
      vertex -2.63201e-15 57.8104 14.8432
    endloop
  endfacet
  facet normal -1 -1.19823e-23 -1.77321e-16
    outer loop
      vertex 1.77321e-15 46.9445 -10
      vertex -2.4733e-15 56.1516 13.9481
      vertex -2.85079e-15 62 16.077
    endloop
  endfacet
  facet normal -1 -2.43534e-23 -1.77321e-16
    outer loop
      vertex -2.4733e-15 56.1516 13.9481
      vertex 1.77321e-15 46.9445 -10
      vertex -2.31922e-15 54.4789 13.0792
    endloop
  endfacet
  facet normal -1 7.966e-23 -1.77321e-16
    outer loop
      vertex -2.31922e-15 54.4789 13.0792
      vertex -2.69393e-16 45.968 1.51924
      vertex -2.16983e-15 52.7927 12.2367
    endloop
  endfacet
  facet normal -1 2.00903e-23 -1.77321e-16
    outer loop
      vertex -2.16983e-15 52.7927 12.2367
      vertex -2.69393e-16 45.968 1.51924
      vertex -2.02514e-15 51.0935 11.4208
    endloop
  endfacet
  facet normal -1 1.58626e-23 -1.77321e-16
    outer loop
      vertex -2.02514e-15 51.0935 11.4208
      vertex -2.69393e-16 45.968 1.51924
      vertex -1.88521e-15 49.3817 10.6316
    endloop
  endfacet
  facet normal -1 5.71589e-24 -1.77321e-16
    outer loop
      vertex -2.31922e-15 54.4789 13.0792
      vertex 1.77321e-15 46.9445 -10
      vertex -2.69393e-16 45.968 1.51924
    endloop
  endfacet
  facet normal -1 -7.14867e-23 -1.77321e-16
    outer loop
      vertex -4.46714e-16 45.7 2.51924
      vertex -1.88521e-15 49.3817 10.6316
      vertex -2.69393e-16 45.968 1.51924
    endloop
  endfacet
  facet normal -1 -6.23315e-23 -1.77321e-16
    outer loop
      vertex -1.88521e-15 49.3817 10.6316
      vertex -4.46714e-16 45.7 2.51924
      vertex -1.75006e-15 47.6577 9.86945
    endloop
  endfacet
  facet normal -1 4.08512e-23 -1.77321e-16
    outer loop
      vertex -1.75006e-15 47.6577 9.86945
      vertex -4.46714e-16 45.7 2.51924
      vertex -1.61973e-15 45.922 9.13446
    endloop
  endfacet
  facet normal -1 3.00402e-23 -1.77321e-16
    outer loop
      vertex -5.76522e-16 44.968 3.25129
      vertex -1.61973e-15 45.922 9.13446
      vertex -4.46714e-16 45.7 2.51924
    endloop
  endfacet
  facet normal -1 4.04654e-24 -1.77321e-16
    outer loop
      vertex -5.76522e-16 44.968 3.25129
      vertex -1.49425e-15 44.1749 8.42682
      vertex -1.61973e-15 45.922 9.13446
    endloop
  endfacet
  facet normal -1 -4.63275e-23 -1.77321e-16
    outer loop
      vertex -6.24036e-16 43.968 3.51924
      vertex -1.49425e-15 44.1749 8.42682
      vertex -5.76522e-16 44.968 3.25129
    endloop
  endfacet
  facet normal -1 -1.96641e-23 -1.77321e-16
    outer loop
      vertex -6.24036e-16 43.968 3.51924
      vertex -1.37366e-15 42.417 7.74672
      vertex -1.49425e-15 44.1749 8.42682
    endloop
  endfacet
  facet normal -1 -1.72829e-23 -1.77321e-16
    outer loop
      vertex -6.24036e-16 43.968 3.51924
      vertex -1.25797e-15 40.6486 7.09431
      vertex -1.37366e-15 42.417 7.74672
    endloop
  endfacet
  facet normal -1 0 -1.77321e-16
    outer loop
      vertex -6.24036e-16 40.468 3.51924
      vertex -1.25797e-15 40.6486 7.09431
      vertex -6.24036e-16 43.968 3.51924
    endloop
  endfacet
  facet normal -1 4.29634e-23 -1.77321e-16
    outer loop
      vertex -1.14723e-15 38.8701 6.46976
      vertex -6.24036e-16 40.468 3.51924
      vertex -5.76522e-16 39.468 3.25129
    endloop
  endfacet
  facet normal -1 4.47724e-23 -1.77321e-16
    outer loop
      vertex -6.24036e-16 40.468 3.51924
      vertex -1.14723e-15 38.8701 6.46976
      vertex -1.25797e-15 40.6486 7.09431
    endloop
  endfacet
  facet normal -1 -3.34779e-23 -1.77321e-16
    outer loop
      vertex -1.04145e-15 37.082 5.87322
      vertex -5.76522e-16 39.468 3.25129
      vertex -4.46714e-16 38.7359 2.51924
    endloop
  endfacet
  facet normal -1 4.00547e-23 -1.77321e-16
    outer loop
      vertex -1.04145e-15 37.082 5.87322
      vertex -4.46714e-16 38.7359 2.51924
      vertex -2.69393e-16 38.468 1.51924
    endloop
  endfacet
  facet normal -1 -4.53337e-23 -1.77321e-16
    outer loop
      vertex -5.76522e-16 39.468 3.25129
      vertex -1.04145e-15 37.082 5.87322
      vertex -1.14723e-15 38.8701 6.46976
    endloop
  endfacet
  facet normal -1 4.63275e-23 -1.77321e-16
    outer loop
      vertex -6.24036e-16 -43.968 3.51924
      vertex -5.76522e-16 -44.968 3.25129
      vertex -1.49425e-15 -44.1749 8.42682
    endloop
  endfacet
  facet normal -1 -3.00402e-23 -1.77321e-16
    outer loop
      vertex -1.61973e-15 -45.922 9.13446
      vertex -5.76522e-16 -44.968 3.25129
      vertex -4.46714e-16 -45.7 2.51924
    endloop
  endfacet
  facet normal -1 -4.04654e-24 -1.77321e-16
    outer loop
      vertex -5.76522e-16 -44.968 3.25129
      vertex -1.61973e-15 -45.922 9.13446
      vertex -1.49425e-15 -44.1749 8.42682
    endloop
  endfacet
  facet normal -1 7.14867e-23 -1.77321e-16
    outer loop
      vertex -1.88521e-15 -49.3817 10.6316
      vertex -4.46714e-16 -45.7 2.51924
      vertex -2.69393e-16 -45.968 1.51924
    endloop
  endfacet
  facet normal -1 -5.71589e-24 -1.77321e-16
    outer loop
      vertex -2.31922e-15 -54.4789 13.0792
      vertex -2.69393e-16 -45.968 1.51924
      vertex 1.77321e-15 -46.9445 -10
    endloop
  endfacet
  facet normal -1 -4.08512e-23 -1.77321e-16
    outer loop
      vertex -4.46714e-16 -45.7 2.51924
      vertex -1.75006e-15 -47.6577 9.86945
      vertex -1.61973e-15 -45.922 9.13446
    endloop
  endfacet
  facet normal -1 6.23315e-23 -1.77321e-16
    outer loop
      vertex -4.46714e-16 -45.7 2.51924
      vertex -1.88521e-15 -49.3817 10.6316
      vertex -1.75006e-15 -47.6577 9.86945
    endloop
  endfacet
  facet normal -1 -1.58626e-23 -1.77321e-16
    outer loop
      vertex -2.69393e-16 -45.968 1.51924
      vertex -2.02514e-15 -51.0935 11.4208
      vertex -1.88521e-15 -49.3817 10.6316
    endloop
  endfacet
  facet normal -1 -2.00903e-23 -1.77321e-16
    outer loop
      vertex -2.69393e-16 -45.968 1.51924
      vertex -2.16983e-15 -52.7927 12.2367
      vertex -2.02514e-15 -51.0935 11.4208
    endloop
  endfacet
  facet normal -1 -7.966e-23 -1.77321e-16
    outer loop
      vertex -2.69393e-16 -45.968 1.51924
      vertex -2.31922e-15 -54.4789 13.0792
      vertex -2.16983e-15 -52.7927 12.2367
    endloop
  endfacet
  facet normal -1 2.43534e-23 -1.77321e-16
    outer loop
      vertex 1.77321e-15 -46.9445 -10
      vertex -2.4733e-15 -56.1516 13.9481
      vertex -2.31922e-15 -54.4789 13.0792
    endloop
  endfacet
  facet normal -1 1.19823e-23 -1.77321e-16
    outer loop
      vertex -2.85079e-15 -62 16.077
      vertex -2.4733e-15 -56.1516 13.9481
      vertex 1.77321e-15 -46.9445 -10
    endloop
  endfacet
  facet normal -1 1.35782e-22 -1.77321e-16
    outer loop
      vertex -2.4733e-15 -56.1516 13.9481
      vertex -2.85079e-15 -62 16.077
      vertex -2.63201e-15 -57.8104 14.8432
    endloop
  endfacet
  facet normal -1 2.50426e-23 -1.77321e-16
    outer loop
      vertex -2.63201e-15 -57.8104 14.8432
      vertex -2.85079e-15 -62 16.077
      vertex -2.79533e-15 -59.455 15.7642
    endloop
  endfacet
  facet normal -1 0 -1.77322e-16
    outer loop
      vertex -2.79533e-15 -59.455 15.7642
      vertex -2.85079e-15 -62 16.077
      vertex -2.85079e-15 -59.9935 16.077
    endloop
  endfacet
  facet normal -1 -1.36437e-23 -1.77321e-16
    outer loop
      vertex 1.77321e-15 -23.4722 -10
      vertex -3.16852e-16 -20.6315 1.78688
      vertex -2.84619e-16 -19.5394 1.60511
    endloop
  endfacet
  facet normal -1 1.22317e-25 -1.77321e-16
    outer loop
      vertex 1.77321e-15 -23.4722 -10
      vertex -3.76902e-16 -22.4858 2.12553
      vertex -3.16852e-16 -20.6315 1.78688
    endloop
  endfacet
  facet normal -1 -4.46977e-24 -1.77321e-16
    outer loop
      vertex 1.77321e-15 -23.4722 -10
      vertex -4.42109e-16 -24.3345 2.49326
      vertex -3.76902e-16 -22.4858 2.12553
    endloop
  endfacet
  facet normal -1 -4.67456e-24 -1.77321e-16
    outer loop
      vertex 1.77321e-15 -23.4722 -10
      vertex -5.12456e-16 -26.1772 2.88999
      vertex -4.42109e-16 -24.3345 2.49326
    endloop
  endfacet
  facet normal -1 2.00286e-23 -1.77321e-16
    outer loop
      vertex 1.77321e-15 -23.4722 -10
      vertex -5.87928e-16 -28.0134 3.31561
      vertex -5.12456e-16 -26.1772 2.88999
    endloop
  endfacet
  facet normal -1 -5.32476e-24 -1.77321e-16
    outer loop
      vertex 1.77321e-15 -23.4722 -10
      vertex -6.68505e-16 -29.8428 3.77002
      vertex -5.87928e-16 -28.0134 3.31561
    endloop
  endfacet
  facet normal -1 -2.67081e-25 -1.77321e-16
    outer loop
      vertex -9.20719e-17 -38.7359 0.519238
      vertex -6.68505e-16 -29.8428 3.77002
      vertex 1.77321e-15 -23.4722 -10
    endloop
  endfacet
  facet normal -1 2.48364e-24 -1.77321e-16
    outer loop
      vertex -6.68505e-16 -29.8428 3.77002
      vertex -9.20719e-17 -38.7359 0.519238
      vertex -7.54167e-16 -31.6648 4.25311
    endloop
  endfacet
  facet normal -1 1.99543e-24 -1.77321e-16
    outer loop
      vertex -2.69393e-16 -38.468 1.51924
      vertex -7.54167e-16 -31.6648 4.25311
      vertex -9.20719e-17 -38.7359 0.519238
    endloop
  endfacet
  facet normal -1 -1.09788e-23 -1.77321e-16
    outer loop
      vertex -7.54167e-16 -31.6648 4.25311
      vertex -2.69393e-16 -38.468 1.51924
      vertex -8.44893e-16 -33.4789 4.76476
    endloop
  endfacet
  facet normal -1 -3.29391e-23 -1.77321e-16
    outer loop
      vertex -4.46714e-16 -38.7359 2.51924
      vertex -9.40661e-16 -35.2848 5.30484
      vertex -2.69393e-16 -38.468 1.51924
    endloop
  endfacet
  facet normal -1 1.07131e-23 -1.77321e-16
    outer loop
      vertex -8.44893e-16 -33.4789 4.76476
      vertex -2.69393e-16 -38.468 1.51924
      vertex -9.40661e-16 -35.2848 5.30484
    endloop
  endfacet
  facet normal -1 -7.71812e-25 -1.77321e-16
    outer loop
      vertex 1.77321e-15 -23.4722 -10
      vertex 3.77361e-17 -39.468 -0.212812
      vertex -9.20719e-17 -38.7359 0.519238
    endloop
  endfacet
  facet normal -1 0 -1.77321e-16
    outer loop
      vertex 1.77321e-15 -46.9445 -10
      vertex 3.77361e-17 -39.468 -0.212812
      vertex 1.77321e-15 -23.4722 -10
    endloop
  endfacet
  facet normal -1 1.89983e-24 -1.77321e-16
    outer loop
      vertex 3.77361e-17 -39.468 -0.212812
      vertex 1.77321e-15 -46.9445 -10
      vertex 8.52493e-17 -40.468 -0.480762
    endloop
  endfacet
  facet normal -1 -0 -1.77321e-16
    outer loop
      vertex 8.52493e-17 -40.468 -0.480762
      vertex 1.77321e-15 -46.9445 -10
      vertex 8.52493e-17 -43.968 -0.480762
    endloop
  endfacet
  facet normal -1 8.35318e-24 -1.77321e-16
    outer loop
      vertex -9.20721e-17 -45.7 0.519239
      vertex 1.77321e-15 -46.9445 -10
      vertex -2.69393e-16 -45.968 1.51924
    endloop
  endfacet
  facet normal -1 5.04073e-24 -1.77321e-16
    outer loop
      vertex 3.77361e-17 -44.968 -0.212812
      vertex 1.77321e-15 -46.9445 -10
      vertex -9.20721e-17 -45.7 0.519239
    endloop
  endfacet
  facet normal -1 -1.43339e-24 -1.77321e-16
    outer loop
      vertex 8.52493e-17 -43.968 -0.480762
      vertex 1.77321e-15 -46.9445 -10
      vertex 3.77361e-17 -44.968 -0.212812
    endloop
  endfacet
  facet normal -1 -2.56779e-23 -1.77321e-16
    outer loop
      vertex -9.40661e-16 -35.2848 5.30484
      vertex -4.46714e-16 -38.7359 2.51924
      vertex -1.04145e-15 -37.082 5.87322
    endloop
  endfacet
  facet normal -1 3.34779e-23 -1.77321e-16
    outer loop
      vertex -5.76522e-16 -39.468 3.25129
      vertex -1.04145e-15 -37.082 5.87322
      vertex -4.46714e-16 -38.7359 2.51924
    endloop
  endfacet
  facet normal -1 4.53337e-23 -1.77321e-16
    outer loop
      vertex -1.04145e-15 -37.082 5.87322
      vertex -5.76522e-16 -39.468 3.25129
      vertex -1.14723e-15 -38.8701 6.46976
    endloop
  endfacet
  facet normal -1 -4.29634e-23 -1.77321e-16
    outer loop
      vertex -6.24036e-16 -40.468 3.51924
      vertex -1.14723e-15 -38.8701 6.46976
      vertex -5.76522e-16 -39.468 3.25129
    endloop
  endfacet
  facet normal -1 -4.47724e-23 -1.77321e-16
    outer loop
      vertex -6.24036e-16 -40.468 3.51924
      vertex -1.25797e-15 -40.6486 7.09431
      vertex -1.14723e-15 -38.8701 6.46976
    endloop
  endfacet
  facet normal -1 0 -1.77321e-16
    outer loop
      vertex -6.24036e-16 -43.968 3.51924
      vertex -1.25797e-15 -40.6486 7.09431
      vertex -6.24036e-16 -40.468 3.51924
    endloop
  endfacet
  facet normal -1 1.72829e-23 -1.77321e-16
    outer loop
      vertex -1.25797e-15 -40.6486 7.09431
      vertex -6.24036e-16 -43.968 3.51924
      vertex -1.37366e-15 -42.417 7.74672
    endloop
  endfacet
  facet normal -1 1.96641e-23 -1.77321e-16
    outer loop
      vertex -1.37366e-15 -42.417 7.74672
      vertex -6.24036e-16 -43.968 3.51924
      vertex -1.49425e-15 -44.1749 8.42682
    endloop
  endfacet
  facet normal 0 -0.286525 0.958073
    outer loop
      vertex 10 35.2848 5.30484
      vertex -8.44893e-16 33.4789 4.76476
      vertex 10 33.4789 4.76476
    endloop
  endfacet
  facet normal 0 -0.286525 0.958073
    outer loop
      vertex -8.44893e-16 33.4789 4.76476
      vertex 10 35.2848 5.30484
      vertex -9.40661e-16 35.2848 5.30484
    endloop
  endfacet
  facet normal 0 -0.389928 0.920845
    outer loop
      vertex 10 47.6577 9.86945
      vertex -1.61973e-15 45.922 9.13446
      vertex 10 45.922 9.13446
    endloop
  endfacet
  facet normal 0 -0.389928 0.920845
    outer loop
      vertex -1.61973e-15 45.922 9.13446
      vertex 10 47.6577 9.86945
      vertex -1.75006e-15 47.6577 9.86945
    endloop
  endfacet
  facet normal -0 0.375416 0.926857
    outer loop
      vertex -1.49425e-15 -44.1749 8.42682
      vertex 10 -45.922 9.13446
      vertex 10 -44.1749 8.42682
    endloop
  endfacet
  facet normal 0 0.375416 0.926857
    outer loop
      vertex 10 -45.922 9.13446
      vertex -1.49425e-15 -44.1749 8.42682
      vertex -1.61973e-15 -45.922 9.13446
    endloop
  endfacet
  facet normal 0 -0.0392598 0.999229
    outer loop
      vertex 2 5.65277 0.133216
      vertex 10 3.76929 0.0592136
      vertex 10 5.65277 0.133216
    endloop
  endfacet
  facet normal 0 -0.0392598 0.999229
    outer loop
      vertex 10 3.76929 0.0592136
      vertex 2 5.65277 0.133216
      vertex 2 3.76929 0.0592136
    endloop
  endfacet
  facet normal 0 -0.19509 0.980785
    outer loop
      vertex 10 24.3345 2.49326
      vertex -3.76902e-16 22.4858 2.12553
      vertex 10 22.4858 2.12553
    endloop
  endfacet
  facet normal 0 -0.19509 0.980785
    outer loop
      vertex -3.76902e-16 22.4858 2.12553
      vertex 10 24.3345 2.49326
      vertex -4.42109e-16 24.3345 2.49326
    endloop
  endfacet
  facet normal 0 -0.0078543 0.999969
    outer loop
      vertex 2 1.88488 0.0148048
      vertex 10 0 1.77321e-15
      vertex 10 1.88488 0.0148048
    endloop
  endfacet
  facet normal -1.77316e-16 -0.0078543 0.999969
    outer loop
      vertex 10 0 1.77321e-15
      vertex 2 1.88488 0.0148048
      vertex 2 0 3.54643e-16
    endloop
  endfacet
  facet normal 0 -0.101924 0.994792
    outer loop
      vertex 2 13.1681 0.724686
      vertex 10 11.293 0.532565
      vertex 10 13.1681 0.724686
    endloop
  endfacet
  facet normal 0 -0.101924 0.994792
    outer loop
      vertex 10 11.293 0.532565
      vertex 2 13.1681 0.724686
      vertex 2 11.293 0.532565
    endloop
  endfacet
  facet normal 0 -0.331338 0.943512
    outer loop
      vertex 10 40.6486 7.09431
      vertex -1.14723e-15 38.8701 6.46976
      vertex 10 38.8701 6.46976
    endloop
  endfacet
  facet normal 0 -0.331338 0.943512
    outer loop
      vertex -1.14723e-15 38.8701 6.46976
      vertex 10 40.6486 7.09431
      vertex -1.25797e-15 40.6486 7.09431
    endloop
  endfacet
  facet normal 0 -0.241075 0.970506
    outer loop
      vertex 10 29.8428 3.77002
      vertex -5.87928e-16 28.0134 3.31561
      vertex 10 28.0134 3.31561
    endloop
  endfacet
  facet normal 0 -0.241075 0.970506
    outer loop
      vertex -5.87928e-16 28.0134 3.31561
      vertex 10 29.8428 3.77002
      vertex -6.68505e-16 29.8428 3.77002
    endloop
  endfacet
  facet normal 0 -0.460974 0.887414
    outer loop
      vertex 10 56.1516 13.9481
      vertex -2.31922e-15 54.4789 13.0792
      vertex 10 54.4789 13.0792
    endloop
  endfacet
  facet normal 0 -0.460974 0.887414
    outer loop
      vertex -2.31922e-15 54.4789 13.0792
      vertex 10 56.1516 13.9481
      vertex -2.4733e-15 56.1516 13.9481
    endloop
  endfacet
  facet normal -0 0.179661 0.983729
    outer loop
      vertex -3.16852e-16 -20.6315 1.78688
      vertex 10 -22.4858 2.12553
      vertex 10 -20.6315 1.78688
    endloop
  endfacet
  facet normal 0 0.179661 0.983729
    outer loop
      vertex 10 -22.4858 2.12553
      vertex -3.16852e-16 -20.6315 1.78688
      vertex -3.76902e-16 -22.4858 2.12553
    endloop
  endfacet
  facet normal 0 -0.0549502 0.998489
    outer loop
      vertex 2 7.53486 0.236794
      vertex 10 5.65277 0.133216
      vertex 10 7.53486 0.236794
    endloop
  endfacet
  facet normal 0 -0.0549502 0.998489
    outer loop
      vertex 10 5.65277 0.133216
      vertex 2 7.53486 0.236794
      vertex 2 5.65277 0.133216
    endloop
  endfacet
  facet normal 0 -0.0706269 0.997503
    outer loop
      vertex 2 9.41509 0.369921
      vertex 10 7.53486 0.236794
      vertex 10 9.41509 0.369921
    endloop
  endfacet
  facet normal 0 -0.0706269 0.997503
    outer loop
      vertex 10 7.53486 0.236794
      vertex 2 9.41509 0.369921
      vertex 2 7.53486 0.236794
    endloop
  endfacet
  facet normal 0 -0.148672 0.988887
    outer loop
      vertex 2 18.7721 1.4774
      vertex 10 16.9081 1.19716
      vertex 10 18.7721 1.4774
    endloop
  endfacet
  facet normal 0 -0.148672 0.988887
    outer loop
      vertex 10 16.9081 1.19716
      vertex 2 18.7721 1.4774
      vertex 2 16.9081 1.19716
    endloop
  endfacet
  facet normal 0 -0.179661 0.983729
    outer loop
      vertex 10 22.4858 2.12553
      vertex -3.16852e-16 20.6315 1.78688
      vertex 10 20.6315 1.78688
    endloop
  endfacet
  facet normal 0 -0.179661 0.983729
    outer loop
      vertex -3.16852e-16 20.6315 1.78688
      vertex 10 22.4858 2.12553
      vertex -3.76902e-16 22.4858 2.12553
    endloop
  endfacet
  facet normal 0 -0.117538 0.993068
    outer loop
      vertex 2 15.04 0.946237
      vertex 10 13.1681 0.724686
      vertex 10 15.04 0.946237
    endloop
  endfacet
  facet normal 0 -0.117538 0.993068
    outer loop
      vertex 10 13.1681 0.724686
      vertex 2 15.04 0.946237
      vertex 2 13.1681 0.724686
    endloop
  endfacet
  facet normal 0 -0.375416 0.926857
    outer loop
      vertex 10 45.922 9.13446
      vertex -1.49425e-15 44.1749 8.42682
      vertex 10 44.1749 8.42682
    endloop
  endfacet
  facet normal 0 -0.375416 0.926857
    outer loop
      vertex -1.49425e-15 44.1749 8.42682
      vertex 10 45.922 9.13446
      vertex -1.61973e-15 45.922 9.13446
    endloop
  endfacet
  facet normal 0 -0.316477 0.9486
    outer loop
      vertex 10 38.8701 6.46976
      vertex -1.04145e-15 37.082 5.87322
      vertex 10 37.082 5.87322
    endloop
  endfacet
  facet normal 0 -0.316477 0.9486
    outer loop
      vertex -1.04145e-15 37.082 5.87322
      vertex 10 38.8701 6.46976
      vertex -1.14723e-15 38.8701 6.46976
    endloop
  endfacet
  facet normal 0 -0.256289 0.9666
    outer loop
      vertex 10 31.6648 4.25311
      vertex -6.68505e-16 29.8428 3.77002
      vertex 10 29.8428 3.77002
    endloop
  endfacet
  facet normal 0 -0.256289 0.9666
    outer loop
      vertex -6.68505e-16 29.8428 3.77002
      vertex 10 31.6648 4.25311
      vertex -7.54167e-16 31.6648 4.25311
    endloop
  endfacet
  facet normal 0 -0.210472 0.9776
    outer loop
      vertex 10 26.1772 2.88999
      vertex -4.42109e-16 24.3345 2.49326
      vertex 10 24.3345 2.49326
    endloop
  endfacet
  facet normal 0 -0.210472 0.9776
    outer loop
      vertex -4.42109e-16 24.3345 2.49326
      vertex 10 26.1772 2.88999
      vertex -5.12456e-16 26.1772 2.88999
    endloop
  endfacet
  facet normal 0 -0.41866 0.908143
    outer loop
      vertex 10 51.0935 11.4208
      vertex -1.88521e-15 49.3817 10.6316
      vertex 10 49.3817 10.6316
    endloop
  endfacet
  facet normal 0 -0.41866 0.908143
    outer loop
      vertex -1.88521e-15 49.3817 10.6316
      vertex 10 51.0935 11.4208
      vertex -2.02514e-15 51.0935 11.4208
    endloop
  endfacet
  facet normal 0 -0.502266 0.864713
    outer loop
      vertex 10 59.9935 16.077
      vertex -2.79533e-15 59.455 15.7642
      vertex 10 59.455 15.7642
    endloop
  endfacet
  facet normal 0 -0.502266 0.864713
    outer loop
      vertex -2.79533e-15 59.455 15.7642
      vertex 10 59.9935 16.077
      vertex -2.85079e-15 59.9935 16.077
    endloop
  endfacet
  facet normal 0 -0.432872 0.901455
    outer loop
      vertex 10 52.7927 12.2367
      vertex -2.02514e-15 51.0935 11.4208
      vertex 10 51.0935 11.4208
    endloop
  endfacet
  facet normal 0 -0.432872 0.901455
    outer loop
      vertex -2.02514e-15 51.0935 11.4208
      vertex 10 52.7927 12.2367
      vertex -2.16983e-15 52.7927 12.2367
    endloop
  endfacet
  facet normal 0 -0.488621 0.872496
    outer loop
      vertex 10 59.455 15.7642
      vertex -2.63201e-15 57.8104 14.8432
      vertex 10 57.8104 14.8432
    endloop
  endfacet
  facet normal 0 -0.488621 0.872496
    outer loop
      vertex -2.63201e-15 57.8104 14.8432
      vertex 10 59.455 15.7642
      vertex -2.79533e-15 59.455 15.7642
    endloop
  endfacet
  facet normal -0 0.460974 0.887414
    outer loop
      vertex -2.31922e-15 -54.4789 13.0792
      vertex 10 -56.1516 13.9481
      vertex 10 -54.4789 13.0792
    endloop
  endfacet
  facet normal 0 0.460974 0.887414
    outer loop
      vertex 10 -56.1516 13.9481
      vertex -2.31922e-15 -54.4789 13.0792
      vertex -2.4733e-15 -56.1516 13.9481
    endloop
  endfacet
  facet normal 0 -0.0862864 0.99627
    outer loop
      vertex 2 11.293 0.532565
      vertex 10 9.41509 0.369921
      vertex 10 11.293 0.532565
    endloop
  endfacet
  facet normal 0 -0.0862864 0.99627
    outer loop
      vertex 10 9.41509 0.369921
      vertex 2 11.293 0.532565
      vertex 2 9.41509 0.369921
    endloop
  endfacet
  facet normal 1.65009e-08 -0.164187 0.986429
    outer loop
      vertex 10 20.6315 1.78688
      vertex 2 19.5394 1.60511
      vertex 10 18.7721 1.4774
    endloop
  endfacet
  facet normal 0 -0.164187 0.986429
    outer loop
      vertex -3.16852e-16 20.6315 1.78688
      vertex 2 19.5394 1.60511
      vertex 10 20.6315 1.78688
    endloop
  endfacet
  facet normal 0 -0.164187 0.986429
    outer loop
      vertex 2 19.5394 1.60511
      vertex -3.16852e-16 20.6315 1.78688
      vertex -2.84619e-16 19.5394 1.60511
    endloop
  endfacet
  facet normal 0 -0.164187 0.986429
    outer loop
      vertex 10 18.7721 1.4774
      vertex 2 19.5394 1.60511
      vertex 2 18.7721 1.4774
    endloop
  endfacet
  facet normal 0 -0.133121 0.9911
    outer loop
      vertex 2 16.9081 1.19716
      vertex 10 15.04 0.946237
      vertex 10 16.9081 1.19716
    endloop
  endfacet
  facet normal 0 -0.133121 0.9911
    outer loop
      vertex 10 15.04 0.946237
      vertex 2 16.9081 1.19716
      vertex 2 15.04 0.946237
    endloop
  endfacet
  facet normal 0 -0.301538 0.953454
    outer loop
      vertex 10 37.082 5.87322
      vertex -9.40661e-16 35.2848 5.30484
      vertex 10 35.2848 5.30484
    endloop
  endfacet
  facet normal 0 -0.301538 0.953454
    outer loop
      vertex -9.40661e-16 35.2848 5.30484
      vertex 10 37.082 5.87322
      vertex -1.04145e-15 37.082 5.87322
    endloop
  endfacet
  facet normal 0 -0.346117 0.938191
    outer loop
      vertex 10 42.417 7.74672
      vertex -1.25797e-15 40.6486 7.09431
      vertex 10 40.6486 7.09431
    endloop
  endfacet
  facet normal 0 -0.346117 0.938191
    outer loop
      vertex -1.25797e-15 40.6486 7.09431
      vertex 10 42.417 7.74672
      vertex -1.37366e-15 42.417 7.74672
    endloop
  endfacet
  facet normal 0 -0.271441 0.962455
    outer loop
      vertex 10 33.4789 4.76476
      vertex -7.54167e-16 31.6648 4.25311
      vertex 10 31.6648 4.25311
    endloop
  endfacet
  facet normal 0 -0.271441 0.962455
    outer loop
      vertex -7.54167e-16 31.6648 4.25311
      vertex 10 33.4789 4.76476
      vertex -8.44893e-16 33.4789 4.76476
    endloop
  endfacet
  facet normal 0 -0.225801 0.974173
    outer loop
      vertex 10 28.0134 3.31561
      vertex -5.12456e-16 26.1772 2.88999
      vertex 10 26.1772 2.88999
    endloop
  endfacet
  facet normal 0 -0.225801 0.974173
    outer loop
      vertex -5.12456e-16 26.1772 2.88999
      vertex 10 28.0134 3.31561
      vertex -5.87928e-16 28.0134 3.31561
    endloop
  endfacet
  facet normal 0 -0.404343 0.914607
    outer loop
      vertex 10 49.3817 10.6316
      vertex -1.75006e-15 47.6577 9.86945
      vertex 10 47.6577 9.86945
    endloop
  endfacet
  facet normal 0 -0.404343 0.914607
    outer loop
      vertex -1.75006e-15 47.6577 9.86945
      vertex 10 49.3817 10.6316
      vertex -1.88521e-15 49.3817 10.6316
    endloop
  endfacet
  facet normal 0 -0.446979 0.894544
    outer loop
      vertex 10 54.4789 13.0792
      vertex -2.16983e-15 52.7927 12.2367
      vertex 10 52.7927 12.2367
    endloop
  endfacet
  facet normal 0 -0.446979 0.894544
    outer loop
      vertex -2.16983e-15 52.7927 12.2367
      vertex 10 54.4789 13.0792
      vertex -2.31922e-15 54.4789 13.0792
    endloop
  endfacet
  facet normal 0 -0.474856 0.880063
    outer loop
      vertex 10 57.8104 14.8432
      vertex -2.4733e-15 56.1516 13.9481
      vertex 10 56.1516 13.9481
    endloop
  endfacet
  facet normal 0 -0.474856 0.880063
    outer loop
      vertex -2.4733e-15 56.1516 13.9481
      vertex 10 57.8104 14.8432
      vertex -2.63201e-15 57.8104 14.8432
    endloop
  endfacet
  facet normal -0 0.0235598 0.999722
    outer loop
      vertex 2 -1.88488 0.0148048
      vertex 10 -3.76929 0.0592136
      vertex 10 -1.88488 0.0148048
    endloop
  endfacet
  facet normal 0 0.0235598 0.999722
    outer loop
      vertex 10 -3.76929 0.0592136
      vertex 2 -1.88488 0.0148048
      vertex 2 -3.76929 0.0592136
    endloop
  endfacet
  facet normal -0 0.0392598 0.999229
    outer loop
      vertex 2 -3.76929 0.0592136
      vertex 10 -5.65277 0.133216
      vertex 10 -3.76929 0.0592136
    endloop
  endfacet
  facet normal 0 0.0392598 0.999229
    outer loop
      vertex 10 -5.65277 0.133216
      vertex 2 -3.76929 0.0592136
      vertex 2 -5.65277 0.133216
    endloop
  endfacet
  facet normal -1.77316e-16 0.0078543 0.999969
    outer loop
      vertex 2 0 3.54643e-16
      vertex 10 -1.88488 0.0148048
      vertex 10 0 1.77321e-15
    endloop
  endfacet
  facet normal 0 0.0078543 0.999969
    outer loop
      vertex 10 -1.88488 0.0148048
      vertex 2 0 3.54643e-16
      vertex 2 -1.88488 0.0148048
    endloop
  endfacet
  facet normal 0 0.164187 0.986429
    outer loop
      vertex 2 -19.5394 1.60511
      vertex 10 -18.7721 1.4774
      vertex 2 -18.7721 1.4774
    endloop
  endfacet
  facet normal 1.65009e-08 0.164187 0.986429
    outer loop
      vertex 10 -18.7721 1.4774
      vertex 2 -19.5394 1.60511
      vertex 10 -20.6315 1.78688
    endloop
  endfacet
  facet normal 0 0.164187 0.986429
    outer loop
      vertex -3.16852e-16 -20.6315 1.78688
      vertex 2 -19.5394 1.60511
      vertex -2.84619e-16 -19.5394 1.60511
    endloop
  endfacet
  facet normal 0 0.164187 0.986429
    outer loop
      vertex 2 -19.5394 1.60511
      vertex -3.16852e-16 -20.6315 1.78688
      vertex 10 -20.6315 1.78688
    endloop
  endfacet
  facet normal -0 0.301538 0.953454
    outer loop
      vertex -9.40661e-16 -35.2848 5.30484
      vertex 10 -37.082 5.87322
      vertex 10 -35.2848 5.30484
    endloop
  endfacet
  facet normal 0 0.301538 0.953454
    outer loop
      vertex 10 -37.082 5.87322
      vertex -9.40661e-16 -35.2848 5.30484
      vertex -1.04145e-15 -37.082 5.87322
    endloop
  endfacet
  facet normal -0 0.331338 0.943512
    outer loop
      vertex -1.14723e-15 -38.8701 6.46976
      vertex 10 -40.6486 7.09431
      vertex 10 -38.8701 6.46976
    endloop
  endfacet
  facet normal 0 0.331338 0.943512
    outer loop
      vertex 10 -40.6486 7.09431
      vertex -1.14723e-15 -38.8701 6.46976
      vertex -1.25797e-15 -40.6486 7.09431
    endloop
  endfacet
  facet normal -0 0.360811 0.932639
    outer loop
      vertex -1.37366e-15 -42.417 7.74672
      vertex 10 -44.1749 8.42682
      vertex 10 -42.417 7.74672
    endloop
  endfacet
  facet normal 0 0.360811 0.932639
    outer loop
      vertex 10 -44.1749 8.42682
      vertex -1.37366e-15 -42.417 7.74672
      vertex -1.49425e-15 -44.1749 8.42682
    endloop
  endfacet
  facet normal -0 0.41866 0.908143
    outer loop
      vertex -1.88521e-15 -49.3817 10.6316
      vertex 10 -51.0935 11.4208
      vertex 10 -49.3817 10.6316
    endloop
  endfacet
  facet normal 0 0.41866 0.908143
    outer loop
      vertex 10 -51.0935 11.4208
      vertex -1.88521e-15 -49.3817 10.6316
      vertex -2.02514e-15 -51.0935 11.4208
    endloop
  endfacet
  facet normal 0 -0.0235598 0.999722
    outer loop
      vertex 2 3.76929 0.0592136
      vertex 10 1.88488 0.0148048
      vertex 10 3.76929 0.0592136
    endloop
  endfacet
  facet normal 0 -0.0235598 0.999722
    outer loop
      vertex 10 1.88488 0.0148048
      vertex 2 3.76929 0.0592136
      vertex 2 1.88488 0.0148048
    endloop
  endfacet
  facet normal 0 -0.360811 0.932639
    outer loop
      vertex 10 44.1749 8.42682
      vertex -1.37366e-15 42.417 7.74672
      vertex 10 42.417 7.74672
    endloop
  endfacet
  facet normal 0 -0.360811 0.932639
    outer loop
      vertex -1.37366e-15 42.417 7.74672
      vertex 10 44.1749 8.42682
      vertex -1.49425e-15 44.1749 8.42682
    endloop
  endfacet
  facet normal -0 0.0706269 0.997503
    outer loop
      vertex 2 -7.53486 0.236794
      vertex 10 -9.41509 0.369921
      vertex 10 -7.53486 0.236794
    endloop
  endfacet
  facet normal 0 0.0706269 0.997503
    outer loop
      vertex 10 -9.41509 0.369921
      vertex 2 -7.53486 0.236794
      vertex 2 -9.41509 0.369921
    endloop
  endfacet
  facet normal -0 0.148672 0.988887
    outer loop
      vertex 2 -16.9081 1.19716
      vertex 10 -18.7721 1.4774
      vertex 10 -16.9081 1.19716
    endloop
  endfacet
  facet normal 0 0.148672 0.988887
    outer loop
      vertex 10 -18.7721 1.4774
      vertex 2 -16.9081 1.19716
      vertex 2 -18.7721 1.4774
    endloop
  endfacet
  facet normal -0 0.210472 0.9776
    outer loop
      vertex -4.42109e-16 -24.3345 2.49326
      vertex 10 -26.1772 2.88999
      vertex 10 -24.3345 2.49326
    endloop
  endfacet
  facet normal 0 0.210472 0.9776
    outer loop
      vertex 10 -26.1772 2.88999
      vertex -4.42109e-16 -24.3345 2.49326
      vertex -5.12456e-16 -26.1772 2.88999
    endloop
  endfacet
  facet normal -0 0.19509 0.980785
    outer loop
      vertex -3.76902e-16 -22.4858 2.12553
      vertex 10 -24.3345 2.49326
      vertex 10 -22.4858 2.12553
    endloop
  endfacet
  facet normal 0 0.19509 0.980785
    outer loop
      vertex 10 -24.3345 2.49326
      vertex -3.76902e-16 -22.4858 2.12553
      vertex -4.42109e-16 -24.3345 2.49326
    endloop
  endfacet
  facet normal -0 0.271441 0.962455
    outer loop
      vertex -7.54167e-16 -31.6648 4.25311
      vertex 10 -33.4789 4.76476
      vertex 10 -31.6648 4.25311
    endloop
  endfacet
  facet normal 0 0.271441 0.962455
    outer loop
      vertex 10 -33.4789 4.76476
      vertex -7.54167e-16 -31.6648 4.25311
      vertex -8.44893e-16 -33.4789 4.76476
    endloop
  endfacet
  facet normal -0 0.225801 0.974173
    outer loop
      vertex -5.12456e-16 -26.1772 2.88999
      vertex 10 -28.0134 3.31561
      vertex 10 -26.1772 2.88999
    endloop
  endfacet
  facet normal 0 0.225801 0.974173
    outer loop
      vertex 10 -28.0134 3.31561
      vertex -5.12456e-16 -26.1772 2.88999
      vertex -5.87928e-16 -28.0134 3.31561
    endloop
  endfacet
  facet normal -0 0.241075 0.970506
    outer loop
      vertex -5.87928e-16 -28.0134 3.31561
      vertex 10 -29.8428 3.77002
      vertex 10 -28.0134 3.31561
    endloop
  endfacet
  facet normal 0 0.241075 0.970506
    outer loop
      vertex 10 -29.8428 3.77002
      vertex -5.87928e-16 -28.0134 3.31561
      vertex -6.68505e-16 -29.8428 3.77002
    endloop
  endfacet
  facet normal -0 0.286525 0.958073
    outer loop
      vertex -8.44893e-16 -33.4789 4.76476
      vertex 10 -35.2848 5.30484
      vertex 10 -33.4789 4.76476
    endloop
  endfacet
  facet normal 0 0.286525 0.958073
    outer loop
      vertex 10 -35.2848 5.30484
      vertex -8.44893e-16 -33.4789 4.76476
      vertex -9.40661e-16 -35.2848 5.30484
    endloop
  endfacet
  facet normal -0 0.316477 0.9486
    outer loop
      vertex -1.04145e-15 -37.082 5.87322
      vertex 10 -38.8701 6.46976
      vertex 10 -37.082 5.87322
    endloop
  endfacet
  facet normal 0 0.316477 0.9486
    outer loop
      vertex 10 -38.8701 6.46976
      vertex -1.04145e-15 -37.082 5.87322
      vertex -1.14723e-15 -38.8701 6.46976
    endloop
  endfacet
  facet normal -0 0.346117 0.938191
    outer loop
      vertex -1.25797e-15 -40.6486 7.09431
      vertex 10 -42.417 7.74672
      vertex 10 -40.6486 7.09431
    endloop
  endfacet
  facet normal 0 0.346117 0.938191
    outer loop
      vertex 10 -42.417 7.74672
      vertex -1.25797e-15 -40.6486 7.09431
      vertex -1.37366e-15 -42.417 7.74672
    endloop
  endfacet
  facet normal -0 0.404343 0.914607
    outer loop
      vertex -1.75006e-15 -47.6577 9.86945
      vertex 10 -49.3817 10.6316
      vertex 10 -47.6577 9.86945
    endloop
  endfacet
  facet normal 0 0.404343 0.914607
    outer loop
      vertex 10 -49.3817 10.6316
      vertex -1.75006e-15 -47.6577 9.86945
      vertex -1.88521e-15 -49.3817 10.6316
    endloop
  endfacet
  facet normal -0 0.101924 0.994792
    outer loop
      vertex 2 -11.293 0.532565
      vertex 10 -13.1681 0.724686
      vertex 10 -11.293 0.532565
    endloop
  endfacet
  facet normal 0 0.101924 0.994792
    outer loop
      vertex 10 -13.1681 0.724686
      vertex 2 -11.293 0.532565
      vertex 2 -13.1681 0.724686
    endloop
  endfacet
  facet normal -0 0.133121 0.9911
    outer loop
      vertex 2 -15.04 0.946237
      vertex 10 -16.9081 1.19716
      vertex 10 -15.04 0.946237
    endloop
  endfacet
  facet normal 0 0.133121 0.9911
    outer loop
      vertex 10 -16.9081 1.19716
      vertex 2 -15.04 0.946237
      vertex 2 -16.9081 1.19716
    endloop
  endfacet
  facet normal -0 0.117538 0.993068
    outer loop
      vertex 2 -13.1681 0.724686
      vertex 10 -15.04 0.946237
      vertex 10 -13.1681 0.724686
    endloop
  endfacet
  facet normal 0 0.117538 0.993068
    outer loop
      vertex 10 -15.04 0.946237
      vertex 2 -13.1681 0.724686
      vertex 2 -15.04 0.946237
    endloop
  endfacet
  facet normal -0 0.0549502 0.998489
    outer loop
      vertex 2 -5.65277 0.133216
      vertex 10 -7.53486 0.236794
      vertex 10 -5.65277 0.133216
    endloop
  endfacet
  facet normal 0 0.0549502 0.998489
    outer loop
      vertex 10 -7.53486 0.236794
      vertex 2 -5.65277 0.133216
      vertex 2 -7.53486 0.236794
    endloop
  endfacet
  facet normal -0 0.256289 0.9666
    outer loop
      vertex -6.68505e-16 -29.8428 3.77002
      vertex 10 -31.6648 4.25311
      vertex 10 -29.8428 3.77002
    endloop
  endfacet
  facet normal 0 0.256289 0.9666
    outer loop
      vertex 10 -31.6648 4.25311
      vertex -6.68505e-16 -29.8428 3.77002
      vertex -7.54167e-16 -31.6648 4.25311
    endloop
  endfacet
  facet normal -0 0.432872 0.901455
    outer loop
      vertex -2.02514e-15 -51.0935 11.4208
      vertex 10 -52.7927 12.2367
      vertex 10 -51.0935 11.4208
    endloop
  endfacet
  facet normal 0 0.432872 0.901455
    outer loop
      vertex 10 -52.7927 12.2367
      vertex -2.02514e-15 -51.0935 11.4208
      vertex -2.16983e-15 -52.7927 12.2367
    endloop
  endfacet
  facet normal -0 0.446979 0.894544
    outer loop
      vertex -2.16983e-15 -52.7927 12.2367
      vertex 10 -54.4789 13.0792
      vertex 10 -52.7927 12.2367
    endloop
  endfacet
  facet normal 0 0.446979 0.894544
    outer loop
      vertex 10 -54.4789 13.0792
      vertex -2.16983e-15 -52.7927 12.2367
      vertex -2.31922e-15 -54.4789 13.0792
    endloop
  endfacet
  facet normal -0 0.389928 0.920845
    outer loop
      vertex -1.61973e-15 -45.922 9.13446
      vertex 10 -47.6577 9.86945
      vertex 10 -45.922 9.13446
    endloop
  endfacet
  facet normal 0 0.389928 0.920845
    outer loop
      vertex 10 -47.6577 9.86945
      vertex -1.61973e-15 -45.922 9.13446
      vertex -1.75006e-15 -47.6577 9.86945
    endloop
  endfacet
  facet normal -0 0.0862864 0.99627
    outer loop
      vertex 2 -9.41509 0.369921
      vertex 10 -11.293 0.532565
      vertex 10 -9.41509 0.369921
    endloop
  endfacet
  facet normal 0 0.0862864 0.99627
    outer loop
      vertex 10 -11.293 0.532565
      vertex 2 -9.41509 0.369921
      vertex 2 -11.293 0.532565
    endloop
  endfacet
  facet normal -0 0.488621 0.872496
    outer loop
      vertex -2.63201e-15 -57.8104 14.8432
      vertex 10 -59.455 15.7642
      vertex 10 -57.8104 14.8432
    endloop
  endfacet
  facet normal 0 0.488621 0.872496
    outer loop
      vertex 10 -59.455 15.7642
      vertex -2.63201e-15 -57.8104 14.8432
      vertex -2.79533e-15 -59.455 15.7642
    endloop
  endfacet
  facet normal -0 0.502266 0.864713
    outer loop
      vertex -2.79533e-15 -59.455 15.7642
      vertex 10 -59.9935 16.077
      vertex 10 -59.455 15.7642
    endloop
  endfacet
  facet normal 0 0.502266 0.864713
    outer loop
      vertex 10 -59.9935 16.077
      vertex -2.79533e-15 -59.455 15.7642
      vertex -2.85079e-15 -59.9935 16.077
    endloop
  endfacet
  facet normal -0 0.474856 0.880063
    outer loop
      vertex -2.4733e-15 -56.1516 13.9481
      vertex 10 -57.8104 14.8432
      vertex 10 -56.1516 13.9481
    endloop
  endfacet
  facet normal 0 0.474856 0.880063
    outer loop
      vertex 10 -57.8104 14.8432
      vertex -2.4733e-15 -56.1516 13.9481
      vertex -2.63201e-15 -57.8104 14.8432
    endloop
  endfacet
  facet normal 0 0.866025 -0.5
    outer loop
      vertex 10 46.9445 -10
      vertex -2.85079e-15 62 16.077
      vertex 10 62 16.077
    endloop
  endfacet
  facet normal 0 0.866025 -0.5
    outer loop
      vertex -2.85079e-15 62 16.077
      vertex 10 46.9445 -10
      vertex 1.77321e-15 46.9445 -10
    endloop
  endfacet
  facet normal 0 -0.866025 -0.5
    outer loop
      vertex 1.77321e-15 -46.9445 -10
      vertex 10 -62 16.077
      vertex -2.85079e-15 -62 16.077
    endloop
  endfacet
  facet normal 0 -0.866025 -0.5
    outer loop
      vertex 10 -62 16.077
      vertex 1.77321e-15 -46.9445 -10
      vertex 10 -46.9445 -10
    endloop
  endfacet
  facet normal -1 0 0
    outer loop
      vertex -5 23.4722 -10
      vertex -5 14.9178 15
      vertex -5 15 15
    endloop
  endfacet
  facet normal -1 0 0
    outer loop
      vertex -5 14.9178 15
      vertex -5 14.2658 19.6353
      vertex -5 14.9178 16.5679
    endloop
  endfacet
  facet normal -1 0 0
    outer loop
      vertex -5 14.9178 15
      vertex -5 12.9904 22.5
      vertex -5 14.2658 19.6353
    endloop
  endfacet
  facet normal -1 0 0
    outer loop
      vertex -5 14.9178 15
      vertex -5 11.1472 25.037
      vertex -5 12.9904 22.5
    endloop
  endfacet
  facet normal -1 0 0
    outer loop
      vertex -5 -14.9178 15
      vertex -5 14.9178 15
      vertex -5 23.4722 -10
    endloop
  endfacet
  facet normal -1 0 0
    outer loop
      vertex -5 14.9178 15
      vertex -5 -14.9178 15
      vertex -5 11.1472 25.037
    endloop
  endfacet
  facet normal -1 -0 0
    outer loop
      vertex -5 11.1472 25.037
      vertex -5 -14.9178 15
      vertex -5 8.81677 27.1353
    endloop
  endfacet
  facet normal -1 -0 0
    outer loop
      vertex -5 8.81677 27.1353
      vertex -5 -14.9178 15
      vertex -5 6.10104 28.7032
    endloop
  endfacet
  facet normal -1 -0 0
    outer loop
      vertex -5 6.10104 28.7032
      vertex -5 -14.9178 15
      vertex -5 3.11867 29.6722
    endloop
  endfacet
  facet normal -1 -0 0
    outer loop
      vertex -5 3.11867 29.6722
      vertex -5 -14.9178 15
      vertex -5 0 30
    endloop
  endfacet
  facet normal -1 0 0
    outer loop
      vertex -5 0 30
      vertex -5 -14.9178 15
      vertex -5 -3.11867 29.6722
    endloop
  endfacet
  facet normal -1 0 0
    outer loop
      vertex -5 -3.11867 29.6722
      vertex -5 -14.9178 15
      vertex -5 -6.10104 28.7032
    endloop
  endfacet
  facet normal -1 0 0
    outer loop
      vertex -5 -6.10104 28.7032
      vertex -5 -14.9178 15
      vertex -5 -8.81677 27.1353
    endloop
  endfacet
  facet normal -1 0 0
    outer loop
      vertex -5 -8.81677 27.1353
      vertex -5 -14.9178 15
      vertex -5 -11.1472 25.037
    endloop
  endfacet
  facet normal -1 0 0
    outer loop
      vertex -5 -11.1472 25.037
      vertex -5 -14.9178 15
      vertex -5 -12.9904 22.5
    endloop
  endfacet
  facet normal -1 0 0
    outer loop
      vertex -5 -12.9904 22.5
      vertex -5 -14.9178 15
      vertex -5 -14.2658 19.6353
    endloop
  endfacet
  facet normal -1 0 0
    outer loop
      vertex -5 -23.4722 -10
      vertex -5 -14.9178 15
      vertex -5 23.4722 -10
    endloop
  endfacet
  facet normal -1 -0 0
    outer loop
      vertex -5 -14.9178 15
      vertex -5 -23.4722 -10
      vertex -5 -15 15
    endloop
  endfacet
  facet normal -1 0 0
    outer loop
      vertex -5 -14.2658 19.6353
      vertex -5 -14.9178 15
      vertex -5 -14.9178 16.5679
    endloop
  endfacet
  facet normal 1 0 0
    outer loop
      vertex 2 14.9178 16.5679
      vertex 2 14.2658 19.6353
      vertex 2 14.9178 15
    endloop
  endfacet
  facet normal 1 0 0
    outer loop
      vertex 2 15 15
      vertex 2 18.7721 1.4774
      vertex 2 19.5394 1.60511
    endloop
  endfacet
  facet normal 1 0 0
    outer loop
      vertex 2 18.7721 1.4774
      vertex 2 15 15
      vertex 2 16.9081 1.19716
    endloop
  endfacet
  facet normal 1 0 0
    outer loop
      vertex 2 16.9081 1.19716
      vertex 2 15 15
      vertex 2 15.04 0.946237
    endloop
  endfacet
  facet normal 1 -0 0
    outer loop
      vertex 2 14.9178 15
      vertex 2 15.04 0.946237
      vertex 2 15 15
    endloop
  endfacet
  facet normal 1 0 0
    outer loop
      vertex 2 12.9904 22.5
      vertex 2 14.9178 15
      vertex 2 14.2658 19.6353
    endloop
  endfacet
  facet normal 1 0 0
    outer loop
      vertex 2 14.9178 15
      vertex 2 13.1681 0.724686
      vertex 2 15.04 0.946237
    endloop
  endfacet
  facet normal 1 0 0
    outer loop
      vertex 2 11.1472 25.037
      vertex 2 14.9178 15
      vertex 2 12.9904 22.5
    endloop
  endfacet
  facet normal 1 0 0
    outer loop
      vertex 2 14.9178 15
      vertex 2 11.293 0.532565
      vertex 2 13.1681 0.724686
    endloop
  endfacet
  facet normal 1 0 0
    outer loop
      vertex 2 14.9178 15
      vertex 2 11.1472 25.037
      vertex 2 0 3.54643e-16
    endloop
  endfacet
  facet normal 1 0 0
    outer loop
      vertex 2 14.9178 15
      vertex 2 9.41509 0.369921
      vertex 2 11.293 0.532565
    endloop
  endfacet
  facet normal 1 0 0
    outer loop
      vertex 2 0 3.54643e-16
      vertex 2 11.1472 25.037
      vertex 2 8.81677 27.1353
    endloop
  endfacet
  facet normal 1 0 0
    outer loop
      vertex 2 14.9178 15
      vertex 2 7.53486 0.236794
      vertex 2 9.41509 0.369921
    endloop
  endfacet
  facet normal 1 0 0
    outer loop
      vertex 2 0 3.54643e-16
      vertex 2 8.81677 27.1353
      vertex 2 6.10104 28.7032
    endloop
  endfacet
  facet normal 1 0 0
    outer loop
      vertex 2 14.9178 15
      vertex 2 5.65277 0.133216
      vertex 2 7.53486 0.236794
    endloop
  endfacet
  facet normal 1 0 0
    outer loop
      vertex 2 14.9178 15
      vertex 2 3.76929 0.0592136
      vertex 2 5.65277 0.133216
    endloop
  endfacet
  facet normal 1 0 0
    outer loop
      vertex 2 0 3.54643e-16
      vertex 2 6.10104 28.7032
      vertex 2 3.11867 29.6722
    endloop
  endfacet
  facet normal 1 0 0
    outer loop
      vertex 2 14.9178 15
      vertex 2 1.88488 0.0148048
      vertex 2 3.76929 0.0592136
    endloop
  endfacet
  facet normal 1 0 0
    outer loop
      vertex 2 0 3.54643e-16
      vertex 2 3.11867 29.6722
      vertex 2 0 30
    endloop
  endfacet
  facet normal 1 0 0
    outer loop
      vertex 2 14.9178 15
      vertex 2 0 3.54643e-16
      vertex 2 1.88488 0.0148048
    endloop
  endfacet
  facet normal 1 -0 0
    outer loop
      vertex 2 -14.9178 15
      vertex 2 0 3.54643e-16
      vertex 2 0 30
    endloop
  endfacet
  facet normal 1 0 0
    outer loop
      vertex 2 -14.9178 15
      vertex 2 0 30
      vertex 2 -3.11867 29.6722
    endloop
  endfacet
  facet normal 1 0 0
    outer loop
      vertex 2 0 3.54643e-16
      vertex 2 -14.9178 15
      vertex 2 -1.88488 0.0148048
    endloop
  endfacet
  facet normal 1 0 0
    outer loop
      vertex 2 -1.88488 0.0148048
      vertex 2 -14.9178 15
      vertex 2 -3.76929 0.0592136
    endloop
  endfacet
  facet normal 1 0 0
    outer loop
      vertex 2 -14.9178 15
      vertex 2 -3.11867 29.6722
      vertex 2 -6.10104 28.7032
    endloop
  endfacet
  facet normal 1 0 0
    outer loop
      vertex 2 -3.76929 0.0592136
      vertex 2 -14.9178 15
      vertex 2 -5.65277 0.133216
    endloop
  endfacet
  facet normal 1 0 0
    outer loop
      vertex 2 -14.9178 15
      vertex 2 -6.10104 28.7032
      vertex 2 -8.81677 27.1353
    endloop
  endfacet
  facet normal 1 0 0
    outer loop
      vertex 2 -5.65277 0.133216
      vertex 2 -14.9178 15
      vertex 2 -7.53486 0.236794
    endloop
  endfacet
  facet normal 1 0 0
    outer loop
      vertex 2 -14.9178 15
      vertex 2 -8.81677 27.1353
      vertex 2 -11.1472 25.037
    endloop
  endfacet
  facet normal 1 0 0
    outer loop
      vertex 2 -7.53486 0.236794
      vertex 2 -14.9178 15
      vertex 2 -9.41509 0.369921
    endloop
  endfacet
  facet normal 1 0 0
    outer loop
      vertex 2 -14.9178 15
      vertex 2 -11.1472 25.037
      vertex 2 -12.9904 22.5
    endloop
  endfacet
  facet normal 1 0 0
    outer loop
      vertex 2 -9.41509 0.369921
      vertex 2 -14.9178 15
      vertex 2 -11.293 0.532565
    endloop
  endfacet
  facet normal 1 0 0
    outer loop
      vertex 2 -14.9178 15
      vertex 2 -12.9904 22.5
      vertex 2 -14.2658 19.6353
    endloop
  endfacet
  facet normal 1 0 0
    outer loop
      vertex 2 -14.9178 15
      vertex 2 -14.2658 19.6353
      vertex 2 -14.9178 16.5679
    endloop
  endfacet
  facet normal 1 0 0
    outer loop
      vertex 2 -11.293 0.532565
      vertex 2 -14.9178 15
      vertex 2 -13.1681 0.724686
    endloop
  endfacet
  facet normal 1 0 0
    outer loop
      vertex 2 -15.04 0.946237
      vertex 2 -14.9178 15
      vertex 2 -15 15
    endloop
  endfacet
  facet normal 1 0 0
    outer loop
      vertex 2 -14.9178 15
      vertex 2 -15.04 0.946237
      vertex 2 -13.1681 0.724686
    endloop
  endfacet
  facet normal 1 0 0
    outer loop
      vertex 2 -15 15
      vertex 2 -16.9081 1.19716
      vertex 2 -15.04 0.946237
    endloop
  endfacet
  facet normal 1 0 0
    outer loop
      vertex 2 -15 15
      vertex 2 -18.7721 1.4774
      vertex 2 -16.9081 1.19716
    endloop
  endfacet
  facet normal 1 0 -0
    outer loop
      vertex 2 -18.7721 1.4774
      vertex 2 -15 15
      vertex 2 -19.5394 1.60511
    endloop
  endfacet
  facet normal -0 0.947093 0.32096
    outer loop
      vertex -2.84619e-16 19.5394 1.60511
      vertex 2 15 15
      vertex 2 19.5394 1.60511
    endloop
  endfacet
  facet normal 0 0.947093 0.32096
    outer loop
      vertex 2 15 15
      vertex -2.84619e-16 19.5394 1.60511
      vertex -5 15 15
    endloop
  endfacet
  facet normal -0 0.947093 0.32096
    outer loop
      vertex -5 23.4722 -10
      vertex -2.84619e-16 19.5394 1.60511
      vertex 1.77321e-15 23.4722 -10
    endloop
  endfacet
  facet normal -2.64004e-08 0.947093 0.32096
    outer loop
      vertex -2.84619e-16 19.5394 1.60511
      vertex -5 23.4722 -10
      vertex -5 15 15
    endloop
  endfacet
  facet normal -0 0 1
    outer loop
      vertex -5 15 15
      vertex 2 14.9178 15
      vertex 2 15 15
    endloop
  endfacet
  facet normal 0 0 1
    outer loop
      vertex 2 14.9178 15
      vertex -5 15 15
      vertex -5 14.9178 15
    endloop
  endfacet
  facet normal 0 1 -0
    outer loop
      vertex 2 14.9178 15
      vertex -5 14.9178 16.5679
      vertex 2 14.9178 16.5679
    endloop
  endfacet
  facet normal 0 1 0
    outer loop
      vertex -5 14.9178 16.5679
      vertex 2 14.9178 15
      vertex -5 14.9178 15
    endloop
  endfacet
  facet normal 0 0.978148 0.20791
    outer loop
      vertex 2 14.9178 16.5679
      vertex -5 14.2658 19.6353
      vertex 2 14.2658 19.6353
    endloop
  endfacet
  facet normal 0 0.978148 0.20791
    outer loop
      vertex -5 14.2658 19.6353
      vertex 2 14.9178 16.5679
      vertex -5 14.9178 16.5679
    endloop
  endfacet
  facet normal 0 0.913545 0.406738
    outer loop
      vertex 2 14.2658 19.6353
      vertex -5 12.9904 22.5
      vertex 2 12.9904 22.5
    endloop
  endfacet
  facet normal 0 0.913545 0.406738
    outer loop
      vertex -5 12.9904 22.5
      vertex 2 14.2658 19.6353
      vertex -5 14.2658 19.6353
    endloop
  endfacet
  facet normal 0 0.80902 0.587782
    outer loop
      vertex 2 12.9904 22.5
      vertex -5 11.1472 25.037
      vertex 2 11.1472 25.037
    endloop
  endfacet
  facet normal 0 0.80902 0.587782
    outer loop
      vertex -5 11.1472 25.037
      vertex 2 12.9904 22.5
      vertex -5 12.9904 22.5
    endloop
  endfacet
  facet normal -0 0.66913 0.743145
    outer loop
      vertex -5 11.1472 25.037
      vertex 2 8.81677 27.1353
      vertex 2 11.1472 25.037
    endloop
  endfacet
  facet normal 0 0.66913 0.743145
    outer loop
      vertex 2 8.81677 27.1353
      vertex -5 11.1472 25.037
      vertex -5 8.81677 27.1353
    endloop
  endfacet
  facet normal -0 0.499998 0.866027
    outer loop
      vertex -5 8.81677 27.1353
      vertex 2 6.10104 28.7032
      vertex 2 8.81677 27.1353
    endloop
  endfacet
  facet normal 0 0.499998 0.866027
    outer loop
      vertex 2 6.10104 28.7032
      vertex -5 8.81677 27.1353
      vertex -5 6.10104 28.7032
    endloop
  endfacet
  facet normal -0 0.309019 0.951056
    outer loop
      vertex -5 6.10104 28.7032
      vertex 2 3.11867 29.6722
      vertex 2 6.10104 28.7032
    endloop
  endfacet
  facet normal 0 0.309019 0.951056
    outer loop
      vertex 2 3.11867 29.6722
      vertex -5 6.10104 28.7032
      vertex -5 3.11867 29.6722
    endloop
  endfacet
  facet normal -0 0.104525 0.994522
    outer loop
      vertex -5 3.11867 29.6722
      vertex 2 0 30
      vertex 2 3.11867 29.6722
    endloop
  endfacet
  facet normal 0 0.104525 0.994522
    outer loop
      vertex 2 0 30
      vertex -5 3.11867 29.6722
      vertex -5 0 30
    endloop
  endfacet
  facet normal 0 -0.104525 0.994522
    outer loop
      vertex -5 0 30
      vertex 2 -3.11867 29.6722
      vertex 2 0 30
    endloop
  endfacet
  facet normal 0 -0.104525 0.994522
    outer loop
      vertex 2 -3.11867 29.6722
      vertex -5 0 30
      vertex -5 -3.11867 29.6722
    endloop
  endfacet
  facet normal 0 -0.309019 0.951056
    outer loop
      vertex -5 -3.11867 29.6722
      vertex 2 -6.10104 28.7032
      vertex 2 -3.11867 29.6722
    endloop
  endfacet
  facet normal 0 -0.309019 0.951056
    outer loop
      vertex 2 -6.10104 28.7032
      vertex -5 -3.11867 29.6722
      vertex -5 -6.10104 28.7032
    endloop
  endfacet
  facet normal 0 -0.499998 0.866027
    outer loop
      vertex -5 -6.10104 28.7032
      vertex 2 -8.81677 27.1353
      vertex 2 -6.10104 28.7032
    endloop
  endfacet
  facet normal 0 -0.499998 0.866027
    outer loop
      vertex 2 -8.81677 27.1353
      vertex -5 -6.10104 28.7032
      vertex -5 -8.81677 27.1353
    endloop
  endfacet
  facet normal 0 -0.66913 0.743145
    outer loop
      vertex -5 -8.81677 27.1353
      vertex 2 -11.1472 25.037
      vertex 2 -8.81677 27.1353
    endloop
  endfacet
  facet normal 0 -0.66913 0.743145
    outer loop
      vertex 2 -11.1472 25.037
      vertex -5 -8.81677 27.1353
      vertex -5 -11.1472 25.037
    endloop
  endfacet
  facet normal 0 -0.80902 0.587782
    outer loop
      vertex -5 -12.9904 22.5
      vertex 2 -11.1472 25.037
      vertex -5 -11.1472 25.037
    endloop
  endfacet
  facet normal 0 -0.80902 0.587782
    outer loop
      vertex 2 -11.1472 25.037
      vertex -5 -12.9904 22.5
      vertex 2 -12.9904 22.5
    endloop
  endfacet
  facet normal 0 -0.913545 0.406738
    outer loop
      vertex -5 -14.2658 19.6353
      vertex 2 -12.9904 22.5
      vertex -5 -12.9904 22.5
    endloop
  endfacet
  facet normal 0 -0.913545 0.406738
    outer loop
      vertex 2 -12.9904 22.5
      vertex -5 -14.2658 19.6353
      vertex 2 -14.2658 19.6353
    endloop
  endfacet
  facet normal 0 -0.978148 0.20791
    outer loop
      vertex -5 -14.9178 16.5679
      vertex 2 -14.2658 19.6353
      vertex -5 -14.2658 19.6353
    endloop
  endfacet
  facet normal 0 -0.978148 0.20791
    outer loop
      vertex 2 -14.2658 19.6353
      vertex -5 -14.9178 16.5679
      vertex 2 -14.9178 16.5679
    endloop
  endfacet
  facet normal 0 -1 0
    outer loop
      vertex -5 -14.9178 15
      vertex 2 -14.9178 16.5679
      vertex -5 -14.9178 16.5679
    endloop
  endfacet
  facet normal 0 -1 -0
    outer loop
      vertex 2 -14.9178 16.5679
      vertex -5 -14.9178 15
      vertex 2 -14.9178 15
    endloop
  endfacet
  facet normal -0 0 1
    outer loop
      vertex -5 -14.9178 15
      vertex 2 -15 15
      vertex 2 -14.9178 15
    endloop
  endfacet
  facet normal 0 0 1
    outer loop
      vertex 2 -15 15
      vertex -5 -14.9178 15
      vertex -5 -15 15
    endloop
  endfacet
  facet normal 0 -0.947093 0.32096
    outer loop
      vertex -5 -15 15
      vertex -2.84619e-16 -19.5394 1.60511
      vertex 2 -15 15
    endloop
  endfacet
  facet normal -2.64004e-08 -0.947093 0.32096
    outer loop
      vertex -5 -23.4722 -10
      vertex -2.84619e-16 -19.5394 1.60511
      vertex -5 -15 15
    endloop
  endfacet
  facet normal 0 -0.947093 0.32096
    outer loop
      vertex -2.84619e-16 -19.5394 1.60511
      vertex -5 -23.4722 -10
      vertex 1.77321e-15 -23.4722 -10
    endloop
  endfacet
  facet normal 0 -0.947093 0.32096
    outer loop
      vertex 2 -15 15
      vertex -2.84619e-16 -19.5394 1.60511
      vertex 2 -19.5394 1.60511
    endloop
  endfacet
endsolid OpenSCAD_Model
