solid OpenSCAD_Model
  facet normal 0 0.965925 -0.258822
    outer loop
      vertex 15 -45.968 1.51924
      vertex -4.46714e-16 -45.7 2.51924
      vertex 15 -45.7 2.51924
    endloop
  endfacet
  facet normal 0 0.965925 -0.258822
    outer loop
      vertex -4.46714e-16 -45.7 2.51924
      vertex 15 -45.968 1.51924
      vertex -2.69393e-16 -45.968 1.51924
    endloop
  endfacet
  facet normal 0 0.258819 -0.965926
    outer loop
      vertex -5.76522e-16 -44.968 3.25129
      vertex 15 -43.968 3.51924
      vertex 15 -44.968 3.25129
    endloop
  endfacet
  facet normal 0 0.258819 -0.965926
    outer loop
      vertex 15 -43.968 3.51924
      vertex -5.76522e-16 -44.968 3.25129
      vertex -6.24036e-16 -43.968 3.51924
    endloop
  endfacet
  facet normal 0 0.965925 0.258822
    outer loop
      vertex 15 -45.7 0.519239
      vertex -2.69393e-16 -45.968 1.51924
      vertex 15 -45.968 1.51924
    endloop
  endfacet
  facet normal 0 0.965925 0.258822
    outer loop
      vertex -2.69393e-16 -45.968 1.51924
      vertex 15 -45.7 0.519239
      vertex -9.20721e-17 -45.7 0.519239
    endloop
  endfacet
  facet normal 0 0.707108 -0.707105
    outer loop
      vertex 15 -45.7 2.51924
      vertex -5.76522e-16 -44.968 3.25129
      vertex 15 -44.968 3.25129
    endloop
  endfacet
  facet normal 0 0.707108 -0.707105
    outer loop
      vertex -5.76522e-16 -44.968 3.25129
      vertex 15 -45.7 2.51924
      vertex -4.46714e-16 -45.7 2.51924
    endloop
  endfacet
  facet normal -0 0.25882 0.965926
    outer loop
      vertex 8.52493e-17 -43.968 -0.480762
      vertex 15 -44.968 -0.212812
      vertex 15 -43.968 -0.480762
    endloop
  endfacet
  facet normal 0 0.25882 0.965926
    outer loop
      vertex 15 -44.968 -0.212812
      vertex 8.52493e-17 -43.968 -0.480762
      vertex 3.77361e-17 -44.968 -0.212812
    endloop
  endfacet
  facet normal 0 0.707108 0.707105
    outer loop
      vertex 15 -44.968 -0.212812
      vertex -9.20721e-17 -45.7 0.519239
      vertex 15 -45.7 0.519239
    endloop
  endfacet
  facet normal 0 0.707108 0.707105
    outer loop
      vertex -9.20721e-17 -45.7 0.519239
      vertex 15 -44.968 -0.212812
      vertex 3.77361e-17 -44.968 -0.212812
    endloop
  endfacet
  facet normal 0 -0.965926 -0.258818
    outer loop
      vertex -2.69393e-16 -38.468 1.51924
      vertex 15 -38.7359 2.51924
      vertex -4.46714e-16 -38.7359 2.51924
    endloop
  endfacet
  facet normal 0 -0.965926 -0.258818
    outer loop
      vertex 15 -38.7359 2.51924
      vertex -2.69393e-16 -38.468 1.51924
      vertex 15 -38.468 1.51924
    endloop
  endfacet
  facet normal 0 -0.965926 0.258818
    outer loop
      vertex -9.20719e-17 -38.7359 0.519238
      vertex 15 -38.468 1.51924
      vertex -2.69393e-16 -38.468 1.51924
    endloop
  endfacet
  facet normal 0 -0.965926 0.258818
    outer loop
      vertex 15 -38.468 1.51924
      vertex -9.20719e-17 -38.7359 0.519238
      vertex 15 -38.7359 0.519238
    endloop
  endfacet
  facet normal 0 -0.25882 -0.965926
    outer loop
      vertex 15 -40.468 3.51924
      vertex -5.76522e-16 -39.468 3.25129
      vertex 15 -39.468 3.25129
    endloop
  endfacet
  facet normal 0 -0.25882 -0.965926
    outer loop
      vertex -5.76522e-16 -39.468 3.25129
      vertex 15 -40.468 3.51924
      vertex -6.24036e-16 -40.468 3.51924
    endloop
  endfacet
  facet normal 0 -0.707106 -0.707107
    outer loop
      vertex 15 -39.468 3.25129
      vertex -4.46714e-16 -38.7359 2.51924
      vertex 15 -38.7359 2.51924
    endloop
  endfacet
  facet normal 0 -0.707106 -0.707107
    outer loop
      vertex -4.46714e-16 -38.7359 2.51924
      vertex 15 -39.468 3.25129
      vertex -5.76522e-16 -39.468 3.25129
    endloop
  endfacet
  facet normal 0 -0.25882 0.965926
    outer loop
      vertex 15 -39.468 -0.212812
      vertex 8.52493e-17 -40.468 -0.480762
      vertex 15 -40.468 -0.480762
    endloop
  endfacet
  facet normal 0 -0.25882 0.965926
    outer loop
      vertex 8.52493e-17 -40.468 -0.480762
      vertex 15 -39.468 -0.212812
      vertex 3.77361e-17 -39.468 -0.212812
    endloop
  endfacet
  facet normal 0 -0.707106 0.707108
    outer loop
      vertex 15 -38.7359 0.519238
      vertex 3.77361e-17 -39.468 -0.212812
      vertex 15 -39.468 -0.212812
    endloop
  endfacet
  facet normal 0 -0.707106 0.707108
    outer loop
      vertex 3.77361e-17 -39.468 -0.212812
      vertex 15 -38.7359 0.519238
      vertex -9.20719e-17 -38.7359 0.519238
    endloop
  endfacet
  facet normal 0 0 -1
    outer loop
      vertex -6.24036e-16 -43.968 3.51924
      vertex 15 -40.468 3.51924
      vertex 15 -43.968 3.51924
    endloop
  endfacet
  facet normal -0 0 -1
    outer loop
      vertex 15 -40.468 3.51924
      vertex -6.24036e-16 -43.968 3.51924
      vertex -6.24036e-16 -40.468 3.51924
    endloop
  endfacet
  facet normal -0 0 1
    outer loop
      vertex 8.52493e-17 -40.468 -0.480762
      vertex 15 -43.968 -0.480762
      vertex 15 -40.468 -0.480762
    endloop
  endfacet
  facet normal 0 0 1
    outer loop
      vertex 15 -43.968 -0.480762
      vertex 8.52493e-17 -40.468 -0.480762
      vertex 8.52493e-17 -43.968 -0.480762
    endloop
  endfacet
  facet normal 0 0.965926 -0.258818
    outer loop
      vertex 15 38.468 1.51924
      vertex -4.46714e-16 38.7359 2.51924
      vertex 15 38.7359 2.51924
    endloop
  endfacet
  facet normal 0 0.965926 -0.258818
    outer loop
      vertex -4.46714e-16 38.7359 2.51924
      vertex 15 38.468 1.51924
      vertex -2.69393e-16 38.468 1.51924
    endloop
  endfacet
  facet normal 0 0.258819 -0.965926
    outer loop
      vertex -5.76522e-16 39.468 3.25129
      vertex 15 40.468 3.51924
      vertex 15 39.468 3.25129
    endloop
  endfacet
  facet normal 0 0.258819 -0.965926
    outer loop
      vertex 15 40.468 3.51924
      vertex -5.76522e-16 39.468 3.25129
      vertex -6.24036e-16 40.468 3.51924
    endloop
  endfacet
  facet normal 0 0.965926 0.258818
    outer loop
      vertex 15 38.7359 0.519239
      vertex -2.69393e-16 38.468 1.51924
      vertex 15 38.468 1.51924
    endloop
  endfacet
  facet normal 0 0.965926 0.258818
    outer loop
      vertex -2.69393e-16 38.468 1.51924
      vertex 15 38.7359 0.519239
      vertex -9.20721e-17 38.7359 0.519239
    endloop
  endfacet
  facet normal 0 0.707106 -0.707107
    outer loop
      vertex -4.46714e-16 38.7359 2.51924
      vertex 15 39.468 3.25129
      vertex 15 38.7359 2.51924
    endloop
  endfacet
  facet normal 0 0.707106 -0.707107
    outer loop
      vertex 15 39.468 3.25129
      vertex -4.46714e-16 38.7359 2.51924
      vertex -5.76522e-16 39.468 3.25129
    endloop
  endfacet
  facet normal -0 0.25882 0.965926
    outer loop
      vertex 8.52493e-17 40.468 -0.480762
      vertex 15 39.468 -0.212812
      vertex 15 40.468 -0.480762
    endloop
  endfacet
  facet normal 0 0.25882 0.965926
    outer loop
      vertex 15 39.468 -0.212812
      vertex 8.52493e-17 40.468 -0.480762
      vertex 3.77361e-17 39.468 -0.212812
    endloop
  endfacet
  facet normal -0 0.707106 0.707107
    outer loop
      vertex 3.77361e-17 39.468 -0.212812
      vertex 15 38.7359 0.519239
      vertex 15 39.468 -0.212812
    endloop
  endfacet
  facet normal 0 0.707106 0.707107
    outer loop
      vertex 15 38.7359 0.519239
      vertex 3.77361e-17 39.468 -0.212812
      vertex -9.20721e-17 38.7359 0.519239
    endloop
  endfacet
  facet normal 0 -0.965925 -0.258822
    outer loop
      vertex -2.69393e-16 45.968 1.51924
      vertex 15 45.7 2.51924
      vertex -4.46714e-16 45.7 2.51924
    endloop
  endfacet
  facet normal 0 -0.965925 -0.258822
    outer loop
      vertex 15 45.7 2.51924
      vertex -2.69393e-16 45.968 1.51924
      vertex 15 45.968 1.51924
    endloop
  endfacet
  facet normal 0 -0.965925 0.258822
    outer loop
      vertex -9.20719e-17 45.7 0.519238
      vertex 15 45.968 1.51924
      vertex -2.69393e-16 45.968 1.51924
    endloop
  endfacet
  facet normal 0 -0.965925 0.258822
    outer loop
      vertex 15 45.968 1.51924
      vertex -9.20719e-17 45.7 0.519238
      vertex 15 45.7 0.519238
    endloop
  endfacet
  facet normal 0 -0.25882 -0.965926
    outer loop
      vertex 15 43.968 3.51924
      vertex -5.76522e-16 44.968 3.25129
      vertex 15 44.968 3.25129
    endloop
  endfacet
  facet normal 0 -0.25882 -0.965926
    outer loop
      vertex -5.76522e-16 44.968 3.25129
      vertex 15 43.968 3.51924
      vertex -6.24036e-16 43.968 3.51924
    endloop
  endfacet
  facet normal 0 -0.707108 -0.707105
    outer loop
      vertex -4.46714e-16 45.7 2.51924
      vertex 15 44.968 3.25129
      vertex -5.76522e-16 44.968 3.25129
    endloop
  endfacet
  facet normal 0 -0.707108 -0.707105
    outer loop
      vertex 15 44.968 3.25129
      vertex -4.46714e-16 45.7 2.51924
      vertex 15 45.7 2.51924
    endloop
  endfacet
  facet normal 0 -0.25882 0.965926
    outer loop
      vertex 15 44.968 -0.212812
      vertex 8.52493e-17 43.968 -0.480762
      vertex 15 43.968 -0.480762
    endloop
  endfacet
  facet normal 0 -0.25882 0.965926
    outer loop
      vertex 8.52493e-17 43.968 -0.480762
      vertex 15 44.968 -0.212812
      vertex 3.77361e-17 44.968 -0.212812
    endloop
  endfacet
  facet normal 0 -0.707108 0.707106
    outer loop
      vertex 3.77361e-17 44.968 -0.212812
      vertex 15 45.7 0.519238
      vertex -9.20719e-17 45.7 0.519238
    endloop
  endfacet
  facet normal 0 -0.707108 0.707106
    outer loop
      vertex 15 45.7 0.519238
      vertex 3.77361e-17 44.968 -0.212812
      vertex 15 44.968 -0.212812
    endloop
  endfacet
  facet normal 0 0 -1
    outer loop
      vertex -6.24036e-16 40.468 3.51924
      vertex 15 43.968 3.51924
      vertex 15 40.468 3.51924
    endloop
  endfacet
  facet normal -0 0 -1
    outer loop
      vertex 15 43.968 3.51924
      vertex -6.24036e-16 40.468 3.51924
      vertex -6.24036e-16 43.968 3.51924
    endloop
  endfacet
  facet normal -0 0 1
    outer loop
      vertex 8.52493e-17 43.968 -0.480762
      vertex 15 40.468 -0.480762
      vertex 15 43.968 -0.480762
    endloop
  endfacet
  facet normal 0 0 1
    outer loop
      vertex 15 40.468 -0.480762
      vertex 8.52493e-17 43.968 -0.480762
      vertex 8.52493e-17 40.468 -0.480762
    endloop
  endfacet
  facet normal 0 0 1
    outer loop
      vertex 5 -56.3539 16.077
      vertex -2.85079e-15 -56.3539 16.077
      vertex 5 -59.9935 16.077
    endloop
  endfacet
  facet normal -0 0 1
    outer loop
      vertex 5 -59.9935 16.077
      vertex 15 -62 16.077
      vertex 15 -59.9935 16.077
    endloop
  endfacet
  facet normal 0 0 1
    outer loop
      vertex 5 -59.9935 16.077
      vertex -2.85079e-15 -62 16.077
      vertex 15 -62 16.077
    endloop
  endfacet
  facet normal 0 0 1
    outer loop
      vertex -2.85079e-15 -62 16.077
      vertex 5 -59.9935 16.077
      vertex -2.85079e-15 -56.3539 16.077
    endloop
  endfacet
  facet normal 0 0 1
    outer loop
      vertex 15 62 16.077
      vertex 5 59.9935 16.077
      vertex 15 59.9935 16.077
    endloop
  endfacet
  facet normal -0 0 1
    outer loop
      vertex -2.85079e-15 62 16.077
      vertex 5 59.9935 16.077
      vertex 15 62 16.077
    endloop
  endfacet
  facet normal 0 0 1
    outer loop
      vertex -2.85079e-15 56.3539 16.077
      vertex 5 59.9935 16.077
      vertex -2.85079e-15 62 16.077
    endloop
  endfacet
  facet normal 0 0 1
    outer loop
      vertex 5 59.9935 16.077
      vertex -2.85079e-15 56.3539 16.077
      vertex 5 56.3539 16.077
    endloop
  endfacet
  facet normal 1 0 0
    outer loop
      vertex 15 -35.2848 5.30484
      vertex 15 -38.7359 2.51924
      vertex 15 -38.468 1.51924
    endloop
  endfacet
  facet normal 1 0 0
    outer loop
      vertex 15 -39.468 3.25129
      vertex 15 -37.082 5.87322
      vertex 15 -38.8701 6.46976
    endloop
  endfacet
  facet normal 1 0 0
    outer loop
      vertex 15 -37.082 5.87322
      vertex 15 -39.468 3.25129
      vertex 15 -38.7359 2.51924
    endloop
  endfacet
  facet normal 1 0 0
    outer loop
      vertex 15 -38.8701 6.46976
      vertex 15 -40.468 3.51924
      vertex 15 -39.468 3.25129
    endloop
  endfacet
  facet normal 1 0 0
    outer loop
      vertex 15 -40.6486 7.09431
      vertex 15 -40.468 3.51924
      vertex 15 -38.8701 6.46976
    endloop
  endfacet
  facet normal 1 0 0
    outer loop
      vertex 15 -43.968 3.51924
      vertex 15 -40.6486 7.09431
      vertex 15 -42.417 7.74672
    endloop
  endfacet
  facet normal 1 0 0
    outer loop
      vertex 15 -40.6486 7.09431
      vertex 15 -43.968 3.51924
      vertex 15 -40.468 3.51924
    endloop
  endfacet
  facet normal 1 0 0
    outer loop
      vertex 15 -44.1749 8.42682
      vertex 15 -43.968 3.51924
      vertex 15 -42.417 7.74672
    endloop
  endfacet
  facet normal 1 0 0
    outer loop
      vertex 15 -44.968 3.25129
      vertex 15 -43.968 3.51924
      vertex 15 -44.1749 8.42682
    endloop
  endfacet
  facet normal 1 0 0
    outer loop
      vertex 15 -45.922 9.13446
      vertex 15 -44.968 3.25129
      vertex 15 -44.1749 8.42682
    endloop
  endfacet
  facet normal 1 0 0
    outer loop
      vertex 15 -44.968 3.25129
      vertex 15 -45.922 9.13446
      vertex 15 -45.7 2.51924
    endloop
  endfacet
  facet normal 1 0 0
    outer loop
      vertex 15 -47.6577 9.86945
      vertex 15 -45.7 2.51924
      vertex 15 -45.922 9.13446
    endloop
  endfacet
  facet normal 1 0 0
    outer loop
      vertex 15 -49.3817 10.6316
      vertex 15 -45.7 2.51924
      vertex 15 -47.6577 9.86945
    endloop
  endfacet
  facet normal 1 0 0
    outer loop
      vertex 15 -45.7 2.51924
      vertex 15 -49.3817 10.6316
      vertex 15 -45.968 1.51924
    endloop
  endfacet
  facet normal 1 0 0
    outer loop
      vertex 15 -51.0935 11.4208
      vertex 15 -45.968 1.51924
      vertex 15 -49.3817 10.6316
    endloop
  endfacet
  facet normal 1 0 0
    outer loop
      vertex 15 -52.7927 12.2367
      vertex 15 -45.968 1.51924
      vertex 15 -51.0935 11.4208
    endloop
  endfacet
  facet normal 1 0 0
    outer loop
      vertex 15 -54.4789 13.0792
      vertex 15 -45.968 1.51924
      vertex 15 -52.7927 12.2367
    endloop
  endfacet
  facet normal 1 0 0
    outer loop
      vertex 15 -45.968 1.51924
      vertex 15 -54.4789 13.0792
      vertex 15 -46.9445 -10
    endloop
  endfacet
  facet normal 1 0 0
    outer loop
      vertex 15 -56.1516 13.9481
      vertex 15 -46.9445 -10
      vertex 15 -54.4789 13.0792
    endloop
  endfacet
  facet normal 1 0 0
    outer loop
      vertex 15 -62 16.077
      vertex 15 -56.1516 13.9481
      vertex 15 -57.8104 14.8432
    endloop
  endfacet
  facet normal 1 0 0
    outer loop
      vertex 15 -62 16.077
      vertex 15 -57.8104 14.8432
      vertex 15 -59.455 15.7642
    endloop
  endfacet
  facet normal 1 -0 0
    outer loop
      vertex 15 -62 16.077
      vertex 15 -59.455 15.7642
      vertex 15 -59.9935 16.077
    endloop
  endfacet
  facet normal 1 0 0
    outer loop
      vertex 15 -56.1516 13.9481
      vertex 15 -62 16.077
      vertex 15 -46.9445 -10
    endloop
  endfacet
  facet normal 1 0 0
    outer loop
      vertex 15 59.455 15.7642
      vertex 15 62 16.077
      vertex 15 59.9935 16.077
    endloop
  endfacet
  facet normal 1 0 0
    outer loop
      vertex 15 57.8104 14.8432
      vertex 15 62 16.077
      vertex 15 59.455 15.7642
    endloop
  endfacet
  facet normal 1 0 0
    outer loop
      vertex 15 56.1516 13.9481
      vertex 15 62 16.077
      vertex 15 57.8104 14.8432
    endloop
  endfacet
  facet normal 1 0 0
    outer loop
      vertex 15 46.9445 -10
      vertex 15 56.1516 13.9481
      vertex 15 54.4789 13.0792
    endloop
  endfacet
  facet normal 1 0 0
    outer loop
      vertex 15 45.968 1.51924
      vertex 15 54.4789 13.0792
      vertex 15 52.7927 12.2367
    endloop
  endfacet
  facet normal 1 0 0
    outer loop
      vertex 15 45.968 1.51924
      vertex 15 52.7927 12.2367
      vertex 15 51.0935 11.4208
    endloop
  endfacet
  facet normal 1 0 0
    outer loop
      vertex 15 45.968 1.51924
      vertex 15 51.0935 11.4208
      vertex 15 49.3817 10.6316
    endloop
  endfacet
  facet normal 1 0 0
    outer loop
      vertex 15 45.7 2.51924
      vertex 15 49.3817 10.6316
      vertex 15 47.6577 9.86945
    endloop
  endfacet
  facet normal 1 0 -0
    outer loop
      vertex 15 46.9445 -10
      vertex 15 54.4789 13.0792
      vertex 15 45.968 1.51924
    endloop
  endfacet
  facet normal 1 -0 0
    outer loop
      vertex 15 56.1516 13.9481
      vertex 15 46.9445 -10
      vertex 15 62 16.077
    endloop
  endfacet
  facet normal 1 0 0
    outer loop
      vertex 15 45.7 2.51924
      vertex 15 47.6577 9.86945
      vertex 15 45.922 9.13446
    endloop
  endfacet
  facet normal 1 0 0
    outer loop
      vertex 15 49.3817 10.6316
      vertex 15 45.7 2.51924
      vertex 15 45.968 1.51924
    endloop
  endfacet
  facet normal 1 0 0
    outer loop
      vertex 15 45.922 9.13446
      vertex 15 44.968 3.25129
      vertex 15 45.7 2.51924
    endloop
  endfacet
  facet normal 1 -0 0
    outer loop
      vertex 15 44.1749 8.42682
      vertex 15 44.968 3.25129
      vertex 15 45.922 9.13446
    endloop
  endfacet
  facet normal 1 0 0
    outer loop
      vertex 15 44.1749 8.42682
      vertex 15 43.968 3.51924
      vertex 15 44.968 3.25129
    endloop
  endfacet
  facet normal 1 -0 0
    outer loop
      vertex 15 42.417 7.74672
      vertex 15 43.968 3.51924
      vertex 15 44.1749 8.42682
    endloop
  endfacet
  facet normal 1 -0 0
    outer loop
      vertex 15 40.6486 7.09431
      vertex 15 43.968 3.51924
      vertex 15 42.417 7.74672
    endloop
  endfacet
  facet normal 1 0 0
    outer loop
      vertex 15 40.6486 7.09431
      vertex 15 40.468 3.51924
      vertex 15 43.968 3.51924
    endloop
  endfacet
  facet normal 1 -0 0
    outer loop
      vertex 15 38.8701 6.46976
      vertex 15 40.468 3.51924
      vertex 15 40.6486 7.09431
    endloop
  endfacet
  facet normal 1 0 0
    outer loop
      vertex 15 40.468 3.51924
      vertex 15 38.8701 6.46976
      vertex 15 39.468 3.25129
    endloop
  endfacet
  facet normal 1 -0 0
    outer loop
      vertex 15 37.082 5.87322
      vertex 15 39.468 3.25129
      vertex 15 38.8701 6.46976
    endloop
  endfacet
  facet normal 1 0 0
    outer loop
      vertex 15 39.468 3.25129
      vertex 15 37.082 5.87322
      vertex 15 38.7359 2.51924
    endloop
  endfacet
  facet normal 1 -0 0
    outer loop
      vertex 15 35.2848 5.30484
      vertex 15 38.7359 2.51924
      vertex 15 37.082 5.87322
    endloop
  endfacet
  facet normal 1 -0 0
    outer loop
      vertex 15 45.7 0.519238
      vertex 15 46.9445 -10
      vertex 15 45.968 1.51924
    endloop
  endfacet
  facet normal 1 -0 0
    outer loop
      vertex 15 44.968 -0.212812
      vertex 15 46.9445 -10
      vertex 15 45.7 0.519238
    endloop
  endfacet
  facet normal 1 0 0
    outer loop
      vertex 15 44.968 -0.212812
      vertex 15 43.968 -0.480762
      vertex 15 46.9445 -10
    endloop
  endfacet
  facet normal 1 -0 0
    outer loop
      vertex 15 40.468 -0.480762
      vertex 15 46.9445 -10
      vertex 15 43.968 -0.480762
    endloop
  endfacet
  facet normal 1 0 0
    outer loop
      vertex 15 39.468 -0.212812
      vertex 15 46.9445 -10
      vertex 15 40.468 -0.480762
    endloop
  endfacet
  facet normal 1 0 0
    outer loop
      vertex 15 28.0134 3.31561
      vertex 15 39.468 -0.212812
      vertex 15 38.7359 0.519239
    endloop
  endfacet
  facet normal 1 0 0
    outer loop
      vertex 15 38.7359 2.51924
      vertex 15 35.2848 5.30484
      vertex 15 38.468 1.51924
    endloop
  endfacet
  facet normal 1 -0 0
    outer loop
      vertex 15 33.4789 4.76476
      vertex 15 38.468 1.51924
      vertex 15 35.2848 5.30484
    endloop
  endfacet
  facet normal 1 -0 0
    outer loop
      vertex 15 31.6648 4.25311
      vertex 15 38.468 1.51924
      vertex 15 33.4789 4.76476
    endloop
  endfacet
  facet normal 1 0 0
    outer loop
      vertex 15 38.468 1.51924
      vertex 15 31.6648 4.25311
      vertex 15 38.7359 0.519239
    endloop
  endfacet
  facet normal 1 -0 0
    outer loop
      vertex 15 29.8428 3.77002
      vertex 15 38.7359 0.519239
      vertex 15 31.6648 4.25311
    endloop
  endfacet
  facet normal 1 -0 0
    outer loop
      vertex 15 28.0134 3.31561
      vertex 15 38.7359 0.519239
      vertex 15 29.8428 3.77002
    endloop
  endfacet
  facet normal 1 0 0
    outer loop
      vertex 15 39.468 -0.212812
      vertex 15 28.0134 3.31561
      vertex 15 26.1772 2.88999
    endloop
  endfacet
  facet normal 1 -0 0
    outer loop
      vertex 15 24.3345 2.49326
      vertex 15 39.468 -0.212812
      vertex 15 26.1772 2.88999
    endloop
  endfacet
  facet normal 1 0 0
    outer loop
      vertex 15 39.468 -0.212812
      vertex 15 24.3345 2.49326
      vertex 15 46.9445 -10
    endloop
  endfacet
  facet normal 1 -0 0
    outer loop
      vertex 15 22.4858 2.12553
      vertex 15 46.9445 -10
      vertex 15 24.3345 2.49326
    endloop
  endfacet
  facet normal 1 -0 0
    outer loop
      vertex 15 20.6315 1.78688
      vertex 15 46.9445 -10
      vertex 15 22.4858 2.12553
    endloop
  endfacet
  facet normal 1 -0 0
    outer loop
      vertex 15 18.7721 1.4774
      vertex 15 46.9445 -10
      vertex 15 20.6315 1.78688
    endloop
  endfacet
  facet normal 1 -0 0
    outer loop
      vertex 15 16.9081 1.19716
      vertex 15 46.9445 -10
      vertex 15 18.7721 1.4774
    endloop
  endfacet
  facet normal 1 -0 0
    outer loop
      vertex 15 15.04 0.946237
      vertex 15 46.9445 -10
      vertex 15 16.9081 1.19716
    endloop
  endfacet
  facet normal 1 -0 0
    outer loop
      vertex 15 13.1681 0.724686
      vertex 15 46.9445 -10
      vertex 15 15.04 0.946237
    endloop
  endfacet
  facet normal 1 -0 0
    outer loop
      vertex 15 11.293 0.532565
      vertex 15 46.9445 -10
      vertex 15 13.1681 0.724686
    endloop
  endfacet
  facet normal 1 -0 0
    outer loop
      vertex 15 9.41509 0.369921
      vertex 15 46.9445 -10
      vertex 15 11.293 0.532565
    endloop
  endfacet
  facet normal 1 -0 0
    outer loop
      vertex 15 7.53486 0.236794
      vertex 15 46.9445 -10
      vertex 15 9.41509 0.369921
    endloop
  endfacet
  facet normal 1 -0 0
    outer loop
      vertex 15 5.65277 0.133216
      vertex 15 46.9445 -10
      vertex 15 7.53486 0.236794
    endloop
  endfacet
  facet normal 1 -0 0
    outer loop
      vertex 15 3.76929 0.0592136
      vertex 15 46.9445 -10
      vertex 15 5.65277 0.133216
    endloop
  endfacet
  facet normal 1 -0 0
    outer loop
      vertex 15 1.88488 0.0148048
      vertex 15 46.9445 -10
      vertex 15 3.76929 0.0592136
    endloop
  endfacet
  facet normal 1 -0 0
    outer loop
      vertex 15 0 2.65982e-15
      vertex 15 46.9445 -10
      vertex 15 1.88488 0.0148048
    endloop
  endfacet
  facet normal 1 0 0
    outer loop
      vertex 15 -46.9445 -10
      vertex 15 0 2.65982e-15
      vertex 15 -1.88488 0.0148048
    endloop
  endfacet
  facet normal 1 0 0
    outer loop
      vertex 15 -46.9445 -10
      vertex 15 -1.88488 0.0148048
      vertex 15 -3.76929 0.0592136
    endloop
  endfacet
  facet normal 1 0 0
    outer loop
      vertex 15 -46.9445 -10
      vertex 15 -3.76929 0.0592136
      vertex 15 -5.65277 0.133216
    endloop
  endfacet
  facet normal 1 0 0
    outer loop
      vertex 15 -46.9445 -10
      vertex 15 -5.65277 0.133216
      vertex 15 -7.53486 0.236794
    endloop
  endfacet
  facet normal 1 0 0
    outer loop
      vertex 15 -46.9445 -10
      vertex 15 -7.53486 0.236794
      vertex 15 -9.41509 0.369921
    endloop
  endfacet
  facet normal 1 0 0
    outer loop
      vertex 15 -46.9445 -10
      vertex 15 -9.41509 0.369921
      vertex 15 -11.293 0.532565
    endloop
  endfacet
  facet normal 1 0 0
    outer loop
      vertex 15 -46.9445 -10
      vertex 15 -11.293 0.532565
      vertex 15 -13.1681 0.724686
    endloop
  endfacet
  facet normal 1 0 0
    outer loop
      vertex 15 -46.9445 -10
      vertex 15 -13.1681 0.724686
      vertex 15 -15.04 0.946237
    endloop
  endfacet
  facet normal 1 0 0
    outer loop
      vertex 15 -46.9445 -10
      vertex 15 -15.04 0.946237
      vertex 15 -16.9081 1.19716
    endloop
  endfacet
  facet normal 1 0 0
    outer loop
      vertex 15 -46.9445 -10
      vertex 15 -16.9081 1.19716
      vertex 15 -18.7721 1.4774
    endloop
  endfacet
  facet normal 1 0 0
    outer loop
      vertex 15 -46.9445 -10
      vertex 15 -18.7721 1.4774
      vertex 15 -20.6315 1.78688
    endloop
  endfacet
  facet normal 1 0 0
    outer loop
      vertex 15 -38.7359 2.51924
      vertex 15 -35.2848 5.30484
      vertex 15 -37.082 5.87322
    endloop
  endfacet
  facet normal 1 0 0
    outer loop
      vertex 15 -38.468 1.51924
      vertex 15 -33.4789 4.76476
      vertex 15 -35.2848 5.30484
    endloop
  endfacet
  facet normal 1 0 0
    outer loop
      vertex 15 -38.468 1.51924
      vertex 15 -31.6648 4.25311
      vertex 15 -33.4789 4.76476
    endloop
  endfacet
  facet normal 1 0 0
    outer loop
      vertex 15 -38.7359 0.519238
      vertex 15 -31.6648 4.25311
      vertex 15 -38.468 1.51924
    endloop
  endfacet
  facet normal 1 0 0
    outer loop
      vertex 15 -31.6648 4.25311
      vertex 15 -38.7359 0.519238
      vertex 15 -29.8428 3.77002
    endloop
  endfacet
  facet normal 1 0 0
    outer loop
      vertex 15 -29.8428 3.77002
      vertex 15 -38.7359 0.519238
      vertex 15 -28.0134 3.31561
    endloop
  endfacet
  facet normal 1 0 0
    outer loop
      vertex 15 -39.468 -0.212812
      vertex 15 -28.0134 3.31561
      vertex 15 -38.7359 0.519238
    endloop
  endfacet
  facet normal 1 0 0
    outer loop
      vertex 15 -28.0134 3.31561
      vertex 15 -39.468 -0.212812
      vertex 15 -26.1772 2.88999
    endloop
  endfacet
  facet normal 1 0 0
    outer loop
      vertex 15 -26.1772 2.88999
      vertex 15 -39.468 -0.212812
      vertex 15 -24.3345 2.49326
    endloop
  endfacet
  facet normal 1 0 0
    outer loop
      vertex 15 -46.9445 -10
      vertex 15 -24.3345 2.49326
      vertex 15 -39.468 -0.212812
    endloop
  endfacet
  facet normal 1 0 0
    outer loop
      vertex 15 -24.3345 2.49326
      vertex 15 -46.9445 -10
      vertex 15 -22.4858 2.12553
    endloop
  endfacet
  facet normal 1 0 0
    outer loop
      vertex 15 -22.4858 2.12553
      vertex 15 -46.9445 -10
      vertex 15 -20.6315 1.78688
    endloop
  endfacet
  facet normal 1 0 0
    outer loop
      vertex 15 -46.9445 -10
      vertex 15 -39.468 -0.212812
      vertex 15 -40.468 -0.480762
    endloop
  endfacet
  facet normal 1 0 0
    outer loop
      vertex 15 -46.9445 -10
      vertex 15 -40.468 -0.480762
      vertex 15 -43.968 -0.480762
    endloop
  endfacet
  facet normal 1 0 0
    outer loop
      vertex 15 0 2.65982e-15
      vertex 15 -46.9445 -10
      vertex 15 46.9445 -10
    endloop
  endfacet
  facet normal 1 0 0
    outer loop
      vertex 15 -44.968 -0.212812
      vertex 15 -46.9445 -10
      vertex 15 -43.968 -0.480762
    endloop
  endfacet
  facet normal 1 0 0
    outer loop
      vertex 15 -45.7 0.519239
      vertex 15 -46.9445 -10
      vertex 15 -44.968 -0.212812
    endloop
  endfacet
  facet normal 1 0 0
    outer loop
      vertex 15 -46.9445 -10
      vertex 15 -45.7 0.519239
      vertex 15 -45.968 1.51924
    endloop
  endfacet
  facet normal 0 0 -1
    outer loop
      vertex 1.77321e-15 -46.9445 -10
      vertex 15 46.9445 -10
      vertex 15 -46.9445 -10
    endloop
  endfacet
  facet normal -0 0 -1
    outer loop
      vertex 15 46.9445 -10
      vertex 1.77321e-15 -46.9445 -10
      vertex 1.77321e-15 46.9445 -10
    endloop
  endfacet
  facet normal -1 -2.66588e-23 -1.77321e-16
    outer loop
      vertex -4.46714e-16 -38.7359 2.51924
      vertex -5.70157e-15 0 32.1539
      vertex -2.69393e-16 -38.468 1.51924
    endloop
  endfacet
  facet normal -1 6.3634e-23 -1.77321e-16
    outer loop
      vertex -4.41832e-15 -41.0424 24.917
      vertex -4.46714e-16 -38.7359 2.51924
      vertex -5.76522e-16 -39.468 3.25129
    endloop
  endfacet
  facet normal -1 -3.83736e-23 -1.77321e-16
    outer loop
      vertex -4.41832e-15 -41.0424 24.917
      vertex -5.76522e-16 -39.468 3.25129
      vertex -6.24036e-16 -40.468 3.51924
    endloop
  endfacet
  facet normal -1 -1.31909e-23 -1.77321e-16
    outer loop
      vertex -4.46714e-16 -38.7359 2.51924
      vertex -4.41832e-15 -41.0424 24.917
      vertex -5.70157e-15 0 32.1539
    endloop
  endfacet
  facet normal -1 0 -1.77321e-16
    outer loop
      vertex -6.24036e-16 -43.968 3.51924
      vertex -4.41832e-15 -41.0424 24.917
      vertex -6.24036e-16 -40.468 3.51924
    endloop
  endfacet
  facet normal -1 3.47081e-23 -1.77321e-16
    outer loop
      vertex -2.85079e-15 -56.3539 16.077
      vertex -6.24036e-16 -43.968 3.51924
      vertex -5.76522e-16 -44.968 3.25129
    endloop
  endfacet
  facet normal -1 -2.07067e-23 -1.77321e-16
    outer loop
      vertex -2.85079e-15 -56.3539 16.077
      vertex -5.76522e-16 -44.968 3.25129
      vertex -4.46714e-16 -45.7 2.51924
    endloop
  endfacet
  facet normal -1 4.12727e-23 -1.77321e-16
    outer loop
      vertex -2.85079e-15 -56.3539 16.077
      vertex -4.46714e-16 -45.7 2.51924
      vertex -2.69393e-16 -45.968 1.51924
    endloop
  endfacet
  facet normal -1 1.92192e-23 -1.77321e-16
    outer loop
      vertex -6.24036e-16 -43.968 3.51924
      vertex -2.85079e-15 -56.3539 16.077
      vertex -4.41832e-15 -41.0424 24.917
    endloop
  endfacet
  facet normal -1 2.07406e-24 -1.77321e-16
    outer loop
      vertex -2.85079e-15 -62 16.077
      vertex -2.69393e-16 -45.968 1.51924
      vertex 1.77321e-15 -46.9445 -10
    endloop
  endfacet
  facet normal -1 0 -1.77321e-16
    outer loop
      vertex -2.69393e-16 -45.968 1.51924
      vertex -2.85079e-15 -62 16.077
      vertex -2.85079e-15 -56.3539 16.077
    endloop
  endfacet
  facet normal -1 -1.67077e-23 -1.77321e-16
    outer loop
      vertex 1.77321e-15 46.9445 -10
      vertex -9.20719e-17 45.7 0.519238
      vertex -2.69393e-16 45.968 1.51924
    endloop
  endfacet
  facet normal -1 -1.69162e-24 -1.77321e-16
    outer loop
      vertex 1.77321e-15 46.9445 -10
      vertex 3.77361e-17 44.968 -0.212812
      vertex -9.20719e-17 45.7 0.519238
    endloop
  endfacet
  facet normal -1 1.43339e-24 -1.77321e-16
    outer loop
      vertex 1.77321e-15 46.9445 -10
      vertex 8.52493e-17 43.968 -0.480762
      vertex 3.77361e-17 44.968 -0.212812
    endloop
  endfacet
  facet normal -1 0 -1.77321e-16
    outer loop
      vertex 1.77321e-15 46.9445 -10
      vertex 8.52493e-17 40.468 -0.480762
      vertex 8.52493e-17 43.968 -0.480762
    endloop
  endfacet
  facet normal -1 -1.89983e-24 -1.77321e-16
    outer loop
      vertex 1.77321e-15 46.9445 -10
      vertex 3.77361e-17 39.468 -0.212812
      vertex 8.52493e-17 40.468 -0.480762
    endloop
  endfacet
  facet normal -1 2.5662e-23 -1.77321e-16
    outer loop
      vertex 1.77321e-15 46.9445 -10
      vertex -9.20721e-17 38.7359 0.519239
      vertex 3.77361e-17 39.468 -0.212812
    endloop
  endfacet
  facet normal -1 0 -1.77321e-16
    outer loop
      vertex -2.69393e-16 -38.468 1.51924
      vertex -2.69393e-16 38.468 1.51924
      vertex -9.20721e-17 38.7359 0.519239
    endloop
  endfacet
  facet normal -1 -3.80374e-26 -1.77321e-16
    outer loop
      vertex -9.20719e-17 -38.7359 0.519238
      vertex -9.20721e-17 38.7359 0.519239
      vertex 1.77321e-15 46.9445 -10
    endloop
  endfacet
  facet normal -1 -3.80374e-26 -1.77321e-16
    outer loop
      vertex -2.69393e-16 -38.468 1.51924
      vertex -9.20721e-17 38.7359 0.519239
      vertex -9.20719e-17 -38.7359 0.519238
    endloop
  endfacet
  facet normal -1 -0 -1.77321e-16
    outer loop
      vertex -2.69393e-16 38.468 1.51924
      vertex -2.69393e-16 -38.468 1.51924
      vertex -5.70157e-15 0 32.1539
    endloop
  endfacet
  facet normal -1 0 -1.77321e-16
    outer loop
      vertex 1.77321e-15 -46.9445 -10
      vertex -9.20719e-17 -38.7359 0.519238
      vertex 1.77321e-15 46.9445 -10
    endloop
  endfacet
  facet normal -1 -8.61187e-24 -1.77321e-16
    outer loop
      vertex -9.20719e-17 -38.7359 0.519238
      vertex 1.77321e-15 -46.9445 -10
      vertex 3.77361e-17 -39.468 -0.212812
    endloop
  endfacet
  facet normal -1 1.89983e-24 -1.77321e-16
    outer loop
      vertex 3.77361e-17 -39.468 -0.212812
      vertex 1.77321e-15 -46.9445 -10
      vertex 8.52493e-17 -40.468 -0.480762
    endloop
  endfacet
  facet normal -1 8.35318e-24 -1.77321e-16
    outer loop
      vertex -9.20721e-17 -45.7 0.519239
      vertex 1.77321e-15 -46.9445 -10
      vertex -2.69393e-16 -45.968 1.51924
    endloop
  endfacet
  facet normal -1 5.04073e-24 -1.77321e-16
    outer loop
      vertex 3.77361e-17 -44.968 -0.212812
      vertex 1.77321e-15 -46.9445 -10
      vertex -9.20721e-17 -45.7 0.519239
    endloop
  endfacet
  facet normal -1 -1.43339e-24 -1.77321e-16
    outer loop
      vertex 8.52493e-17 -43.968 -0.480762
      vertex 1.77321e-15 -46.9445 -10
      vertex 3.77361e-17 -44.968 -0.212812
    endloop
  endfacet
  facet normal -1 -0 -1.77321e-16
    outer loop
      vertex 8.52493e-17 -40.468 -0.480762
      vertex 1.77321e-15 -46.9445 -10
      vertex 8.52493e-17 -43.968 -0.480762
    endloop
  endfacet
  facet normal -1 -2.07406e-24 -1.77321e-16
    outer loop
      vertex -2.69393e-16 45.968 1.51924
      vertex -2.85079e-15 62 16.077
      vertex 1.77321e-15 46.9445 -10
    endloop
  endfacet
  facet normal -1 -0 -1.77321e-16
    outer loop
      vertex -2.85079e-15 62 16.077
      vertex -2.69393e-16 45.968 1.51924
      vertex -2.85079e-15 56.3539 16.077
    endloop
  endfacet
  facet normal -1 -4.12727e-23 -1.77321e-16
    outer loop
      vertex -4.46714e-16 45.7 2.51924
      vertex -2.85079e-15 56.3539 16.077
      vertex -2.69393e-16 45.968 1.51924
    endloop
  endfacet
  facet normal -1 2.07067e-23 -1.77321e-16
    outer loop
      vertex -5.76522e-16 44.968 3.25129
      vertex -2.85079e-15 56.3539 16.077
      vertex -4.46714e-16 45.7 2.51924
    endloop
  endfacet
  facet normal -1 -3.47081e-23 -1.77321e-16
    outer loop
      vertex -6.24036e-16 43.968 3.51924
      vertex -2.85079e-15 56.3539 16.077
      vertex -5.76522e-16 44.968 3.25129
    endloop
  endfacet
  facet normal -1 -1.92192e-23 -1.77321e-16
    outer loop
      vertex -6.24036e-16 43.968 3.51924
      vertex -4.41832e-15 41.0424 24.917
      vertex -2.85079e-15 56.3539 16.077
    endloop
  endfacet
  facet normal -1 0 -1.77321e-16
    outer loop
      vertex -6.24036e-16 40.468 3.51924
      vertex -4.41832e-15 41.0424 24.917
      vertex -6.24036e-16 43.968 3.51924
    endloop
  endfacet
  facet normal -1 3.83736e-23 -1.77321e-16
    outer loop
      vertex -5.76522e-16 39.468 3.25129
      vertex -4.41832e-15 41.0424 24.917
      vertex -6.24036e-16 40.468 3.51924
    endloop
  endfacet
  facet normal -1 -6.3634e-23 -1.77321e-16
    outer loop
      vertex -4.46714e-16 38.7359 2.51924
      vertex -4.41832e-15 41.0424 24.917
      vertex -5.76522e-16 39.468 3.25129
    endloop
  endfacet
  facet normal -1 2.66588e-23 -1.77321e-16
    outer loop
      vertex -5.70157e-15 0 32.1539
      vertex -4.46714e-16 38.7359 2.51924
      vertex -2.69393e-16 38.468 1.51924
    endloop
  endfacet
  facet normal -1 1.31909e-23 -1.77321e-16
    outer loop
      vertex -4.46714e-16 38.7359 2.51924
      vertex -5.70157e-15 0 32.1539
      vertex -4.41832e-15 41.0424 24.917
    endloop
  endfacet
  facet normal -0 0.173648 0.984808
    outer loop
      vertex -4.41832e-15 41.0424 24.917
      vertex 5 0 32.1539
      vertex 5 41.0424 24.917
    endloop
  endfacet
  facet normal 0 0.173648 0.984808
    outer loop
      vertex 5 0 32.1539
      vertex -4.41832e-15 41.0424 24.917
      vertex -5.70157e-15 0 32.1539
    endloop
  endfacet
  facet normal -0 0.5 0.866025
    outer loop
      vertex -2.85079e-15 56.3539 16.077
      vertex 5 41.0424 24.917
      vertex 5 56.3539 16.077
    endloop
  endfacet
  facet normal 0 0.5 0.866025
    outer loop
      vertex 5 41.0424 24.917
      vertex -2.85079e-15 56.3539 16.077
      vertex -4.41832e-15 41.0424 24.917
    endloop
  endfacet
  facet normal 1 -0 0
    outer loop
      vertex 5 56.3539 16.077
      vertex 5 59.455 15.7642
      vertex 5 59.9935 16.077
    endloop
  endfacet
  facet normal 1 0 0
    outer loop
      vertex 5 59.455 15.7642
      vertex 5 56.3539 16.077
      vertex 5 57.8104 14.8432
    endloop
  endfacet
  facet normal 1 0 0
    outer loop
      vertex 5 56.3539 16.077
      vertex 5 56.1516 13.9481
      vertex 5 57.8104 14.8432
    endloop
  endfacet
  facet normal 1 0 0
    outer loop
      vertex 5 56.3539 16.077
      vertex 5 54.4789 13.0792
      vertex 5 56.1516 13.9481
    endloop
  endfacet
  facet normal 1 0 0
    outer loop
      vertex 5 56.3539 16.077
      vertex 5 52.7927 12.2367
      vertex 5 54.4789 13.0792
    endloop
  endfacet
  facet normal 1 0 0
    outer loop
      vertex 5 41.0424 24.917
      vertex 5 52.7927 12.2367
      vertex 5 56.3539 16.077
    endloop
  endfacet
  facet normal 1 0 0
    outer loop
      vertex 5 52.7927 12.2367
      vertex 5 41.0424 24.917
      vertex 5 51.0935 11.4208
    endloop
  endfacet
  facet normal 1 0 0
    outer loop
      vertex 5 51.0935 11.4208
      vertex 5 41.0424 24.917
      vertex 5 49.3817 10.6316
    endloop
  endfacet
  facet normal 1 0 0
    outer loop
      vertex 5 49.3817 10.6316
      vertex 5 41.0424 24.917
      vertex 5 47.6577 9.86945
    endloop
  endfacet
  facet normal 1 0 0
    outer loop
      vertex 5 47.6577 9.86945
      vertex 5 41.0424 24.917
      vertex 5 45.922 9.13446
    endloop
  endfacet
  facet normal 1 0 0
    outer loop
      vertex 5 45.922 9.13446
      vertex 5 41.0424 24.917
      vertex 5 44.1749 8.42682
    endloop
  endfacet
  facet normal 1 0 0
    outer loop
      vertex 5 44.1749 8.42682
      vertex 5 41.0424 24.917
      vertex 5 42.417 7.74672
    endloop
  endfacet
  facet normal 1 0 0
    outer loop
      vertex 5 41.0424 24.917
      vertex 5 40.6486 7.09431
      vertex 5 42.417 7.74672
    endloop
  endfacet
  facet normal 1 0 0
    outer loop
      vertex 5 41.0424 24.917
      vertex 5 38.8701 6.46976
      vertex 5 40.6486 7.09431
    endloop
  endfacet
  facet normal 1 0 0
    outer loop
      vertex 5 41.0424 24.917
      vertex 5 37.082 5.87322
      vertex 5 38.8701 6.46976
    endloop
  endfacet
  facet normal 1 0 0
    outer loop
      vertex 5 41.0424 24.917
      vertex 5 35.2848 5.30484
      vertex 5 37.082 5.87322
    endloop
  endfacet
  facet normal 1 0 0
    outer loop
      vertex 5 41.0424 24.917
      vertex 5 33.4789 4.76476
      vertex 5 35.2848 5.30484
    endloop
  endfacet
  facet normal 1 0 0
    outer loop
      vertex 5 41.0424 24.917
      vertex 5 31.6648 4.25311
      vertex 5 33.4789 4.76476
    endloop
  endfacet
  facet normal 1 0 0
    outer loop
      vertex 5 41.0424 24.917
      vertex 5 29.8428 3.77002
      vertex 5 31.6648 4.25311
    endloop
  endfacet
  facet normal 1 0 0
    outer loop
      vertex 5 41.0424 24.917
      vertex 5 28.0134 3.31561
      vertex 5 29.8428 3.77002
    endloop
  endfacet
  facet normal 1 0 0
    outer loop
      vertex 5 41.0424 24.917
      vertex 5 26.1772 2.88999
      vertex 5 28.0134 3.31561
    endloop
  endfacet
  facet normal 1 0 0
    outer loop
      vertex 5 41.0424 24.917
      vertex 5 24.3345 2.49326
      vertex 5 26.1772 2.88999
    endloop
  endfacet
  facet normal 1 0 0
    outer loop
      vertex 5 0 32.1539
      vertex 5 24.3345 2.49326
      vertex 5 41.0424 24.917
    endloop
  endfacet
  facet normal 1 0 0
    outer loop
      vertex 5 24.3345 2.49326
      vertex 5 0 32.1539
      vertex 5 22.4858 2.12553
    endloop
  endfacet
  facet normal 1 0 0
    outer loop
      vertex 5 22.4858 2.12553
      vertex 5 0 32.1539
      vertex 5 20.6315 1.78688
    endloop
  endfacet
  facet normal 1 0 0
    outer loop
      vertex 5 20.6315 1.78688
      vertex 5 0 32.1539
      vertex 5 18.7721 1.4774
    endloop
  endfacet
  facet normal 1 0 0
    outer loop
      vertex 5 18.7721 1.4774
      vertex 5 0 32.1539
      vertex 5 16.9081 1.19716
    endloop
  endfacet
  facet normal 1 0 0
    outer loop
      vertex 5 16.9081 1.19716
      vertex 5 0 32.1539
      vertex 5 15.04 0.946237
    endloop
  endfacet
  facet normal 1 0 0
    outer loop
      vertex 5 15.04 0.946237
      vertex 5 0 32.1539
      vertex 5 13.1681 0.724686
    endloop
  endfacet
  facet normal 1 0 0
    outer loop
      vertex 5 13.1681 0.724686
      vertex 5 0 32.1539
      vertex 5 11.293 0.532565
    endloop
  endfacet
  facet normal 1 0 0
    outer loop
      vertex 5 11.293 0.532565
      vertex 5 0 32.1539
      vertex 5 9.41509 0.369921
    endloop
  endfacet
  facet normal 1 0 0
    outer loop
      vertex 5 9.41509 0.369921
      vertex 5 0 32.1539
      vertex 5 7.53486 0.236794
    endloop
  endfacet
  facet normal 1 0 0
    outer loop
      vertex 5 7.53486 0.236794
      vertex 5 0 32.1539
      vertex 5 5.65277 0.133216
    endloop
  endfacet
  facet normal 1 0 0
    outer loop
      vertex 5 5.65277 0.133216
      vertex 5 0 32.1539
      vertex 5 3.76929 0.0592136
    endloop
  endfacet
  facet normal 1 0 0
    outer loop
      vertex 5 3.76929 0.0592136
      vertex 5 0 32.1539
      vertex 5 1.88488 0.0148048
    endloop
  endfacet
  facet normal 1 0 0
    outer loop
      vertex 5 0 32.1539
      vertex 5 0 8.86606e-16
      vertex 5 1.88488 0.0148048
    endloop
  endfacet
  facet normal 1 0 0
    outer loop
      vertex 5 0 32.1539
      vertex 5 -1.88488 0.0148048
      vertex 5 0 8.86606e-16
    endloop
  endfacet
  facet normal 1 0 0
    outer loop
      vertex 5 0 32.1539
      vertex 5 -3.76929 0.0592136
      vertex 5 -1.88488 0.0148048
    endloop
  endfacet
  facet normal 1 0 0
    outer loop
      vertex 5 0 32.1539
      vertex 5 -5.65277 0.133216
      vertex 5 -3.76929 0.0592136
    endloop
  endfacet
  facet normal 1 0 0
    outer loop
      vertex 5 0 32.1539
      vertex 5 -7.53486 0.236794
      vertex 5 -5.65277 0.133216
    endloop
  endfacet
  facet normal 1 0 0
    outer loop
      vertex 5 0 32.1539
      vertex 5 -9.41509 0.369921
      vertex 5 -7.53486 0.236794
    endloop
  endfacet
  facet normal 1 0 0
    outer loop
      vertex 5 0 32.1539
      vertex 5 -11.293 0.532565
      vertex 5 -9.41509 0.369921
    endloop
  endfacet
  facet normal 1 0 0
    outer loop
      vertex 5 0 32.1539
      vertex 5 -13.1681 0.724686
      vertex 5 -11.293 0.532565
    endloop
  endfacet
  facet normal 1 0 0
    outer loop
      vertex 5 0 32.1539
      vertex 5 -15.04 0.946237
      vertex 5 -13.1681 0.724686
    endloop
  endfacet
  facet normal 1 0 0
    outer loop
      vertex 5 0 32.1539
      vertex 5 -16.9081 1.19716
      vertex 5 -15.04 0.946237
    endloop
  endfacet
  facet normal 1 0 0
    outer loop
      vertex 5 0 32.1539
      vertex 5 -18.7721 1.4774
      vertex 5 -16.9081 1.19716
    endloop
  endfacet
  facet normal 1 0 0
    outer loop
      vertex 5 0 32.1539
      vertex 5 -20.6315 1.78688
      vertex 5 -18.7721 1.4774
    endloop
  endfacet
  facet normal 1 0 0
    outer loop
      vertex 5 0 32.1539
      vertex 5 -22.4858 2.12553
      vertex 5 -20.6315 1.78688
    endloop
  endfacet
  facet normal 1 0 0
    outer loop
      vertex 5 0 32.1539
      vertex 5 -24.3345 2.49326
      vertex 5 -22.4858 2.12553
    endloop
  endfacet
  facet normal 1 -0 0
    outer loop
      vertex 5 -41.0424 24.917
      vertex 5 -24.3345 2.49326
      vertex 5 0 32.1539
    endloop
  endfacet
  facet normal 1 0 0
    outer loop
      vertex 5 -24.3345 2.49326
      vertex 5 -41.0424 24.917
      vertex 5 -26.1772 2.88999
    endloop
  endfacet
  facet normal 1 0 0
    outer loop
      vertex 5 -26.1772 2.88999
      vertex 5 -41.0424 24.917
      vertex 5 -28.0134 3.31561
    endloop
  endfacet
  facet normal 1 0 0
    outer loop
      vertex 5 -28.0134 3.31561
      vertex 5 -41.0424 24.917
      vertex 5 -29.8428 3.77002
    endloop
  endfacet
  facet normal 1 0 0
    outer loop
      vertex 5 -29.8428 3.77002
      vertex 5 -41.0424 24.917
      vertex 5 -31.6648 4.25311
    endloop
  endfacet
  facet normal 1 0 0
    outer loop
      vertex 5 -31.6648 4.25311
      vertex 5 -41.0424 24.917
      vertex 5 -33.4789 4.76476
    endloop
  endfacet
  facet normal 1 0 0
    outer loop
      vertex 5 -33.4789 4.76476
      vertex 5 -41.0424 24.917
      vertex 5 -35.2848 5.30484
    endloop
  endfacet
  facet normal 1 0 0
    outer loop
      vertex 5 -35.2848 5.30484
      vertex 5 -41.0424 24.917
      vertex 5 -37.082 5.87322
    endloop
  endfacet
  facet normal 1 0 0
    outer loop
      vertex 5 -37.082 5.87322
      vertex 5 -41.0424 24.917
      vertex 5 -38.8701 6.46976
    endloop
  endfacet
  facet normal 1 0 0
    outer loop
      vertex 5 -38.8701 6.46976
      vertex 5 -41.0424 24.917
      vertex 5 -40.6486 7.09431
    endloop
  endfacet
  facet normal 1 0 0
    outer loop
      vertex 5 -41.0424 24.917
      vertex 5 -42.417 7.74672
      vertex 5 -40.6486 7.09431
    endloop
  endfacet
  facet normal 1 0 0
    outer loop
      vertex 5 -41.0424 24.917
      vertex 5 -44.1749 8.42682
      vertex 5 -42.417 7.74672
    endloop
  endfacet
  facet normal 1 0 0
    outer loop
      vertex 5 -41.0424 24.917
      vertex 5 -45.922 9.13446
      vertex 5 -44.1749 8.42682
    endloop
  endfacet
  facet normal 1 0 0
    outer loop
      vertex 5 -41.0424 24.917
      vertex 5 -47.6577 9.86945
      vertex 5 -45.922 9.13446
    endloop
  endfacet
  facet normal 1 0 0
    outer loop
      vertex 5 -41.0424 24.917
      vertex 5 -49.3817 10.6316
      vertex 5 -47.6577 9.86945
    endloop
  endfacet
  facet normal 1 0 0
    outer loop
      vertex 5 -41.0424 24.917
      vertex 5 -51.0935 11.4208
      vertex 5 -49.3817 10.6316
    endloop
  endfacet
  facet normal 1 0 0
    outer loop
      vertex 5 -41.0424 24.917
      vertex 5 -52.7927 12.2367
      vertex 5 -51.0935 11.4208
    endloop
  endfacet
  facet normal 1 -0 0
    outer loop
      vertex 5 -56.3539 16.077
      vertex 5 -52.7927 12.2367
      vertex 5 -41.0424 24.917
    endloop
  endfacet
  facet normal 1 0 0
    outer loop
      vertex 5 -52.7927 12.2367
      vertex 5 -56.3539 16.077
      vertex 5 -54.4789 13.0792
    endloop
  endfacet
  facet normal 1 0 0
    outer loop
      vertex 5 -54.4789 13.0792
      vertex 5 -56.3539 16.077
      vertex 5 -56.1516 13.9481
    endloop
  endfacet
  facet normal 1 0 0
    outer loop
      vertex 5 -56.3539 16.077
      vertex 5 -57.8104 14.8432
      vertex 5 -56.1516 13.9481
    endloop
  endfacet
  facet normal 1 0 0
    outer loop
      vertex 5 -56.3539 16.077
      vertex 5 -59.455 15.7642
      vertex 5 -57.8104 14.8432
    endloop
  endfacet
  facet normal 1 0 -0
    outer loop
      vertex 5 -59.455 15.7642
      vertex 5 -56.3539 16.077
      vertex 5 -59.9935 16.077
    endloop
  endfacet
  facet normal 0 -0.173648 0.984808
    outer loop
      vertex 5 0 32.1539
      vertex -4.41832e-15 -41.0424 24.917
      vertex 5 -41.0424 24.917
    endloop
  endfacet
  facet normal 0 -0.173648 0.984808
    outer loop
      vertex -4.41832e-15 -41.0424 24.917
      vertex 5 0 32.1539
      vertex -5.70157e-15 0 32.1539
    endloop
  endfacet
  facet normal 0 -0.5 0.866025
    outer loop
      vertex 5 -41.0424 24.917
      vertex -2.85079e-15 -56.3539 16.077
      vertex 5 -56.3539 16.077
    endloop
  endfacet
  facet normal 0 -0.5 0.866025
    outer loop
      vertex -2.85079e-15 -56.3539 16.077
      vertex 5 -41.0424 24.917
      vertex -4.41832e-15 -41.0424 24.917
    endloop
  endfacet
  facet normal 0 -0.286525 0.958073
    outer loop
      vertex 5 35.2848 5.30484
      vertex 15 33.4789 4.76476
      vertex 15 35.2848 5.30484
    endloop
  endfacet
  facet normal 0 -0.286525 0.958073
    outer loop
      vertex 15 33.4789 4.76476
      vertex 5 35.2848 5.30484
      vertex 5 33.4789 4.76476
    endloop
  endfacet
  facet normal 0 -0.389928 0.920845
    outer loop
      vertex 5 47.6577 9.86945
      vertex 15 45.922 9.13446
      vertex 15 47.6577 9.86945
    endloop
  endfacet
  facet normal 0 -0.389928 0.920845
    outer loop
      vertex 15 45.922 9.13446
      vertex 5 47.6577 9.86945
      vertex 5 45.922 9.13446
    endloop
  endfacet
  facet normal 0 -0.19509 0.980785
    outer loop
      vertex 5 24.3345 2.49326
      vertex 15 22.4858 2.12553
      vertex 15 24.3345 2.49326
    endloop
  endfacet
  facet normal 0 -0.19509 0.980785
    outer loop
      vertex 15 22.4858 2.12553
      vertex 5 24.3345 2.49326
      vertex 5 22.4858 2.12553
    endloop
  endfacet
  facet normal -0 0.404343 0.914607
    outer loop
      vertex 5 -47.6577 9.86945
      vertex 15 -49.3817 10.6316
      vertex 15 -47.6577 9.86945
    endloop
  endfacet
  facet normal 0 0.404343 0.914607
    outer loop
      vertex 15 -49.3817 10.6316
      vertex 5 -47.6577 9.86945
      vertex 5 -49.3817 10.6316
    endloop
  endfacet
  facet normal 0 -0.101924 0.994792
    outer loop
      vertex 5 13.1681 0.724686
      vertex 15 11.293 0.532565
      vertex 15 13.1681 0.724686
    endloop
  endfacet
  facet normal 0 -0.101924 0.994792
    outer loop
      vertex 15 11.293 0.532565
      vertex 5 13.1681 0.724686
      vertex 5 11.293 0.532565
    endloop
  endfacet
  facet normal 0 -0.331338 0.943512
    outer loop
      vertex 5 40.6486 7.09431
      vertex 15 38.8701 6.46976
      vertex 15 40.6486 7.09431
    endloop
  endfacet
  facet normal 0 -0.331338 0.943512
    outer loop
      vertex 15 38.8701 6.46976
      vertex 5 40.6486 7.09431
      vertex 5 38.8701 6.46976
    endloop
  endfacet
  facet normal 0 -0.241075 0.970506
    outer loop
      vertex 5 29.8428 3.77002
      vertex 15 28.0134 3.31561
      vertex 15 29.8428 3.77002
    endloop
  endfacet
  facet normal 0 -0.241075 0.970506
    outer loop
      vertex 15 28.0134 3.31561
      vertex 5 29.8428 3.77002
      vertex 5 28.0134 3.31561
    endloop
  endfacet
  facet normal 0 -0.460974 0.887414
    outer loop
      vertex 5 56.1516 13.9481
      vertex 15 54.4789 13.0792
      vertex 15 56.1516 13.9481
    endloop
  endfacet
  facet normal 0 -0.460974 0.887414
    outer loop
      vertex 15 54.4789 13.0792
      vertex 5 56.1516 13.9481
      vertex 5 54.4789 13.0792
    endloop
  endfacet
  facet normal -0 0.210472 0.9776
    outer loop
      vertex 5 -24.3345 2.49326
      vertex 15 -26.1772 2.88999
      vertex 15 -24.3345 2.49326
    endloop
  endfacet
  facet normal 0 0.210472 0.9776
    outer loop
      vertex 15 -26.1772 2.88999
      vertex 5 -24.3345 2.49326
      vertex 5 -26.1772 2.88999
    endloop
  endfacet
  facet normal -0 0.360811 0.932639
    outer loop
      vertex 5 -42.417 7.74672
      vertex 15 -44.1749 8.42682
      vertex 15 -42.417 7.74672
    endloop
  endfacet
  facet normal 0 0.360811 0.932639
    outer loop
      vertex 15 -44.1749 8.42682
      vertex 5 -42.417 7.74672
      vertex 5 -44.1749 8.42682
    endloop
  endfacet
  facet normal 0 -0.0549502 0.998489
    outer loop
      vertex 5 7.53486 0.236794
      vertex 15 5.65277 0.133216
      vertex 15 7.53486 0.236794
    endloop
  endfacet
  facet normal 0 -0.0549502 0.998489
    outer loop
      vertex 15 5.65277 0.133216
      vertex 5 7.53486 0.236794
      vertex 5 5.65277 0.133216
    endloop
  endfacet
  facet normal 0 -0.0706269 0.997503
    outer loop
      vertex 5 9.41509 0.369921
      vertex 15 7.53486 0.236794
      vertex 15 9.41509 0.369921
    endloop
  endfacet
  facet normal 0 -0.0706269 0.997503
    outer loop
      vertex 15 7.53486 0.236794
      vertex 5 9.41509 0.369921
      vertex 5 7.53486 0.236794
    endloop
  endfacet
  facet normal 0 -0.148672 0.988887
    outer loop
      vertex 5 18.7721 1.4774
      vertex 15 16.9081 1.19716
      vertex 15 18.7721 1.4774
    endloop
  endfacet
  facet normal 0 -0.148672 0.988887
    outer loop
      vertex 15 16.9081 1.19716
      vertex 5 18.7721 1.4774
      vertex 5 16.9081 1.19716
    endloop
  endfacet
  facet normal 0 -0.133121 0.9911
    outer loop
      vertex 5 16.9081 1.19716
      vertex 15 15.04 0.946237
      vertex 15 16.9081 1.19716
    endloop
  endfacet
  facet normal 0 -0.133121 0.9911
    outer loop
      vertex 15 15.04 0.946237
      vertex 5 16.9081 1.19716
      vertex 5 15.04 0.946237
    endloop
  endfacet
  facet normal 0 -0.375416 0.926857
    outer loop
      vertex 5 45.922 9.13446
      vertex 15 44.1749 8.42682
      vertex 15 45.922 9.13446
    endloop
  endfacet
  facet normal 0 -0.375416 0.926857
    outer loop
      vertex 15 44.1749 8.42682
      vertex 5 45.922 9.13446
      vertex 5 44.1749 8.42682
    endloop
  endfacet
  facet normal 0 -0.256289 0.9666
    outer loop
      vertex 5 31.6648 4.25311
      vertex 15 29.8428 3.77002
      vertex 15 31.6648 4.25311
    endloop
  endfacet
  facet normal 0 -0.256289 0.9666
    outer loop
      vertex 15 29.8428 3.77002
      vertex 5 31.6648 4.25311
      vertex 5 29.8428 3.77002
    endloop
  endfacet
  facet normal 0 -0.210472 0.9776
    outer loop
      vertex 5 26.1772 2.88999
      vertex 15 24.3345 2.49326
      vertex 15 26.1772 2.88999
    endloop
  endfacet
  facet normal 0 -0.210472 0.9776
    outer loop
      vertex 15 24.3345 2.49326
      vertex 5 26.1772 2.88999
      vertex 5 24.3345 2.49326
    endloop
  endfacet
  facet normal 0 -0.41866 0.908143
    outer loop
      vertex 5 51.0935 11.4208
      vertex 15 49.3817 10.6316
      vertex 15 51.0935 11.4208
    endloop
  endfacet
  facet normal 0 -0.41866 0.908143
    outer loop
      vertex 15 49.3817 10.6316
      vertex 5 51.0935 11.4208
      vertex 5 49.3817 10.6316
    endloop
  endfacet
  facet normal 0 -0.502266 0.864713
    outer loop
      vertex 5 59.9935 16.077
      vertex 15 59.455 15.7642
      vertex 15 59.9935 16.077
    endloop
  endfacet
  facet normal 0 -0.502266 0.864713
    outer loop
      vertex 15 59.455 15.7642
      vertex 5 59.9935 16.077
      vertex 5 59.455 15.7642
    endloop
  endfacet
  facet normal 0 -0.432872 0.901455
    outer loop
      vertex 5 52.7927 12.2367
      vertex 15 51.0935 11.4208
      vertex 15 52.7927 12.2367
    endloop
  endfacet
  facet normal 0 -0.432872 0.901455
    outer loop
      vertex 15 51.0935 11.4208
      vertex 5 52.7927 12.2367
      vertex 5 51.0935 11.4208
    endloop
  endfacet
  facet normal 0 -0.0078543 0.999969
    outer loop
      vertex 5 1.88488 0.0148048
      vertex 15 0 2.65982e-15
      vertex 15 1.88488 0.0148048
    endloop
  endfacet
  facet normal -1.77316e-16 -0.0078543 0.999969
    outer loop
      vertex 15 0 2.65982e-15
      vertex 5 1.88488 0.0148048
      vertex 5 0 8.86606e-16
    endloop
  endfacet
  facet normal -0 0.148672 0.988887
    outer loop
      vertex 5 -16.9081 1.19716
      vertex 15 -18.7721 1.4774
      vertex 15 -16.9081 1.19716
    endloop
  endfacet
  facet normal 0 0.148672 0.988887
    outer loop
      vertex 15 -18.7721 1.4774
      vertex 5 -16.9081 1.19716
      vertex 5 -18.7721 1.4774
    endloop
  endfacet
  facet normal -0 0.331338 0.943512
    outer loop
      vertex 5 -38.8701 6.46976
      vertex 15 -40.6486 7.09431
      vertex 15 -38.8701 6.46976
    endloop
  endfacet
  facet normal 0 0.331338 0.943512
    outer loop
      vertex 15 -40.6486 7.09431
      vertex 5 -38.8701 6.46976
      vertex 5 -40.6486 7.09431
    endloop
  endfacet
  facet normal 0 -0.0392598 0.999229
    outer loop
      vertex 5 5.65277 0.133216
      vertex 15 3.76929 0.0592136
      vertex 15 5.65277 0.133216
    endloop
  endfacet
  facet normal 0 -0.0392598 0.999229
    outer loop
      vertex 15 3.76929 0.0592136
      vertex 5 5.65277 0.133216
      vertex 5 3.76929 0.0592136
    endloop
  endfacet
  facet normal 0 -0.0862864 0.99627
    outer loop
      vertex 5 11.293 0.532565
      vertex 15 9.41509 0.369921
      vertex 15 11.293 0.532565
    endloop
  endfacet
  facet normal 0 -0.0862864 0.99627
    outer loop
      vertex 15 9.41509 0.369921
      vertex 5 11.293 0.532565
      vertex 5 9.41509 0.369921
    endloop
  endfacet
  facet normal 0 -0.164187 0.986429
    outer loop
      vertex 5 20.6315 1.78688
      vertex 15 18.7721 1.4774
      vertex 15 20.6315 1.78688
    endloop
  endfacet
  facet normal 0 -0.164187 0.986429
    outer loop
      vertex 15 18.7721 1.4774
      vertex 5 20.6315 1.78688
      vertex 5 18.7721 1.4774
    endloop
  endfacet
  facet normal 0 -0.179661 0.983729
    outer loop
      vertex 5 22.4858 2.12553
      vertex 15 20.6315 1.78688
      vertex 15 22.4858 2.12553
    endloop
  endfacet
  facet normal 0 -0.179661 0.983729
    outer loop
      vertex 15 20.6315 1.78688
      vertex 5 22.4858 2.12553
      vertex 5 20.6315 1.78688
    endloop
  endfacet
  facet normal 0 -0.117538 0.993068
    outer loop
      vertex 5 15.04 0.946237
      vertex 15 13.1681 0.724686
      vertex 15 15.04 0.946237
    endloop
  endfacet
  facet normal 0 -0.117538 0.993068
    outer loop
      vertex 15 13.1681 0.724686
      vertex 5 15.04 0.946237
      vertex 5 13.1681 0.724686
    endloop
  endfacet
  facet normal 0 -0.316477 0.9486
    outer loop
      vertex 5 38.8701 6.46976
      vertex 15 37.082 5.87322
      vertex 15 38.8701 6.46976
    endloop
  endfacet
  facet normal 0 -0.316477 0.9486
    outer loop
      vertex 15 37.082 5.87322
      vertex 5 38.8701 6.46976
      vertex 5 37.082 5.87322
    endloop
  endfacet
  facet normal 0 -0.301538 0.953454
    outer loop
      vertex 5 37.082 5.87322
      vertex 15 35.2848 5.30484
      vertex 15 37.082 5.87322
    endloop
  endfacet
  facet normal 0 -0.301538 0.953454
    outer loop
      vertex 15 35.2848 5.30484
      vertex 5 37.082 5.87322
      vertex 5 35.2848 5.30484
    endloop
  endfacet
  facet normal 0 -0.271441 0.962455
    outer loop
      vertex 5 33.4789 4.76476
      vertex 15 31.6648 4.25311
      vertex 15 33.4789 4.76476
    endloop
  endfacet
  facet normal 0 -0.271441 0.962455
    outer loop
      vertex 15 31.6648 4.25311
      vertex 5 33.4789 4.76476
      vertex 5 31.6648 4.25311
    endloop
  endfacet
  facet normal 0 -0.225801 0.974173
    outer loop
      vertex 5 28.0134 3.31561
      vertex 15 26.1772 2.88999
      vertex 15 28.0134 3.31561
    endloop
  endfacet
  facet normal 0 -0.225801 0.974173
    outer loop
      vertex 15 26.1772 2.88999
      vertex 5 28.0134 3.31561
      vertex 5 26.1772 2.88999
    endloop
  endfacet
  facet normal 0 -0.404343 0.914607
    outer loop
      vertex 5 49.3817 10.6316
      vertex 15 47.6577 9.86945
      vertex 15 49.3817 10.6316
    endloop
  endfacet
  facet normal 0 -0.404343 0.914607
    outer loop
      vertex 15 47.6577 9.86945
      vertex 5 49.3817 10.6316
      vertex 5 47.6577 9.86945
    endloop
  endfacet
  facet normal 0 -0.446979 0.894544
    outer loop
      vertex 5 54.4789 13.0792
      vertex 15 52.7927 12.2367
      vertex 15 54.4789 13.0792
    endloop
  endfacet
  facet normal 0 -0.446979 0.894544
    outer loop
      vertex 15 52.7927 12.2367
      vertex 5 54.4789 13.0792
      vertex 5 52.7927 12.2367
    endloop
  endfacet
  facet normal 0 -0.488621 0.872496
    outer loop
      vertex 5 59.455 15.7642
      vertex 15 57.8104 14.8432
      vertex 15 59.455 15.7642
    endloop
  endfacet
  facet normal 0 -0.488621 0.872496
    outer loop
      vertex 15 57.8104 14.8432
      vertex 5 59.455 15.7642
      vertex 5 57.8104 14.8432
    endloop
  endfacet
  facet normal 0 -0.474856 0.880063
    outer loop
      vertex 5 57.8104 14.8432
      vertex 15 56.1516 13.9481
      vertex 15 57.8104 14.8432
    endloop
  endfacet
  facet normal 0 -0.474856 0.880063
    outer loop
      vertex 15 56.1516 13.9481
      vertex 5 57.8104 14.8432
      vertex 5 56.1516 13.9481
    endloop
  endfacet
  facet normal -0 0.0235598 0.999722
    outer loop
      vertex 5 -1.88488 0.0148048
      vertex 15 -3.76929 0.0592136
      vertex 15 -1.88488 0.0148048
    endloop
  endfacet
  facet normal 0 0.0235598 0.999722
    outer loop
      vertex 15 -3.76929 0.0592136
      vertex 5 -1.88488 0.0148048
      vertex 5 -3.76929 0.0592136
    endloop
  endfacet
  facet normal -0 0.0392598 0.999229
    outer loop
      vertex 5 -3.76929 0.0592136
      vertex 15 -5.65277 0.133216
      vertex 15 -3.76929 0.0592136
    endloop
  endfacet
  facet normal 0 0.0392598 0.999229
    outer loop
      vertex 15 -5.65277 0.133216
      vertex 5 -3.76929 0.0592136
      vertex 5 -5.65277 0.133216
    endloop
  endfacet
  facet normal -1.77316e-16 0.0078543 0.999969
    outer loop
      vertex 5 0 8.86606e-16
      vertex 15 -1.88488 0.0148048
      vertex 15 0 2.65982e-15
    endloop
  endfacet
  facet normal 0 0.0078543 0.999969
    outer loop
      vertex 15 -1.88488 0.0148048
      vertex 5 0 8.86606e-16
      vertex 5 -1.88488 0.0148048
    endloop
  endfacet
  facet normal -0 0.0862864 0.99627
    outer loop
      vertex 5 -9.41509 0.369921
      vertex 15 -11.293 0.532565
      vertex 15 -9.41509 0.369921
    endloop
  endfacet
  facet normal 0 0.0862864 0.99627
    outer loop
      vertex 15 -11.293 0.532565
      vertex 5 -9.41509 0.369921
      vertex 5 -11.293 0.532565
    endloop
  endfacet
  facet normal -0 0.179661 0.983729
    outer loop
      vertex 5 -20.6315 1.78688
      vertex 15 -22.4858 2.12553
      vertex 15 -20.6315 1.78688
    endloop
  endfacet
  facet normal 0 0.179661 0.983729
    outer loop
      vertex 15 -22.4858 2.12553
      vertex 5 -20.6315 1.78688
      vertex 5 -22.4858 2.12553
    endloop
  endfacet
  facet normal -0 0.271441 0.962455
    outer loop
      vertex 5 -31.6648 4.25311
      vertex 15 -33.4789 4.76476
      vertex 15 -31.6648 4.25311
    endloop
  endfacet
  facet normal 0 0.271441 0.962455
    outer loop
      vertex 15 -33.4789 4.76476
      vertex 5 -31.6648 4.25311
      vertex 5 -33.4789 4.76476
    endloop
  endfacet
  facet normal -0 0.19509 0.980785
    outer loop
      vertex 5 -22.4858 2.12553
      vertex 15 -24.3345 2.49326
      vertex 15 -22.4858 2.12553
    endloop
  endfacet
  facet normal 0 0.19509 0.980785
    outer loop
      vertex 15 -24.3345 2.49326
      vertex 5 -22.4858 2.12553
      vertex 5 -24.3345 2.49326
    endloop
  endfacet
  facet normal -0 0.301538 0.953454
    outer loop
      vertex 5 -35.2848 5.30484
      vertex 15 -37.082 5.87322
      vertex 15 -35.2848 5.30484
    endloop
  endfacet
  facet normal 0 0.301538 0.953454
    outer loop
      vertex 15 -37.082 5.87322
      vertex 5 -35.2848 5.30484
      vertex 5 -37.082 5.87322
    endloop
  endfacet
  facet normal -0 0.375416 0.926857
    outer loop
      vertex 5 -44.1749 8.42682
      vertex 15 -45.922 9.13446
      vertex 15 -44.1749 8.42682
    endloop
  endfacet
  facet normal 0 0.375416 0.926857
    outer loop
      vertex 15 -45.922 9.13446
      vertex 5 -44.1749 8.42682
      vertex 5 -45.922 9.13446
    endloop
  endfacet
  facet normal -0 0.41866 0.908143
    outer loop
      vertex 5 -49.3817 10.6316
      vertex 15 -51.0935 11.4208
      vertex 15 -49.3817 10.6316
    endloop
  endfacet
  facet normal 0 0.41866 0.908143
    outer loop
      vertex 15 -51.0935 11.4208
      vertex 5 -49.3817 10.6316
      vertex 5 -51.0935 11.4208
    endloop
  endfacet
  facet normal 0 -0.0235598 0.999722
    outer loop
      vertex 5 3.76929 0.0592136
      vertex 15 1.88488 0.0148048
      vertex 15 3.76929 0.0592136
    endloop
  endfacet
  facet normal 0 -0.0235598 0.999722
    outer loop
      vertex 15 1.88488 0.0148048
      vertex 5 3.76929 0.0592136
      vertex 5 1.88488 0.0148048
    endloop
  endfacet
  facet normal 0 -0.360811 0.932639
    outer loop
      vertex 5 44.1749 8.42682
      vertex 15 42.417 7.74672
      vertex 15 44.1749 8.42682
    endloop
  endfacet
  facet normal 0 -0.360811 0.932639
    outer loop
      vertex 15 42.417 7.74672
      vertex 5 44.1749 8.42682
      vertex 5 42.417 7.74672
    endloop
  endfacet
  facet normal 0 -0.346117 0.938191
    outer loop
      vertex 5 42.417 7.74672
      vertex 15 40.6486 7.09431
      vertex 15 42.417 7.74672
    endloop
  endfacet
  facet normal 0 -0.346117 0.938191
    outer loop
      vertex 15 40.6486 7.09431
      vertex 5 42.417 7.74672
      vertex 5 40.6486 7.09431
    endloop
  endfacet
  facet normal -0 0.0706269 0.997503
    outer loop
      vertex 5 -7.53486 0.236794
      vertex 15 -9.41509 0.369921
      vertex 15 -7.53486 0.236794
    endloop
  endfacet
  facet normal 0 0.0706269 0.997503
    outer loop
      vertex 15 -9.41509 0.369921
      vertex 5 -7.53486 0.236794
      vertex 5 -9.41509 0.369921
    endloop
  endfacet
  facet normal -0 0.164187 0.986429
    outer loop
      vertex 5 -18.7721 1.4774
      vertex 15 -20.6315 1.78688
      vertex 15 -18.7721 1.4774
    endloop
  endfacet
  facet normal 0 0.164187 0.986429
    outer loop
      vertex 15 -20.6315 1.78688
      vertex 5 -18.7721 1.4774
      vertex 5 -20.6315 1.78688
    endloop
  endfacet
  facet normal -0 0.241075 0.970506
    outer loop
      vertex 5 -28.0134 3.31561
      vertex 15 -29.8428 3.77002
      vertex 15 -28.0134 3.31561
    endloop
  endfacet
  facet normal 0 0.241075 0.970506
    outer loop
      vertex 15 -29.8428 3.77002
      vertex 5 -28.0134 3.31561
      vertex 5 -29.8428 3.77002
    endloop
  endfacet
  facet normal -0 0.286525 0.958073
    outer loop
      vertex 5 -33.4789 4.76476
      vertex 15 -35.2848 5.30484
      vertex 15 -33.4789 4.76476
    endloop
  endfacet
  facet normal 0 0.286525 0.958073
    outer loop
      vertex 15 -35.2848 5.30484
      vertex 5 -33.4789 4.76476
      vertex 5 -35.2848 5.30484
    endloop
  endfacet
  facet normal -0 0.316477 0.9486
    outer loop
      vertex 5 -37.082 5.87322
      vertex 15 -38.8701 6.46976
      vertex 15 -37.082 5.87322
    endloop
  endfacet
  facet normal 0 0.316477 0.9486
    outer loop
      vertex 15 -38.8701 6.46976
      vertex 5 -37.082 5.87322
      vertex 5 -38.8701 6.46976
    endloop
  endfacet
  facet normal -0 0.346117 0.938191
    outer loop
      vertex 5 -40.6486 7.09431
      vertex 15 -42.417 7.74672
      vertex 15 -40.6486 7.09431
    endloop
  endfacet
  facet normal 0 0.346117 0.938191
    outer loop
      vertex 15 -42.417 7.74672
      vertex 5 -40.6486 7.09431
      vertex 5 -42.417 7.74672
    endloop
  endfacet
  facet normal -0 0.460974 0.887414
    outer loop
      vertex 5 -54.4789 13.0792
      vertex 15 -56.1516 13.9481
      vertex 15 -54.4789 13.0792
    endloop
  endfacet
  facet normal 0 0.460974 0.887414
    outer loop
      vertex 15 -56.1516 13.9481
      vertex 5 -54.4789 13.0792
      vertex 5 -56.1516 13.9481
    endloop
  endfacet
  facet normal -0 0.432872 0.901455
    outer loop
      vertex 5 -51.0935 11.4208
      vertex 15 -52.7927 12.2367
      vertex 15 -51.0935 11.4208
    endloop
  endfacet
  facet normal 0 0.432872 0.901455
    outer loop
      vertex 15 -52.7927 12.2367
      vertex 5 -51.0935 11.4208
      vertex 5 -52.7927 12.2367
    endloop
  endfacet
  facet normal -0 0.101924 0.994792
    outer loop
      vertex 5 -11.293 0.532565
      vertex 15 -13.1681 0.724686
      vertex 15 -11.293 0.532565
    endloop
  endfacet
  facet normal 0 0.101924 0.994792
    outer loop
      vertex 15 -13.1681 0.724686
      vertex 5 -11.293 0.532565
      vertex 5 -13.1681 0.724686
    endloop
  endfacet
  facet normal -0 0.0549502 0.998489
    outer loop
      vertex 5 -5.65277 0.133216
      vertex 15 -7.53486 0.236794
      vertex 15 -5.65277 0.133216
    endloop
  endfacet
  facet normal 0 0.0549502 0.998489
    outer loop
      vertex 15 -7.53486 0.236794
      vertex 5 -5.65277 0.133216
      vertex 5 -7.53486 0.236794
    endloop
  endfacet
  facet normal -0 0.225801 0.974173
    outer loop
      vertex 5 -26.1772 2.88999
      vertex 15 -28.0134 3.31561
      vertex 15 -26.1772 2.88999
    endloop
  endfacet
  facet normal 0 0.225801 0.974173
    outer loop
      vertex 15 -28.0134 3.31561
      vertex 5 -26.1772 2.88999
      vertex 5 -28.0134 3.31561
    endloop
  endfacet
  facet normal -0 0.256289 0.9666
    outer loop
      vertex 5 -29.8428 3.77002
      vertex 15 -31.6648 4.25311
      vertex 15 -29.8428 3.77002
    endloop
  endfacet
  facet normal 0 0.256289 0.9666
    outer loop
      vertex 15 -31.6648 4.25311
      vertex 5 -29.8428 3.77002
      vertex 5 -31.6648 4.25311
    endloop
  endfacet
  facet normal -0 0.389928 0.920845
    outer loop
      vertex 5 -45.922 9.13446
      vertex 15 -47.6577 9.86945
      vertex 15 -45.922 9.13446
    endloop
  endfacet
  facet normal 0 0.389928 0.920845
    outer loop
      vertex 15 -47.6577 9.86945
      vertex 5 -45.922 9.13446
      vertex 5 -47.6577 9.86945
    endloop
  endfacet
  facet normal -0 0.446979 0.894544
    outer loop
      vertex 5 -52.7927 12.2367
      vertex 15 -54.4789 13.0792
      vertex 15 -52.7927 12.2367
    endloop
  endfacet
  facet normal 0 0.446979 0.894544
    outer loop
      vertex 15 -54.4789 13.0792
      vertex 5 -52.7927 12.2367
      vertex 5 -54.4789 13.0792
    endloop
  endfacet
  facet normal -0 0.117538 0.993068
    outer loop
      vertex 5 -13.1681 0.724686
      vertex 15 -15.04 0.946237
      vertex 15 -13.1681 0.724686
    endloop
  endfacet
  facet normal 0 0.117538 0.993068
    outer loop
      vertex 15 -15.04 0.946237
      vertex 5 -13.1681 0.724686
      vertex 5 -15.04 0.946237
    endloop
  endfacet
  facet normal -0 0.133121 0.9911
    outer loop
      vertex 5 -15.04 0.946237
      vertex 15 -16.9081 1.19716
      vertex 15 -15.04 0.946237
    endloop
  endfacet
  facet normal 0 0.133121 0.9911
    outer loop
      vertex 15 -16.9081 1.19716
      vertex 5 -15.04 0.946237
      vertex 5 -16.9081 1.19716
    endloop
  endfacet
  facet normal -0 0.488621 0.872496
    outer loop
      vertex 5 -57.8104 14.8432
      vertex 15 -59.455 15.7642
      vertex 15 -57.8104 14.8432
    endloop
  endfacet
  facet normal 0 0.488621 0.872496
    outer loop
      vertex 15 -59.455 15.7642
      vertex 5 -57.8104 14.8432
      vertex 5 -59.455 15.7642
    endloop
  endfacet
  facet normal -0 0.502266 0.864713
    outer loop
      vertex 5 -59.455 15.7642
      vertex 15 -59.9935 16.077
      vertex 15 -59.455 15.7642
    endloop
  endfacet
  facet normal 0 0.502266 0.864713
    outer loop
      vertex 15 -59.9935 16.077
      vertex 5 -59.455 15.7642
      vertex 5 -59.9935 16.077
    endloop
  endfacet
  facet normal -0 0.474856 0.880063
    outer loop
      vertex 5 -56.1516 13.9481
      vertex 15 -57.8104 14.8432
      vertex 15 -56.1516 13.9481
    endloop
  endfacet
  facet normal 0 0.474856 0.880063
    outer loop
      vertex 15 -57.8104 14.8432
      vertex 5 -56.1516 13.9481
      vertex 5 -57.8104 14.8432
    endloop
  endfacet
  facet normal 0 0.866025 -0.5
    outer loop
      vertex 15 46.9445 -10
      vertex -2.85079e-15 62 16.077
      vertex 15 62 16.077
    endloop
  endfacet
  facet normal 0 0.866025 -0.5
    outer loop
      vertex -2.85079e-15 62 16.077
      vertex 15 46.9445 -10
      vertex 1.77321e-15 46.9445 -10
    endloop
  endfacet
  facet normal 0 -0.866025 -0.5
    outer loop
      vertex 1.77321e-15 -46.9445 -10
      vertex 15 -62 16.077
      vertex -2.85079e-15 -62 16.077
    endloop
  endfacet
  facet normal 0 -0.866025 -0.5
    outer loop
      vertex 15 -62 16.077
      vertex 1.77321e-15 -46.9445 -10
      vertex 15 -46.9445 -10
    endloop
  endfacet
endsolid OpenSCAD_Model
