solid OpenSCAD_Model
  facet normal -0.951056 -0.309017 0
    outer loop
      vertex 12 30 -2.5
      vertex 11.618 31.1756 2.5
      vertex 11.618 31.1756 -2.5
    endloop
  endfacet
  facet normal -0.951056 -0.309017 0
    outer loop
      vertex 11.618 31.1756 2.5
      vertex 12 30 -2.5
      vertex 12 30 2.5
    endloop
  endfacet
  facet normal -0.587786 0.809017 0
    outer loop
      vertex 11.618 28.8244 -2.5
      vertex 10.618 28.0979 2.5
      vertex 11.618 28.8244 2.5
    endloop
  endfacet
  facet normal -0.587786 0.809017 0
    outer loop
      vertex 10.618 28.0979 2.5
      vertex 11.618 28.8244 -2.5
      vertex 10.618 28.0979 -2.5
    endloop
  endfacet
  facet normal 0.587785 -0.809017 0
    outer loop
      vertex 8.38197 31.1756 -2.5
      vertex 9.38197 31.9021 2.5
      vertex 8.38197 31.1756 2.5
    endloop
  endfacet
  facet normal 0.587785 -0.809017 0
    outer loop
      vertex 9.38197 31.9021 2.5
      vertex 8.38197 31.1756 -2.5
      vertex 9.38197 31.9021 -2.5
    endloop
  endfacet
  facet normal -0.587785 -0.809017 0
    outer loop
      vertex 10.618 31.9021 -2.5
      vertex 11.618 31.1756 2.5
      vertex 10.618 31.9021 2.5
    endloop
  endfacet
  facet normal -0.587785 -0.809017 -0
    outer loop
      vertex 11.618 31.1756 2.5
      vertex 10.618 31.9021 -2.5
      vertex 11.618 31.1756 -2.5
    endloop
  endfacet
  facet normal 0.951057 -0.309016 0
    outer loop
      vertex 8 30 2.5
      vertex 8.38197 31.1756 -2.5
      vertex 8.38197 31.1756 2.5
    endloop
  endfacet
  facet normal 0.951057 -0.309016 0
    outer loop
      vertex 8.38197 31.1756 -2.5
      vertex 8 30 2.5
      vertex 8 30 -2.5
    endloop
  endfacet
  facet normal -0.951056 0.309017 0
    outer loop
      vertex 11.618 28.8244 -2.5
      vertex 12 30 2.5
      vertex 12 30 -2.5
    endloop
  endfacet
  facet normal -0.951056 0.309017 0
    outer loop
      vertex 12 30 2.5
      vertex 11.618 28.8244 -2.5
      vertex 11.618 28.8244 2.5
    endloop
  endfacet
  facet normal 0 -1 0
    outer loop
      vertex 9.38197 31.9021 -2.5
      vertex 10.618 31.9021 2.5
      vertex 9.38197 31.9021 2.5
    endloop
  endfacet
  facet normal 0 -1 -0
    outer loop
      vertex 10.618 31.9021 2.5
      vertex 9.38197 31.9021 -2.5
      vertex 10.618 31.9021 -2.5
    endloop
  endfacet
  facet normal 0.951057 0.309016 0
    outer loop
      vertex 8.38197 28.8244 2.5
      vertex 8 30 -2.5
      vertex 8 30 2.5
    endloop
  endfacet
  facet normal 0.951057 0.309016 0
    outer loop
      vertex 8 30 -2.5
      vertex 8.38197 28.8244 2.5
      vertex 8.38197 28.8244 -2.5
    endloop
  endfacet
  facet normal 0 1 -0
    outer loop
      vertex 10.618 28.0979 -2.5
      vertex 9.38197 28.0979 2.5
      vertex 10.618 28.0979 2.5
    endloop
  endfacet
  facet normal 0 1 0
    outer loop
      vertex 9.38197 28.0979 2.5
      vertex 10.618 28.0979 -2.5
      vertex 9.38197 28.0979 -2.5
    endloop
  endfacet
  facet normal 0.587786 0.809017 -0
    outer loop
      vertex 9.38197 28.0979 -2.5
      vertex 8.38197 28.8244 2.5
      vertex 9.38197 28.0979 2.5
    endloop
  endfacet
  facet normal 0.587786 0.809017 0
    outer loop
      vertex 8.38197 28.8244 2.5
      vertex 9.38197 28.0979 -2.5
      vertex 8.38197 28.8244 -2.5
    endloop
  endfacet
  facet normal -0.951057 -0.309016 0
    outer loop
      vertex -8 30 -2.5
      vertex -8.38197 31.1756 2.5
      vertex -8.38197 31.1756 -2.5
    endloop
  endfacet
  facet normal -0.951057 -0.309016 0
    outer loop
      vertex -8.38197 31.1756 2.5
      vertex -8 30 -2.5
      vertex -8 30 2.5
    endloop
  endfacet
  facet normal 0.951056 -0.309017 0
    outer loop
      vertex -12 30 2.5
      vertex -11.618 31.1756 -2.5
      vertex -11.618 31.1756 2.5
    endloop
  endfacet
  facet normal 0.951056 -0.309017 0
    outer loop
      vertex -11.618 31.1756 -2.5
      vertex -12 30 2.5
      vertex -12 30 -2.5
    endloop
  endfacet
  facet normal 0 -1 0
    outer loop
      vertex -10.618 31.9021 -2.5
      vertex -9.38197 31.9021 2.5
      vertex -10.618 31.9021 2.5
    endloop
  endfacet
  facet normal 0 -1 -0
    outer loop
      vertex -9.38197 31.9021 2.5
      vertex -10.618 31.9021 -2.5
      vertex -9.38197 31.9021 -2.5
    endloop
  endfacet
  facet normal -0.587785 -0.809017 0
    outer loop
      vertex -9.38197 31.9021 -2.5
      vertex -8.38197 31.1756 2.5
      vertex -9.38197 31.9021 2.5
    endloop
  endfacet
  facet normal -0.587785 -0.809017 -0
    outer loop
      vertex -8.38197 31.1756 2.5
      vertex -9.38197 31.9021 -2.5
      vertex -8.38197 31.1756 -2.5
    endloop
  endfacet
  facet normal 0.587785 -0.809017 0
    outer loop
      vertex -11.618 31.1756 -2.5
      vertex -10.618 31.9021 2.5
      vertex -11.618 31.1756 2.5
    endloop
  endfacet
  facet normal 0.587785 -0.809017 0
    outer loop
      vertex -10.618 31.9021 2.5
      vertex -11.618 31.1756 -2.5
      vertex -10.618 31.9021 -2.5
    endloop
  endfacet
  facet normal 0 1 -0
    outer loop
      vertex -9.38197 28.0979 -2.5
      vertex -10.618 28.0979 2.5
      vertex -9.38197 28.0979 2.5
    endloop
  endfacet
  facet normal 0 1 0
    outer loop
      vertex -10.618 28.0979 2.5
      vertex -9.38197 28.0979 -2.5
      vertex -10.618 28.0979 -2.5
    endloop
  endfacet
  facet normal -0.951057 0.309016 0
    outer loop
      vertex -8.38197 28.8244 -2.5
      vertex -8 30 2.5
      vertex -8 30 -2.5
    endloop
  endfacet
  facet normal -0.951057 0.309016 0
    outer loop
      vertex -8 30 2.5
      vertex -8.38197 28.8244 -2.5
      vertex -8.38197 28.8244 2.5
    endloop
  endfacet
  facet normal -0.587786 0.809017 0
    outer loop
      vertex -8.38197 28.8244 -2.5
      vertex -9.38197 28.0979 2.5
      vertex -8.38197 28.8244 2.5
    endloop
  endfacet
  facet normal -0.587786 0.809017 0
    outer loop
      vertex -9.38197 28.0979 2.5
      vertex -8.38197 28.8244 -2.5
      vertex -9.38197 28.0979 -2.5
    endloop
  endfacet
  facet normal 0.587786 0.809017 -0
    outer loop
      vertex -10.618 28.0979 -2.5
      vertex -11.618 28.8244 2.5
      vertex -10.618 28.0979 2.5
    endloop
  endfacet
  facet normal 0.587786 0.809017 0
    outer loop
      vertex -11.618 28.8244 2.5
      vertex -10.618 28.0979 -2.5
      vertex -11.618 28.8244 -2.5
    endloop
  endfacet
  facet normal 0.951056 0.309017 0
    outer loop
      vertex -11.618 28.8244 2.5
      vertex -12 30 -2.5
      vertex -12 30 2.5
    endloop
  endfacet
  facet normal 0.951056 0.309017 0
    outer loop
      vertex -12 30 -2.5
      vertex -11.618 28.8244 2.5
      vertex -11.618 28.8244 -2.5
    endloop
  endfacet
  facet normal -0.951056 -0.309017 0
    outer loop
      vertex 12 -30 -2.5
      vertex 11.618 -28.8244 2.5
      vertex 11.618 -28.8244 -2.5
    endloop
  endfacet
  facet normal -0.951056 -0.309017 0
    outer loop
      vertex 11.618 -28.8244 2.5
      vertex 12 -30 -2.5
      vertex 12 -30 2.5
    endloop
  endfacet
  facet normal 0.587786 -0.809017 0
    outer loop
      vertex 8.38197 -28.8244 -2.5
      vertex 9.38197 -28.0979 2.5
      vertex 8.38197 -28.8244 2.5
    endloop
  endfacet
  facet normal 0.587786 -0.809017 0
    outer loop
      vertex 9.38197 -28.0979 2.5
      vertex 8.38197 -28.8244 -2.5
      vertex 9.38197 -28.0979 -2.5
    endloop
  endfacet
  facet normal -0.587786 -0.809017 0
    outer loop
      vertex 10.618 -28.0979 -2.5
      vertex 11.618 -28.8244 2.5
      vertex 10.618 -28.0979 2.5
    endloop
  endfacet
  facet normal -0.587786 -0.809017 -0
    outer loop
      vertex 11.618 -28.8244 2.5
      vertex 10.618 -28.0979 -2.5
      vertex 11.618 -28.8244 -2.5
    endloop
  endfacet
  facet normal 0.951057 -0.309016 0
    outer loop
      vertex 8 -30 2.5
      vertex 8.38197 -28.8244 -2.5
      vertex 8.38197 -28.8244 2.5
    endloop
  endfacet
  facet normal 0.951057 -0.309016 0
    outer loop
      vertex 8.38197 -28.8244 -2.5
      vertex 8 -30 2.5
      vertex 8 -30 -2.5
    endloop
  endfacet
  facet normal 0 -1 0
    outer loop
      vertex 9.38197 -28.0979 -2.5
      vertex 10.618 -28.0979 2.5
      vertex 9.38197 -28.0979 2.5
    endloop
  endfacet
  facet normal 0 -1 -0
    outer loop
      vertex 10.618 -28.0979 2.5
      vertex 9.38197 -28.0979 -2.5
      vertex 10.618 -28.0979 -2.5
    endloop
  endfacet
  facet normal 0.951057 0.309016 0
    outer loop
      vertex 8.38197 -31.1756 2.5
      vertex 8 -30 -2.5
      vertex 8 -30 2.5
    endloop
  endfacet
  facet normal 0.951057 0.309016 0
    outer loop
      vertex 8 -30 -2.5
      vertex 8.38197 -31.1756 2.5
      vertex 8.38197 -31.1756 -2.5
    endloop
  endfacet
  facet normal 0 1 -0
    outer loop
      vertex 10.618 -31.9021 -2.5
      vertex 9.38197 -31.9021 2.5
      vertex 10.618 -31.9021 2.5
    endloop
  endfacet
  facet normal 0 1 0
    outer loop
      vertex 9.38197 -31.9021 2.5
      vertex 10.618 -31.9021 -2.5
      vertex 9.38197 -31.9021 -2.5
    endloop
  endfacet
  facet normal 0.587785 0.809017 -0
    outer loop
      vertex 9.38197 -31.9021 -2.5
      vertex 8.38197 -31.1756 2.5
      vertex 9.38197 -31.9021 2.5
    endloop
  endfacet
  facet normal 0.587785 0.809017 0
    outer loop
      vertex 8.38197 -31.1756 2.5
      vertex 9.38197 -31.9021 -2.5
      vertex 8.38197 -31.1756 -2.5
    endloop
  endfacet
  facet normal -0.951056 0.309017 0
    outer loop
      vertex 11.618 -31.1756 -2.5
      vertex 12 -30 2.5
      vertex 12 -30 -2.5
    endloop
  endfacet
  facet normal -0.951056 0.309017 0
    outer loop
      vertex 12 -30 2.5
      vertex 11.618 -31.1756 -2.5
      vertex 11.618 -31.1756 2.5
    endloop
  endfacet
  facet normal -0.587785 0.809017 0
    outer loop
      vertex 11.618 -31.1756 -2.5
      vertex 10.618 -31.9021 2.5
      vertex 11.618 -31.1756 2.5
    endloop
  endfacet
  facet normal -0.587785 0.809017 0
    outer loop
      vertex 10.618 -31.9021 2.5
      vertex 11.618 -31.1756 -2.5
      vertex 10.618 -31.9021 -2.5
    endloop
  endfacet
  facet normal -0.951057 -0.309016 0
    outer loop
      vertex -8 -30 -2.5
      vertex -8.38197 -28.8244 2.5
      vertex -8.38197 -28.8244 -2.5
    endloop
  endfacet
  facet normal -0.951057 -0.309016 0
    outer loop
      vertex -8.38197 -28.8244 2.5
      vertex -8 -30 -2.5
      vertex -8 -30 2.5
    endloop
  endfacet
  facet normal 0.951056 -0.309017 0
    outer loop
      vertex -12 -30 2.5
      vertex -11.618 -28.8244 -2.5
      vertex -11.618 -28.8244 2.5
    endloop
  endfacet
  facet normal 0.951056 -0.309017 0
    outer loop
      vertex -11.618 -28.8244 -2.5
      vertex -12 -30 2.5
      vertex -12 -30 -2.5
    endloop
  endfacet
  facet normal 0 1 -0
    outer loop
      vertex -9.38197 -31.9021 -2.5
      vertex -10.618 -31.9021 2.5
      vertex -9.38197 -31.9021 2.5
    endloop
  endfacet
  facet normal 0 1 0
    outer loop
      vertex -10.618 -31.9021 2.5
      vertex -9.38197 -31.9021 -2.5
      vertex -10.618 -31.9021 -2.5
    endloop
  endfacet
  facet normal 0 -1 0
    outer loop
      vertex -10.618 -28.0979 -2.5
      vertex -9.38197 -28.0979 2.5
      vertex -10.618 -28.0979 2.5
    endloop
  endfacet
  facet normal 0 -1 -0
    outer loop
      vertex -9.38197 -28.0979 2.5
      vertex -10.618 -28.0979 -2.5
      vertex -9.38197 -28.0979 -2.5
    endloop
  endfacet
  facet normal -0.587786 -0.809017 0
    outer loop
      vertex -9.38197 -28.0979 -2.5
      vertex -8.38197 -28.8244 2.5
      vertex -9.38197 -28.0979 2.5
    endloop
  endfacet
  facet normal -0.587786 -0.809017 -0
    outer loop
      vertex -8.38197 -28.8244 2.5
      vertex -9.38197 -28.0979 -2.5
      vertex -8.38197 -28.8244 -2.5
    endloop
  endfacet
  facet normal 0.587786 -0.809017 0
    outer loop
      vertex -11.618 -28.8244 -2.5
      vertex -10.618 -28.0979 2.5
      vertex -11.618 -28.8244 2.5
    endloop
  endfacet
  facet normal 0.587786 -0.809017 0
    outer loop
      vertex -10.618 -28.0979 2.5
      vertex -11.618 -28.8244 -2.5
      vertex -10.618 -28.0979 -2.5
    endloop
  endfacet
  facet normal -0.951057 0.309016 0
    outer loop
      vertex -8.38197 -31.1756 -2.5
      vertex -8 -30 2.5
      vertex -8 -30 -2.5
    endloop
  endfacet
  facet normal -0.951057 0.309016 0
    outer loop
      vertex -8 -30 2.5
      vertex -8.38197 -31.1756 -2.5
      vertex -8.38197 -31.1756 2.5
    endloop
  endfacet
  facet normal 0.951056 0.309017 0
    outer loop
      vertex -11.618 -31.1756 2.5
      vertex -12 -30 -2.5
      vertex -12 -30 2.5
    endloop
  endfacet
  facet normal 0.951056 0.309017 0
    outer loop
      vertex -12 -30 -2.5
      vertex -11.618 -31.1756 2.5
      vertex -11.618 -31.1756 -2.5
    endloop
  endfacet
  facet normal -0.587785 0.809017 0
    outer loop
      vertex -8.38197 -31.1756 -2.5
      vertex -9.38197 -31.9021 2.5
      vertex -8.38197 -31.1756 2.5
    endloop
  endfacet
  facet normal -0.587785 0.809017 0
    outer loop
      vertex -9.38197 -31.9021 2.5
      vertex -8.38197 -31.1756 -2.5
      vertex -9.38197 -31.9021 -2.5
    endloop
  endfacet
  facet normal 0.587785 0.809017 -0
    outer loop
      vertex -10.618 -31.9021 -2.5
      vertex -11.618 -31.1756 2.5
      vertex -10.618 -31.9021 2.5
    endloop
  endfacet
  facet normal 0.587785 0.809017 0
    outer loop
      vertex -11.618 -31.1756 2.5
      vertex -10.618 -31.9021 -2.5
      vertex -11.618 -31.1756 -2.5
    endloop
  endfacet
  facet normal -1 0 0
    outer loop
      vertex -15 -37.5 -2.5
      vertex -15 37.5 2.5
      vertex -15 37.5 -2.5
    endloop
  endfacet
  facet normal -1 -0 0
    outer loop
      vertex -15 37.5 2.5
      vertex -15 -37.5 -2.5
      vertex -15 -37.5 2.5
    endloop
  endfacet
  facet normal 0 0 1
    outer loop
      vertex -11.618 28.8244 2.5
      vertex -5.05636 3.67366 2.5
      vertex -10.618 28.0979 2.5
    endloop
  endfacet
  facet normal 0 0 1
    outer loop
      vertex -6.25 0 2.5
      vertex -8.38197 -28.8244 2.5
      vertex -8 -30 2.5
    endloop
  endfacet
  facet normal 0 0 1
    outer loop
      vertex -5.05636 3.67366 2.5
      vertex -11.618 28.8244 2.5
      vertex -5.9441 1.93136 2.5
    endloop
  endfacet
  facet normal 0 0 1
    outer loop
      vertex -6.25 0 2.5
      vertex -9.38197 -28.0979 2.5
      vertex -8.38197 -28.8244 2.5
    endloop
  endfacet
  facet normal 0 0 1
    outer loop
      vertex -5.9441 1.93136 2.5
      vertex -11.618 28.8244 2.5
      vertex -6.25 0 2.5
    endloop
  endfacet
  facet normal 0 0 1
    outer loop
      vertex -6.25 0 2.5
      vertex -10.618 -28.0979 2.5
      vertex -9.38197 -28.0979 2.5
    endloop
  endfacet
  facet normal 0 0 1
    outer loop
      vertex -11.618 -28.8244 2.5
      vertex -6.25 0 2.5
      vertex -11.618 28.8244 2.5
    endloop
  endfacet
  facet normal 0 0 1
    outer loop
      vertex -6.25 0 2.5
      vertex -11.618 -28.8244 2.5
      vertex -10.618 -28.0979 2.5
    endloop
  endfacet
  facet normal 0 0 1
    outer loop
      vertex -15 37.5 2.5
      vertex -11.618 28.8244 2.5
      vertex -12 30 2.5
    endloop
  endfacet
  facet normal 0 0 1
    outer loop
      vertex -11.618 28.8244 2.5
      vertex -15 37.5 2.5
      vertex -11.618 -28.8244 2.5
    endloop
  endfacet
  facet normal -0 0 1
    outer loop
      vertex 11.618 -28.8244 2.5
      vertex 15 -37.5 2.5
      vertex 11.618 28.8244 2.5
    endloop
  endfacet
  facet normal 0 0 1
    outer loop
      vertex 15 -37.5 2.5
      vertex 11.618 -28.8244 2.5
      vertex 12 -30 2.5
    endloop
  endfacet
  facet normal 0 0 1
    outer loop
      vertex 5.05636 3.67366 2.5
      vertex 11.618 28.8244 2.5
      vertex 10.618 28.0979 2.5
    endloop
  endfacet
  facet normal 0 0 1
    outer loop
      vertex 11.618 28.8244 2.5
      vertex 6.25 0 2.5
      vertex 11.618 -28.8244 2.5
    endloop
  endfacet
  facet normal 0 0 1
    outer loop
      vertex 3.67366 5.05636 2.5
      vertex 10.618 28.0979 2.5
      vertex 9.38197 28.0979 2.5
    endloop
  endfacet
  facet normal -0 0 1
    outer loop
      vertex 5.9441 -1.93136 2.5
      vertex 11.618 -28.8244 2.5
      vertex 6.25 0 2.5
    endloop
  endfacet
  facet normal 0 0 1
    outer loop
      vertex 0 6.25 2.5
      vertex 9.38197 28.0979 2.5
      vertex 8.38197 28.8244 2.5
    endloop
  endfacet
  facet normal -0 0 1
    outer loop
      vertex 5.05636 -3.67366 2.5
      vertex 11.618 -28.8244 2.5
      vertex 5.9441 -1.93136 2.5
    endloop
  endfacet
  facet normal -0 0 1
    outer loop
      vertex -8 30 2.5
      vertex 8.38197 28.8244 2.5
      vertex 8 30 2.5
    endloop
  endfacet
  facet normal 0 0 1
    outer loop
      vertex 11.618 -28.8244 2.5
      vertex 5.05636 -3.67366 2.5
      vertex 10.618 -28.0979 2.5
    endloop
  endfacet
  facet normal 0 0 1
    outer loop
      vertex 11.618 28.8244 2.5
      vertex 15 37.5 2.5
      vertex 12 30 2.5
    endloop
  endfacet
  facet normal 0 0 1
    outer loop
      vertex 15 37.5 2.5
      vertex 11.618 31.1756 2.5
      vertex 12 30 2.5
    endloop
  endfacet
  facet normal 0 0 1
    outer loop
      vertex 15 37.5 2.5
      vertex 10.618 31.9021 2.5
      vertex 11.618 31.1756 2.5
    endloop
  endfacet
  facet normal 0 0 1
    outer loop
      vertex 15 37.5 2.5
      vertex 9.38197 31.9021 2.5
      vertex 10.618 31.9021 2.5
    endloop
  endfacet
  facet normal 0 0 1
    outer loop
      vertex -9.38197 31.9021 2.5
      vertex 9.38197 31.9021 2.5
      vertex 15 37.5 2.5
    endloop
  endfacet
  facet normal -0 0 1
    outer loop
      vertex 3.67366 -5.05636 2.5
      vertex 10.618 -28.0979 2.5
      vertex 5.05636 -3.67366 2.5
    endloop
  endfacet
  facet normal 0 0 1
    outer loop
      vertex 11.618 28.8244 2.5
      vertex 5.9441 1.93136 2.5
      vertex 6.25 0 2.5
    endloop
  endfacet
  facet normal 0 0 1
    outer loop
      vertex 11.618 28.8244 2.5
      vertex 5.05636 3.67366 2.5
      vertex 5.9441 1.93136 2.5
    endloop
  endfacet
  facet normal 0 0 1
    outer loop
      vertex 10.618 28.0979 2.5
      vertex 3.67366 5.05636 2.5
      vertex 5.05636 3.67366 2.5
    endloop
  endfacet
  facet normal 0 0 1
    outer loop
      vertex 9.38197 28.0979 2.5
      vertex 1.93136 5.9441 2.5
      vertex 3.67366 5.05636 2.5
    endloop
  endfacet
  facet normal 0 0 1
    outer loop
      vertex 9.38197 28.0979 2.5
      vertex 0 6.25 2.5
      vertex 1.93136 5.9441 2.5
    endloop
  endfacet
  facet normal 0 0 1
    outer loop
      vertex -8 30 2.5
      vertex 8 30 2.5
      vertex 8.38197 31.1756 2.5
    endloop
  endfacet
  facet normal 0 0 1
    outer loop
      vertex -8.38197 28.8244 2.5
      vertex 8.38197 28.8244 2.5
      vertex -8 30 2.5
    endloop
  endfacet
  facet normal 0 0 1
    outer loop
      vertex 8.38197 28.8244 2.5
      vertex -8.38197 28.8244 2.5
      vertex 0 6.25 2.5
    endloop
  endfacet
  facet normal -0 0 1
    outer loop
      vertex -9.38197 28.0979 2.5
      vertex 0 6.25 2.5
      vertex -8.38197 28.8244 2.5
    endloop
  endfacet
  facet normal 0 0 1
    outer loop
      vertex 0 6.25 2.5
      vertex -9.38197 28.0979 2.5
      vertex -1.93136 5.9441 2.5
    endloop
  endfacet
  facet normal -0 0 1
    outer loop
      vertex -10.618 28.0979 2.5
      vertex -3.67366 5.05636 2.5
      vertex -9.38197 28.0979 2.5
    endloop
  endfacet
  facet normal 0 0 1
    outer loop
      vertex -1.93136 5.9441 2.5
      vertex -9.38197 28.0979 2.5
      vertex -3.67366 5.05636 2.5
    endloop
  endfacet
  facet normal 0 0 1
    outer loop
      vertex 9.38197 31.9021 2.5
      vertex -9.38197 31.9021 2.5
      vertex 8.38197 31.1756 2.5
    endloop
  endfacet
  facet normal 0 0 1
    outer loop
      vertex 8.38197 31.1756 2.5
      vertex -8.38197 31.1756 2.5
      vertex -8 30 2.5
    endloop
  endfacet
  facet normal 0 0 1
    outer loop
      vertex 8.38197 31.1756 2.5
      vertex -9.38197 31.9021 2.5
      vertex -8.38197 31.1756 2.5
    endloop
  endfacet
  facet normal -0 0 1
    outer loop
      vertex -15 37.5 2.5
      vertex -9.38197 31.9021 2.5
      vertex 15 37.5 2.5
    endloop
  endfacet
  facet normal 0 0 1
    outer loop
      vertex -15 -37.5 2.5
      vertex -11.618 -28.8244 2.5
      vertex -15 37.5 2.5
    endloop
  endfacet
  facet normal 0 0 1
    outer loop
      vertex -11.618 31.1756 2.5
      vertex -15 37.5 2.5
      vertex -12 30 2.5
    endloop
  endfacet
  facet normal 0 0 1
    outer loop
      vertex -10.618 31.9021 2.5
      vertex -15 37.5 2.5
      vertex -11.618 31.1756 2.5
    endloop
  endfacet
  facet normal 0 0 1
    outer loop
      vertex -9.38197 31.9021 2.5
      vertex -15 37.5 2.5
      vertex -10.618 31.9021 2.5
    endloop
  endfacet
  facet normal 0 0 1
    outer loop
      vertex 15 37.5 2.5
      vertex 11.618 28.8244 2.5
      vertex 15 -37.5 2.5
    endloop
  endfacet
  facet normal -0 0 1
    outer loop
      vertex 11.618 -31.1756 2.5
      vertex 15 -37.5 2.5
      vertex 12 -30 2.5
    endloop
  endfacet
  facet normal -0 0 1
    outer loop
      vertex 10.618 -31.9021 2.5
      vertex 15 -37.5 2.5
      vertex 11.618 -31.1756 2.5
    endloop
  endfacet
  facet normal -0 0 1
    outer loop
      vertex 9.38197 -31.9021 2.5
      vertex 15 -37.5 2.5
      vertex 10.618 -31.9021 2.5
    endloop
  endfacet
  facet normal 0 0 1
    outer loop
      vertex -9.38197 -31.9021 2.5
      vertex 9.38197 -31.9021 2.5
      vertex 8.38197 -31.1756 2.5
    endloop
  endfacet
  facet normal 0 0 1
    outer loop
      vertex 10.618 -28.0979 2.5
      vertex 3.67366 -5.05636 2.5
      vertex 9.38197 -28.0979 2.5
    endloop
  endfacet
  facet normal -0 0 1
    outer loop
      vertex 1.93136 -5.9441 2.5
      vertex 9.38197 -28.0979 2.5
      vertex 3.67366 -5.05636 2.5
    endloop
  endfacet
  facet normal -0 0 1
    outer loop
      vertex 0 -6.25 2.5
      vertex 9.38197 -28.0979 2.5
      vertex 1.93136 -5.9441 2.5
    endloop
  endfacet
  facet normal 0 0 1
    outer loop
      vertex 9.38197 -28.0979 2.5
      vertex 0 -6.25 2.5
      vertex 8.38197 -28.8244 2.5
    endloop
  endfacet
  facet normal 0 0 1
    outer loop
      vertex -8 -30 2.5
      vertex 8.38197 -28.8244 2.5
      vertex 0 -6.25 2.5
    endloop
  endfacet
  facet normal 0 0 1
    outer loop
      vertex 8.38197 -28.8244 2.5
      vertex -8 -30 2.5
      vertex 8 -30 2.5
    endloop
  endfacet
  facet normal 0 0 1
    outer loop
      vertex -8 -30 2.5
      vertex 0 -6.25 2.5
      vertex -1.93136 -5.9441 2.5
    endloop
  endfacet
  facet normal 0 0 1
    outer loop
      vertex -8 -30 2.5
      vertex -1.93136 -5.9441 2.5
      vertex -3.67366 -5.05636 2.5
    endloop
  endfacet
  facet normal 0 0 1
    outer loop
      vertex -8 -30 2.5
      vertex -3.67366 -5.05636 2.5
      vertex -5.05636 -3.67366 2.5
    endloop
  endfacet
  facet normal 0 0 1
    outer loop
      vertex -8 -30 2.5
      vertex -5.05636 -3.67366 2.5
      vertex -5.9441 -1.93136 2.5
    endloop
  endfacet
  facet normal 0 0 1
    outer loop
      vertex -3.67366 5.05636 2.5
      vertex -10.618 28.0979 2.5
      vertex -5.05636 3.67366 2.5
    endloop
  endfacet
  facet normal 0 0 1
    outer loop
      vertex -8 -30 2.5
      vertex -5.9441 -1.93136 2.5
      vertex -6.25 0 2.5
    endloop
  endfacet
  facet normal 0 0 1
    outer loop
      vertex 8 -30 2.5
      vertex -8 -30 2.5
      vertex 8.38197 -31.1756 2.5
    endloop
  endfacet
  facet normal 0 0 1
    outer loop
      vertex -8.38197 -31.1756 2.5
      vertex 8.38197 -31.1756 2.5
      vertex -8 -30 2.5
    endloop
  endfacet
  facet normal 0 0 1
    outer loop
      vertex -9.38197 -31.9021 2.5
      vertex 8.38197 -31.1756 2.5
      vertex -8.38197 -31.1756 2.5
    endloop
  endfacet
  facet normal 0 0 1
    outer loop
      vertex 9.38197 -31.9021 2.5
      vertex -9.38197 -31.9021 2.5
      vertex 15 -37.5 2.5
    endloop
  endfacet
  facet normal 0 0 1
    outer loop
      vertex -15 -37.5 2.5
      vertex -9.38197 -31.9021 2.5
      vertex -10.618 -31.9021 2.5
    endloop
  endfacet
  facet normal 0 0 1
    outer loop
      vertex -9.38197 -31.9021 2.5
      vertex -15 -37.5 2.5
      vertex 15 -37.5 2.5
    endloop
  endfacet
  facet normal 0 0 1
    outer loop
      vertex -11.618 -31.1756 2.5
      vertex -15 -37.5 2.5
      vertex -10.618 -31.9021 2.5
    endloop
  endfacet
  facet normal 0 0 1
    outer loop
      vertex -12 -30 2.5
      vertex -15 -37.5 2.5
      vertex -11.618 -31.1756 2.5
    endloop
  endfacet
  facet normal 0 0 1
    outer loop
      vertex -11.618 -28.8244 2.5
      vertex -15 -37.5 2.5
      vertex -12 -30 2.5
    endloop
  endfacet
  facet normal 1 -0 0
    outer loop
      vertex 15 -37.5 2.5
      vertex 15 37.5 -2.5
      vertex 15 37.5 2.5
    endloop
  endfacet
  facet normal 1 0 0
    outer loop
      vertex 15 37.5 -2.5
      vertex 15 -37.5 2.5
      vertex 15 -37.5 -2.5
    endloop
  endfacet
  facet normal 0 1 -0
    outer loop
      vertex 15 37.5 -2.5
      vertex -15 37.5 2.5
      vertex 15 37.5 2.5
    endloop
  endfacet
  facet normal 0 1 0
    outer loop
      vertex -15 37.5 2.5
      vertex 15 37.5 -2.5
      vertex -15 37.5 -2.5
    endloop
  endfacet
  facet normal 0 0 -1
    outer loop
      vertex -11.618 -28.8244 -2.5
      vertex -5.05636 -3.67366 -2.5
      vertex -10.618 -28.0979 -2.5
    endloop
  endfacet
  facet normal 0 0 -1
    outer loop
      vertex -6.25 0 -2.5
      vertex -8.38197 28.8244 -2.5
      vertex -8 30 -2.5
    endloop
  endfacet
  facet normal -0 0 -1
    outer loop
      vertex -5.05636 -3.67366 -2.5
      vertex -11.618 -28.8244 -2.5
      vertex -5.9441 -1.93136 -2.5
    endloop
  endfacet
  facet normal 0 0 -1
    outer loop
      vertex -6.25 0 -2.5
      vertex -9.38197 28.0979 -2.5
      vertex -8.38197 28.8244 -2.5
    endloop
  endfacet
  facet normal -0 0 -1
    outer loop
      vertex -5.9441 -1.93136 -2.5
      vertex -11.618 -28.8244 -2.5
      vertex -6.25 0 -2.5
    endloop
  endfacet
  facet normal 0 0 -1
    outer loop
      vertex -6.25 0 -2.5
      vertex -10.618 28.0979 -2.5
      vertex -9.38197 28.0979 -2.5
    endloop
  endfacet
  facet normal 0 0 -1
    outer loop
      vertex -11.618 28.8244 -2.5
      vertex -6.25 0 -2.5
      vertex -11.618 -28.8244 -2.5
    endloop
  endfacet
  facet normal 0 0 -1
    outer loop
      vertex -6.25 0 -2.5
      vertex -11.618 28.8244 -2.5
      vertex -10.618 28.0979 -2.5
    endloop
  endfacet
  facet normal 0 0 -1
    outer loop
      vertex -15 -37.5 -2.5
      vertex -11.618 -28.8244 -2.5
      vertex -12 -30 -2.5
    endloop
  endfacet
  facet normal -0 0 -1
    outer loop
      vertex -11.618 -28.8244 -2.5
      vertex -15 -37.5 -2.5
      vertex -11.618 28.8244 -2.5
    endloop
  endfacet
  facet normal 0 0 -1
    outer loop
      vertex 11.618 28.8244 -2.5
      vertex 15 37.5 -2.5
      vertex 11.618 -28.8244 -2.5
    endloop
  endfacet
  facet normal 0 0 -1
    outer loop
      vertex 15 37.5 -2.5
      vertex 11.618 28.8244 -2.5
      vertex 12 30 -2.5
    endloop
  endfacet
  facet normal 0 0 -1
    outer loop
      vertex 5.05636 -3.67366 -2.5
      vertex 11.618 -28.8244 -2.5
      vertex 10.618 -28.0979 -2.5
    endloop
  endfacet
  facet normal 0 0 -1
    outer loop
      vertex 11.618 -28.8244 -2.5
      vertex 6.25 0 -2.5
      vertex 11.618 28.8244 -2.5
    endloop
  endfacet
  facet normal 0 0 -1
    outer loop
      vertex 3.67366 -5.05636 -2.5
      vertex 10.618 -28.0979 -2.5
      vertex 9.38197 -28.0979 -2.5
    endloop
  endfacet
  facet normal 0 0 -1
    outer loop
      vertex 5.9441 1.93136 -2.5
      vertex 11.618 28.8244 -2.5
      vertex 6.25 0 -2.5
    endloop
  endfacet
  facet normal 0 0 -1
    outer loop
      vertex 0 -6.25 -2.5
      vertex 9.38197 -28.0979 -2.5
      vertex 8.38197 -28.8244 -2.5
    endloop
  endfacet
  facet normal 0 0 -1
    outer loop
      vertex 5.05636 3.67366 -2.5
      vertex 11.618 28.8244 -2.5
      vertex 5.9441 1.93136 -2.5
    endloop
  endfacet
  facet normal 0 0 -1
    outer loop
      vertex -8 -30 -2.5
      vertex 8.38197 -28.8244 -2.5
      vertex 8 -30 -2.5
    endloop
  endfacet
  facet normal 0 0 -1
    outer loop
      vertex 11.618 28.8244 -2.5
      vertex 5.05636 3.67366 -2.5
      vertex 10.618 28.0979 -2.5
    endloop
  endfacet
  facet normal 0 0 -1
    outer loop
      vertex 11.618 -28.8244 -2.5
      vertex 15 -37.5 -2.5
      vertex 12 -30 -2.5
    endloop
  endfacet
  facet normal 0 0 -1
    outer loop
      vertex 15 -37.5 -2.5
      vertex 11.618 -31.1756 -2.5
      vertex 12 -30 -2.5
    endloop
  endfacet
  facet normal 0 0 -1
    outer loop
      vertex 15 -37.5 -2.5
      vertex 10.618 -31.9021 -2.5
      vertex 11.618 -31.1756 -2.5
    endloop
  endfacet
  facet normal 0 0 -1
    outer loop
      vertex 15 -37.5 -2.5
      vertex 9.38197 -31.9021 -2.5
      vertex 10.618 -31.9021 -2.5
    endloop
  endfacet
  facet normal 0 0 -1
    outer loop
      vertex -9.38197 -31.9021 -2.5
      vertex 9.38197 -31.9021 -2.5
      vertex 15 -37.5 -2.5
    endloop
  endfacet
  facet normal 0 0 -1
    outer loop
      vertex 3.67366 5.05636 -2.5
      vertex 10.618 28.0979 -2.5
      vertex 5.05636 3.67366 -2.5
    endloop
  endfacet
  facet normal 0 0 -1
    outer loop
      vertex 11.618 -28.8244 -2.5
      vertex 5.9441 -1.93136 -2.5
      vertex 6.25 0 -2.5
    endloop
  endfacet
  facet normal 0 0 -1
    outer loop
      vertex 11.618 -28.8244 -2.5
      vertex 5.05636 -3.67366 -2.5
      vertex 5.9441 -1.93136 -2.5
    endloop
  endfacet
  facet normal 0 0 -1
    outer loop
      vertex 10.618 -28.0979 -2.5
      vertex 3.67366 -5.05636 -2.5
      vertex 5.05636 -3.67366 -2.5
    endloop
  endfacet
  facet normal 0 0 -1
    outer loop
      vertex 9.38197 -28.0979 -2.5
      vertex 1.93136 -5.9441 -2.5
      vertex 3.67366 -5.05636 -2.5
    endloop
  endfacet
  facet normal 0 0 -1
    outer loop
      vertex 9.38197 -28.0979 -2.5
      vertex 0 -6.25 -2.5
      vertex 1.93136 -5.9441 -2.5
    endloop
  endfacet
  facet normal 0 0 -1
    outer loop
      vertex -8 -30 -2.5
      vertex 8 -30 -2.5
      vertex 8.38197 -31.1756 -2.5
    endloop
  endfacet
  facet normal 0 0 -1
    outer loop
      vertex -8.38197 -28.8244 -2.5
      vertex 8.38197 -28.8244 -2.5
      vertex -8 -30 -2.5
    endloop
  endfacet
  facet normal 0 0 -1
    outer loop
      vertex 8.38197 -28.8244 -2.5
      vertex -8.38197 -28.8244 -2.5
      vertex 0 -6.25 -2.5
    endloop
  endfacet
  facet normal 0 0 -1
    outer loop
      vertex -9.38197 -28.0979 -2.5
      vertex 0 -6.25 -2.5
      vertex -8.38197 -28.8244 -2.5
    endloop
  endfacet
  facet normal -0 0 -1
    outer loop
      vertex 0 -6.25 -2.5
      vertex -9.38197 -28.0979 -2.5
      vertex -1.93136 -5.9441 -2.5
    endloop
  endfacet
  facet normal 0 0 -1
    outer loop
      vertex -10.618 -28.0979 -2.5
      vertex -3.67366 -5.05636 -2.5
      vertex -9.38197 -28.0979 -2.5
    endloop
  endfacet
  facet normal -0 0 -1
    outer loop
      vertex -1.93136 -5.9441 -2.5
      vertex -9.38197 -28.0979 -2.5
      vertex -3.67366 -5.05636 -2.5
    endloop
  endfacet
  facet normal 0 0 -1
    outer loop
      vertex 9.38197 -31.9021 -2.5
      vertex -9.38197 -31.9021 -2.5
      vertex 8.38197 -31.1756 -2.5
    endloop
  endfacet
  facet normal 0 0 -1
    outer loop
      vertex 8.38197 -31.1756 -2.5
      vertex -8.38197 -31.1756 -2.5
      vertex -8 -30 -2.5
    endloop
  endfacet
  facet normal -0 0 -1
    outer loop
      vertex 8.38197 -31.1756 -2.5
      vertex -9.38197 -31.9021 -2.5
      vertex -8.38197 -31.1756 -2.5
    endloop
  endfacet
  facet normal 0 0 -1
    outer loop
      vertex -15 -37.5 -2.5
      vertex -9.38197 -31.9021 -2.5
      vertex 15 -37.5 -2.5
    endloop
  endfacet
  facet normal 0 0 -1
    outer loop
      vertex -15 37.5 -2.5
      vertex -11.618 28.8244 -2.5
      vertex -15 -37.5 -2.5
    endloop
  endfacet
  facet normal -0 0 -1
    outer loop
      vertex -11.618 -31.1756 -2.5
      vertex -15 -37.5 -2.5
      vertex -12 -30 -2.5
    endloop
  endfacet
  facet normal -0 0 -1
    outer loop
      vertex -10.618 -31.9021 -2.5
      vertex -15 -37.5 -2.5
      vertex -11.618 -31.1756 -2.5
    endloop
  endfacet
  facet normal -0 0 -1
    outer loop
      vertex -9.38197 -31.9021 -2.5
      vertex -15 -37.5 -2.5
      vertex -10.618 -31.9021 -2.5
    endloop
  endfacet
  facet normal 0 0 -1
    outer loop
      vertex 15 -37.5 -2.5
      vertex 11.618 -28.8244 -2.5
      vertex 15 37.5 -2.5
    endloop
  endfacet
  facet normal 0 0 -1
    outer loop
      vertex 11.618 31.1756 -2.5
      vertex 15 37.5 -2.5
      vertex 12 30 -2.5
    endloop
  endfacet
  facet normal 0 0 -1
    outer loop
      vertex 10.618 31.9021 -2.5
      vertex 15 37.5 -2.5
      vertex 11.618 31.1756 -2.5
    endloop
  endfacet
  facet normal 0 0 -1
    outer loop
      vertex 9.38197 31.9021 -2.5
      vertex 15 37.5 -2.5
      vertex 10.618 31.9021 -2.5
    endloop
  endfacet
  facet normal 0 0 -1
    outer loop
      vertex -9.38197 31.9021 -2.5
      vertex 9.38197 31.9021 -2.5
      vertex 8.38197 31.1756 -2.5
    endloop
  endfacet
  facet normal -0 0 -1
    outer loop
      vertex 10.618 28.0979 -2.5
      vertex 3.67366 5.05636 -2.5
      vertex 9.38197 28.0979 -2.5
    endloop
  endfacet
  facet normal 0 0 -1
    outer loop
      vertex 1.93136 5.9441 -2.5
      vertex 9.38197 28.0979 -2.5
      vertex 3.67366 5.05636 -2.5
    endloop
  endfacet
  facet normal 0 0 -1
    outer loop
      vertex 0 6.25 -2.5
      vertex 9.38197 28.0979 -2.5
      vertex 1.93136 5.9441 -2.5
    endloop
  endfacet
  facet normal -0 0 -1
    outer loop
      vertex 9.38197 28.0979 -2.5
      vertex 0 6.25 -2.5
      vertex 8.38197 28.8244 -2.5
    endloop
  endfacet
  facet normal 0 0 -1
    outer loop
      vertex -8 30 -2.5
      vertex 8.38197 28.8244 -2.5
      vertex 0 6.25 -2.5
    endloop
  endfacet
  facet normal 0 0 -1
    outer loop
      vertex 8.38197 28.8244 -2.5
      vertex -8 30 -2.5
      vertex 8 30 -2.5
    endloop
  endfacet
  facet normal 0 0 -1
    outer loop
      vertex -8 30 -2.5
      vertex 0 6.25 -2.5
      vertex -1.93136 5.9441 -2.5
    endloop
  endfacet
  facet normal 0 0 -1
    outer loop
      vertex -8 30 -2.5
      vertex -1.93136 5.9441 -2.5
      vertex -3.67366 5.05636 -2.5
    endloop
  endfacet
  facet normal 0 0 -1
    outer loop
      vertex -8 30 -2.5
      vertex -3.67366 5.05636 -2.5
      vertex -5.05636 3.67366 -2.5
    endloop
  endfacet
  facet normal 0 0 -1
    outer loop
      vertex -8 30 -2.5
      vertex -5.05636 3.67366 -2.5
      vertex -5.9441 1.93136 -2.5
    endloop
  endfacet
  facet normal -0 0 -1
    outer loop
      vertex -3.67366 -5.05636 -2.5
      vertex -10.618 -28.0979 -2.5
      vertex -5.05636 -3.67366 -2.5
    endloop
  endfacet
  facet normal 0 0 -1
    outer loop
      vertex -8 30 -2.5
      vertex -5.9441 1.93136 -2.5
      vertex -6.25 0 -2.5
    endloop
  endfacet
  facet normal 0 0 -1
    outer loop
      vertex 8 30 -2.5
      vertex -8 30 -2.5
      vertex 8.38197 31.1756 -2.5
    endloop
  endfacet
  facet normal 0 0 -1
    outer loop
      vertex -8.38197 31.1756 -2.5
      vertex 8.38197 31.1756 -2.5
      vertex -8 30 -2.5
    endloop
  endfacet
  facet normal 0 0 -1
    outer loop
      vertex -9.38197 31.9021 -2.5
      vertex 8.38197 31.1756 -2.5
      vertex -8.38197 31.1756 -2.5
    endloop
  endfacet
  facet normal 0 0 -1
    outer loop
      vertex 9.38197 31.9021 -2.5
      vertex -9.38197 31.9021 -2.5
      vertex 15 37.5 -2.5
    endloop
  endfacet
  facet normal 0 0 -1
    outer loop
      vertex -15 37.5 -2.5
      vertex -9.38197 31.9021 -2.5
      vertex -10.618 31.9021 -2.5
    endloop
  endfacet
  facet normal 0 0 -1
    outer loop
      vertex -9.38197 31.9021 -2.5
      vertex -15 37.5 -2.5
      vertex 15 37.5 -2.5
    endloop
  endfacet
  facet normal 0 0 -1
    outer loop
      vertex -11.618 31.1756 -2.5
      vertex -15 37.5 -2.5
      vertex -10.618 31.9021 -2.5
    endloop
  endfacet
  facet normal 0 0 -1
    outer loop
      vertex -12 30 -2.5
      vertex -15 37.5 -2.5
      vertex -11.618 31.1756 -2.5
    endloop
  endfacet
  facet normal 0 0 -1
    outer loop
      vertex -11.618 28.8244 -2.5
      vertex -15 37.5 -2.5
      vertex -12 30 -2.5
    endloop
  endfacet
  facet normal 0 -1 0
    outer loop
      vertex -15 -37.5 -2.5
      vertex 15 -37.5 2.5
      vertex -15 -37.5 2.5
    endloop
  endfacet
  facet normal 0 -1 -0
    outer loop
      vertex 15 -37.5 2.5
      vertex -15 -37.5 -2.5
      vertex 15 -37.5 -2.5
    endloop
  endfacet
  facet normal -0.987688 -0.156435 0
    outer loop
      vertex 6.25 0 -2.5
      vertex 5.9441 1.93136 2.5
      vertex 5.9441 1.93136 -2.5
    endloop
  endfacet
  facet normal -0.987688 -0.156435 0
    outer loop
      vertex 5.9441 1.93136 2.5
      vertex 6.25 0 -2.5
      vertex 6.25 0 2.5
    endloop
  endfacet
  facet normal 0.987688 -0.156435 0
    outer loop
      vertex -6.25 0 2.5
      vertex -5.9441 1.93136 -2.5
      vertex -5.9441 1.93136 2.5
    endloop
  endfacet
  facet normal 0.987688 -0.156435 0
    outer loop
      vertex -5.9441 1.93136 -2.5
      vertex -6.25 0 2.5
      vertex -6.25 0 -2.5
    endloop
  endfacet
  facet normal -0.156435 -0.987688 0
    outer loop
      vertex 0 6.25 -2.5
      vertex 1.93136 5.9441 2.5
      vertex 0 6.25 2.5
    endloop
  endfacet
  facet normal -0.156435 -0.987688 -0
    outer loop
      vertex 1.93136 5.9441 2.5
      vertex 0 6.25 -2.5
      vertex 1.93136 5.9441 -2.5
    endloop
  endfacet
  facet normal 0.156435 0.987688 -0
    outer loop
      vertex 0 -6.25 -2.5
      vertex -1.93136 -5.9441 2.5
      vertex 0 -6.25 2.5
    endloop
  endfacet
  facet normal 0.156435 0.987688 0
    outer loop
      vertex -1.93136 -5.9441 2.5
      vertex 0 -6.25 -2.5
      vertex -1.93136 -5.9441 -2.5
    endloop
  endfacet
  facet normal -0.707107 -0.707107 0
    outer loop
      vertex 5.05636 3.67366 -2.5
      vertex 3.67366 5.05636 2.5
      vertex 3.67366 5.05636 -2.5
    endloop
  endfacet
  facet normal -0.707107 -0.707107 0
    outer loop
      vertex 3.67366 5.05636 2.5
      vertex 5.05636 3.67366 -2.5
      vertex 5.05636 3.67366 2.5
    endloop
  endfacet
  facet normal -0.891007 -0.45399 0
    outer loop
      vertex 5.9441 1.93136 -2.5
      vertex 5.05636 3.67366 2.5
      vertex 5.05636 3.67366 -2.5
    endloop
  endfacet
  facet normal -0.891007 -0.45399 0
    outer loop
      vertex 5.05636 3.67366 2.5
      vertex 5.9441 1.93136 -2.5
      vertex 5.9441 1.93136 2.5
    endloop
  endfacet
  facet normal -0.45399 -0.891007 0
    outer loop
      vertex 1.93136 5.9441 -2.5
      vertex 3.67366 5.05636 2.5
      vertex 1.93136 5.9441 2.5
    endloop
  endfacet
  facet normal -0.45399 -0.891007 -0
    outer loop
      vertex 3.67366 5.05636 2.5
      vertex 1.93136 5.9441 -2.5
      vertex 3.67366 5.05636 -2.5
    endloop
  endfacet
  facet normal 0.45399 -0.891007 0
    outer loop
      vertex -3.67366 5.05636 -2.5
      vertex -1.93136 5.9441 2.5
      vertex -3.67366 5.05636 2.5
    endloop
  endfacet
  facet normal 0.45399 -0.891007 0
    outer loop
      vertex -1.93136 5.9441 2.5
      vertex -3.67366 5.05636 -2.5
      vertex -1.93136 5.9441 -2.5
    endloop
  endfacet
  facet normal 0.707107 -0.707107 0
    outer loop
      vertex -5.05636 3.67366 2.5
      vertex -3.67366 5.05636 -2.5
      vertex -3.67366 5.05636 2.5
    endloop
  endfacet
  facet normal 0.707107 -0.707107 0
    outer loop
      vertex -3.67366 5.05636 -2.5
      vertex -5.05636 3.67366 2.5
      vertex -5.05636 3.67366 -2.5
    endloop
  endfacet
  facet normal 0.156435 -0.987688 0
    outer loop
      vertex -1.93136 5.9441 -2.5
      vertex 0 6.25 2.5
      vertex -1.93136 5.9441 2.5
    endloop
  endfacet
  facet normal 0.156435 -0.987688 0
    outer loop
      vertex 0 6.25 2.5
      vertex -1.93136 5.9441 -2.5
      vertex 0 6.25 -2.5
    endloop
  endfacet
  facet normal -0.891007 0.45399 0
    outer loop
      vertex 5.05636 -3.67366 -2.5
      vertex 5.9441 -1.93136 2.5
      vertex 5.9441 -1.93136 -2.5
    endloop
  endfacet
  facet normal -0.891007 0.45399 0
    outer loop
      vertex 5.9441 -1.93136 2.5
      vertex 5.05636 -3.67366 -2.5
      vertex 5.05636 -3.67366 2.5
    endloop
  endfacet
  facet normal 0.707107 0.707107 0
    outer loop
      vertex -3.67366 -5.05636 2.5
      vertex -5.05636 -3.67366 -2.5
      vertex -5.05636 -3.67366 2.5
    endloop
  endfacet
  facet normal 0.707107 0.707107 0
    outer loop
      vertex -5.05636 -3.67366 -2.5
      vertex -3.67366 -5.05636 2.5
      vertex -3.67366 -5.05636 -2.5
    endloop
  endfacet
  facet normal 0.987688 0.156435 0
    outer loop
      vertex -5.9441 -1.93136 2.5
      vertex -6.25 0 -2.5
      vertex -6.25 0 2.5
    endloop
  endfacet
  facet normal 0.987688 0.156435 0
    outer loop
      vertex -6.25 0 -2.5
      vertex -5.9441 -1.93136 2.5
      vertex -5.9441 -1.93136 -2.5
    endloop
  endfacet
  facet normal 0.891007 -0.45399 0
    outer loop
      vertex -5.9441 1.93136 2.5
      vertex -5.05636 3.67366 -2.5
      vertex -5.05636 3.67366 2.5
    endloop
  endfacet
  facet normal 0.891007 -0.45399 0
    outer loop
      vertex -5.05636 3.67366 -2.5
      vertex -5.9441 1.93136 2.5
      vertex -5.9441 1.93136 -2.5
    endloop
  endfacet
  facet normal -0.156435 0.987688 0
    outer loop
      vertex 1.93136 -5.9441 -2.5
      vertex 0 -6.25 2.5
      vertex 1.93136 -5.9441 2.5
    endloop
  endfacet
  facet normal -0.156435 0.987688 0
    outer loop
      vertex 0 -6.25 2.5
      vertex 1.93136 -5.9441 -2.5
      vertex 0 -6.25 -2.5
    endloop
  endfacet
  facet normal -0.707107 0.707107 0
    outer loop
      vertex 3.67366 -5.05636 -2.5
      vertex 5.05636 -3.67366 2.5
      vertex 5.05636 -3.67366 -2.5
    endloop
  endfacet
  facet normal -0.707107 0.707107 0
    outer loop
      vertex 5.05636 -3.67366 2.5
      vertex 3.67366 -5.05636 -2.5
      vertex 3.67366 -5.05636 2.5
    endloop
  endfacet
  facet normal 0.45399 0.891007 -0
    outer loop
      vertex -1.93136 -5.9441 -2.5
      vertex -3.67366 -5.05636 2.5
      vertex -1.93136 -5.9441 2.5
    endloop
  endfacet
  facet normal 0.45399 0.891007 0
    outer loop
      vertex -3.67366 -5.05636 2.5
      vertex -1.93136 -5.9441 -2.5
      vertex -3.67366 -5.05636 -2.5
    endloop
  endfacet
  facet normal 0.891007 0.45399 0
    outer loop
      vertex -5.05636 -3.67366 2.5
      vertex -5.9441 -1.93136 -2.5
      vertex -5.9441 -1.93136 2.5
    endloop
  endfacet
  facet normal 0.891007 0.45399 0
    outer loop
      vertex -5.9441 -1.93136 -2.5
      vertex -5.05636 -3.67366 2.5
      vertex -5.05636 -3.67366 -2.5
    endloop
  endfacet
  facet normal -0.987688 0.156435 0
    outer loop
      vertex 5.9441 -1.93136 -2.5
      vertex 6.25 0 2.5
      vertex 6.25 0 -2.5
    endloop
  endfacet
  facet normal -0.987688 0.156435 0
    outer loop
      vertex 6.25 0 2.5
      vertex 5.9441 -1.93136 -2.5
      vertex 5.9441 -1.93136 2.5
    endloop
  endfacet
  facet normal -0.45399 0.891007 0
    outer loop
      vertex 3.67366 -5.05636 -2.5
      vertex 1.93136 -5.9441 2.5
      vertex 3.67366 -5.05636 2.5
    endloop
  endfacet
  facet normal -0.45399 0.891007 0
    outer loop
      vertex 1.93136 -5.9441 2.5
      vertex 3.67366 -5.05636 -2.5
      vertex 1.93136 -5.9441 -2.5
    endloop
  endfacet
endsolid OpenSCAD_Model
